<?xml version="1.0" encoding="UTF-8"?>
<svg id="Layer_1" data-name="Layer 1" xmlns="http://www.w3.org/2000/svg" viewBox="0 0 700 800">
  <defs>
    <style>
      .cls-1 {
        fill: #a95e37;
      }

      .cls-2 {
        fill: #140a00;
      }

      .cls-3 {
        fill: #6d0101;
      }

      .cls-4 {
        fill: #633023;
      }

      .cls-5 {
        fill: #d37d4a;
      }

      .cls-6 {
        fill: #d20411;
      }

      .cls-7 {
        fill: #b1632c;
      }

      .cls-8 {
        fill: #5a3204;
      }

      .cls-9 {
        fill: #301101;
      }

      .cls-10 {
        fill: #db7c6b;
      }

      .cls-11 {
        fill: #321801;
      }

      .cls-12 {
        fill: #9e5221;
      }

      .cls-13 {
        fill: #4f1b0e;
      }

      .cls-14 {
        fill: #fbfa88;
      }

      .cls-15 {
        fill: #eb9b7b;
      }

      .cls-16 {
        fill: #7a3e00;
      }

      .cls-17 {
        fill: #944627;
      }

      .cls-18 {
        fill: #6a0604;
      }

      .cls-19 {
        fill: #ab6125;
      }

      .cls-20 {
        fill: #170001;
      }

      .cls-21 {
        fill: #ebaa8d;
      }

      .cls-22 {
        fill: #bb704d;
      }

      .cls-23 {
        fill: #d1865e;
      }

      .cls-24 {
        fill: #b05e2f;
      }

      .cls-25 {
        fill: #d8855b;
      }

      .cls-26 {
        fill: #efa688;
      }

      .cls-27 {
        fill: #e18557;
      }

      .cls-28 {
        fill: #120000;
      }

      .cls-29 {
        fill: #603001;
      }

      .cls-30 {
        fill: #170400;
      }

      .cls-31 {
        fill: #2a1403;
      }

      .cls-32 {
        fill: #824401;
      }

      .cls-33 {
        fill: #260a01;
      }

      .cls-34 {
        fill: #260401;
      }

      .cls-35 {
        fill: #522d00;
      }

      .cls-36 {
        fill: #a55b2b;
      }

      .cls-37 {
        fill: #b96b01;
      }

      .cls-38 {
        fill: #e9915c;
      }

      .cls-39 {
        fill: #331902;
      }

      .cls-40 {
        fill: #d07b52;
      }

      .cls-41 {
        fill: #5b430e;
      }

      .cls-42 {
        fill: #a25330;
      }

      .cls-43 {
        fill: #a05c00;
      }

      .cls-44 {
        fill: #270b01;
      }

      .cls-45 {
        fill: #cd6f02;
      }

      .cls-46 {
        fill: #9f0000;
      }

      .cls-47 {
        fill: #b5714f;
      }

      .cls-48 {
        fill: #96430f;
      }

      .cls-49 {
        fill: #cc7f5f;
      }

      .cls-50 {
        fill: #804701;
      }

      .cls-51 {
        fill: #5c3500;
      }

      .cls-52 {
        fill: #824a00;
      }

      .cls-53 {
        fill: #332207;
      }

      .cls-54 {
        fill: #8f0000;
      }

      .cls-55 {
        fill: #652700;
      }

      .cls-56 {
        fill: #e50f28;
      }

      .cls-57 {
        fill: #fa8902;
      }

      .cls-58 {
        fill: #e9a17e;
      }

      .cls-59 {
        fill: #5d331d;
      }

      .cls-60 {
        fill: #f3a381;
      }

      .cls-61 {
        fill: #f6d3ad;
      }

      .cls-62 {
        fill: #513a0b;
      }

      .cls-63 {
        fill: #744c3f;
      }

      .cls-64 {
        fill: #412600;
      }

      .cls-65 {
        fill: #3c2800;
      }

      .cls-66 {
        fill: #e99f83;
      }

      .cls-67 {
        fill: #ae8a70;
      }

      .cls-68 {
        fill: #a0573f;
      }

      .cls-69 {
        fill: #1d0f03;
      }

      .cls-70 {
        fill: #442600;
      }

      .cls-71 {
        fill: #b3653c;
      }

      .cls-72 {
        fill: #844a02;
      }

      .cls-73 {
        fill: #390d00;
      }

      .cls-74 {
        fill: #e3926e;
      }

      .cls-75 {
        fill: #e59267;
      }

      .cls-76 {
        fill: #d18368;
      }

      .cls-77 {
        fill: #d9865a;
      }

      .cls-78 {
        fill: #050001;
      }

      .cls-79 {
        fill: #7f4200;
      }

      .cls-80 {
        fill: #150001;
      }

      .cls-81 {
        fill: #c37700;
      }

      .cls-82 {
        fill: #291402;
      }

      .cls-83 {
        fill: #fcb39a;
      }

      .cls-84 {
        fill: #7f4201;
      }

      .cls-85 {
        fill: #e38f68;
      }

      .cls-86 {
        fill: #a05111;
      }

      .cls-87 {
        fill: #5a2a00;
      }

      .cls-88 {
        fill: #110100;
      }

      .cls-89 {
        fill: #895212;
      }

      .cls-90 {
        fill: #361304;
      }

      .cls-91 {
        fill: #910100;
      }

      .cls-92 {
        fill: #f1d8af;
      }

      .cls-93 {
        fill: #843b13;
      }

      .cls-94 {
        fill: #493106;
      }

      .cls-95 {
        fill: #8a4504;
      }

      .cls-96 {
        fill: #d38256;
      }

      .cls-97 {
        fill: #4c2b01;
      }

      .cls-98 {
        fill: #b56740;
      }

      .cls-99 {
        fill: #7d4b05;
      }

      .cls-100 {
        fill: #553402;
      }

      .cls-101 {
        fill: #b56b46;
      }

      .cls-102 {
        fill: #170300;
      }

      .cls-103 {
        fill: #210300;
      }

      .cls-104 {
        fill: #ef9d80;
      }

      .cls-105 {
        fill: #c06b2c;
      }

      .cls-106 {
        fill: #c25e03;
      }

      .cls-107 {
        fill: #8d4202;
      }

      .cls-108 {
        fill: #a6572d;
      }

      .cls-109 {
        fill: #280d01;
      }

      .cls-110 {
        fill: #a95c46;
      }

      .cls-111 {
        fill: #735541;
      }

      .cls-112 {
        fill: #562400;
      }

      .cls-113 {
        fill: #e18659;
      }

      .cls-114 {
        fill: #0c0100;
      }

      .cls-115 {
        fill: #d78b69;
      }

      .cls-116 {
        fill: #d1804f;
      }

      .cls-117 {
        fill: #de906c;
      }

      .cls-118 {
        fill: #a1542a;
      }

      .cls-119 {
        fill: #ca774b;
      }

      .cls-120 {
        fill: #0c0000;
      }

      .cls-121 {
        fill: #4b2200;
      }

      .cls-122 {
        fill: #d77d48;
      }

      .cls-123 {
        fill: #d38566;
      }

      .cls-124 {
        fill: #361f05;
      }

      .cls-125 {
        fill: #b16232;
      }

      .cls-126 {
        fill: #d68156;
      }

      .cls-127 {
        fill: #6a0000;
      }

      .cls-128 {
        fill: #371d01;
      }

      .cls-129 {
        fill: #d98762;
      }

      .cls-130 {
        fill: #d48159;
      }

      .cls-131 {
        fill: #cf7a53;
      }

      .cls-132 {
        fill: #dd8a60;
      }

      .cls-133 {
        fill: #8d4e01;
      }

      .cls-134 {
        fill: #150000;
      }

      .cls-135 {
        fill: #804702;
      }

      .cls-136 {
        fill: #dd7704;
      }

      .cls-137 {
        fill: #813c12;
      }

      .cls-138 {
        fill: #935101;
      }

      .cls-139 {
        fill: #8a4a01;
      }

      .cls-140 {
        fill: #9c934d;
      }

      .cls-141 {
        fill: #e77c08;
      }

      .cls-142 {
        fill: #ba7046;
      }

      .cls-143 {
        fill: #582a01;
      }

      .cls-144 {
        fill: #cd7b55;
      }
    </style>
  </defs>
  <rect class="cls-71" x="641.67" y="733.33" width="58.33" height="66.67"/>
  <rect class="cls-110" x="583.33" y="733.33" width="58.33" height="66.67"/>
  <rect class="cls-13" x="525" y="733.33" width="58.33" height="66.67"/>
  <rect class="cls-3" x="466.67" y="733.33" width="58.33" height="66.67"/>
  <rect class="cls-54" x="408.33" y="733.33" width="58.33" height="66.67"/>
  <rect class="cls-6" x="350" y="733.33" width="58.33" height="66.67"/>
  <rect class="cls-56" x="291.67" y="733.33" width="58.33" height="66.67"/>
  <rect class="cls-10" x="233.33" y="733.33" width="58.33" height="66.67"/>
  <rect class="cls-22" x="175" y="733.33" width="58.33" height="66.67"/>
  <rect class="cls-17" x="116.67" y="733.33" width="58.33" height="66.67"/>
  <rect class="cls-131" x="58.33" y="733.33" width="58.33" height="66.67"/>
  <rect class="cls-101" x="0" y="733.33" width="58.33" height="66.67"/>
  <rect class="cls-114" x="641.67" y="666.67" width="58.33" height="66.67"/>
  <rect class="cls-142" x="583.33" y="666.67" width="58.33" height="66.67"/>
  <rect class="cls-18" x="525" y="666.67" width="58.33" height="66.67"/>
  <rect class="cls-127" x="466.67" y="666.67" width="58.33" height="66.67"/>
  <rect class="cls-91" x="408.33" y="666.67" width="58.33" height="66.67"/>
  <rect class="cls-46" x="350" y="666.67" width="58.33" height="66.67"/>
  <rect class="cls-104" x="291.67" y="666.67" width="58.33" height="66.67"/>
  <rect class="cls-49" x="233.33" y="666.67" width="58.33" height="66.67"/>
  <rect class="cls-47" x="175" y="666.67" width="58.33" height="66.67"/>
  <rect class="cls-40" x="116.67" y="666.67" width="58.33" height="66.67"/>
  <rect class="cls-130" x="58.33" y="666.67" width="58.33" height="66.67"/>
  <rect class="cls-36" x="0" y="666.67" width="58.33" height="66.67"/>
  <rect class="cls-53" x="641.67" y="600" width="58.33" height="66.67"/>
  <rect class="cls-69" x="583.33" y="600" width="58.33" height="66.67"/>
  <rect class="cls-120" x="525" y="600" width="58.33" height="66.67"/>
  <rect class="cls-108" x="466.67" y="600" width="58.33" height="66.67"/>
  <rect class="cls-137" x="408.33" y="600" width="58.33" height="66.67"/>
  <rect class="cls-96" x="350" y="600" width="58.33" height="66.67"/>
  <rect class="cls-113" x="291.67" y="600" width="58.33" height="66.67"/>
  <rect class="cls-38" x="233.33" y="600" width="58.33" height="66.67"/>
  <rect class="cls-132" x="175" y="600" width="58.33" height="66.67"/>
  <rect class="cls-25" x="116.67" y="600" width="58.33" height="66.67"/>
  <rect class="cls-117" x="58.33" y="600" width="58.33" height="66.67"/>
  <rect class="cls-86" x="0" y="600" width="58.33" height="66.67"/>
  <rect class="cls-92" x="641.67" y="533.33" width="58.33" height="66.67"/>
  <rect class="cls-140" x="583.33" y="533.33" width="58.33" height="66.67"/>
  <rect class="cls-2" x="525" y="533.33" width="58.33" height="66.67"/>
  <rect class="cls-102" x="466.67" y="533.33" width="58.33" height="66.67"/>
  <rect class="cls-48" x="408.33" y="533.33" width="58.33" height="66.67"/>
  <rect class="cls-118" x="350" y="533.33" width="58.33" height="66.67"/>
  <rect class="cls-24" x="291.67" y="533.33" width="58.33" height="66.67"/>
  <rect class="cls-5" x="233.33" y="533.33" width="58.33" height="66.67"/>
  <rect class="cls-126" x="175" y="533.33" width="58.33" height="66.67"/>
  <rect class="cls-58" x="116.67" y="533.33" width="58.33" height="66.67"/>
  <rect class="cls-77" x="58.33" y="533.33" width="58.33" height="66.67"/>
  <rect class="cls-14" x="0" y="533.33" width="58.33" height="66.67"/>
  <rect class="cls-99" x="641.67" y="466.67" width="58.33" height="66.67"/>
  <rect class="cls-61" x="583.33" y="466.67" width="58.33" height="66.67"/>
  <rect class="cls-11" x="525" y="466.67" width="58.33" height="66.67"/>
  <rect class="cls-44" x="466.67" y="466.67" width="58.33" height="66.67"/>
  <rect class="cls-55" x="408.33" y="466.67" width="58.33" height="66.67"/>
  <rect class="cls-93" x="350" y="466.67" width="58.33" height="66.67"/>
  <rect class="cls-98" x="291.67" y="466.67" width="58.33" height="66.67"/>
  <rect class="cls-125" x="233.33" y="466.67" width="58.33" height="66.67"/>
  <rect class="cls-12" x="175" y="466.67" width="58.33" height="66.67"/>
  <rect class="cls-122" x="116.67" y="466.67" width="58.33" height="66.67"/>
  <rect class="cls-7" x="58.33" y="466.67" width="58.33" height="66.67"/>
  <rect class="cls-57" x="0" y="466.67" width="58.33" height="66.67"/>
  <rect class="cls-51" x="641.67" y="400" width="58.33" height="66.67"/>
  <rect class="cls-8" x="583.33" y="400" width="58.33" height="66.67"/>
  <rect class="cls-9" x="525" y="400" width="58.33" height="66.67"/>
  <rect class="cls-33" x="466.67" y="400" width="58.33" height="66.67"/>
  <rect class="cls-107" x="408.33" y="400" width="58.33" height="66.67"/>
  <rect class="cls-42" x="350" y="400" width="58.33" height="66.67"/>
  <rect class="cls-23" x="291.67" y="400" width="58.33" height="66.67"/>
  <rect class="cls-116" x="233.33" y="400" width="58.33" height="66.67"/>
  <rect class="cls-105" x="175" y="400" width="58.33" height="66.67"/>
  <rect class="cls-106" x="116.67" y="400" width="58.33" height="66.67"/>
  <rect class="cls-136" x="58.33" y="400" width="58.33" height="66.67"/>
  <rect class="cls-141" x="0" y="400" width="58.33" height="66.67"/>
  <rect class="cls-100" x="641.67" y="333.33" width="58.33" height="66.67"/>
  <rect class="cls-41" x="583.33" y="333.33" width="58.33" height="66.67"/>
  <rect class="cls-65" x="525" y="333.33" width="58.33" height="66.67"/>
  <rect class="cls-109" x="466.67" y="333.33" width="58.33" height="66.67"/>
  <rect class="cls-66" x="408.33" y="333.33" width="58.33" height="66.67"/>
  <rect class="cls-68" x="350" y="333.33" width="58.33" height="66.67"/>
  <rect class="cls-129" x="291.67" y="333.33" width="58.33" height="66.67"/>
  <rect class="cls-19" x="233.33" y="333.33" width="58.33" height="66.67"/>
  <rect class="cls-52" x="175" y="333.33" width="58.33" height="66.67"/>
  <rect class="cls-43" x="116.67" y="333.33" width="58.33" height="66.67"/>
  <rect class="cls-37" x="58.33" y="333.33" width="58.33" height="66.67"/>
  <rect class="cls-81" x="0" y="333.33" width="58.33" height="66.67"/>
  <rect class="cls-62" x="641.67" y="266.67" width="58.33" height="66.67"/>
  <rect class="cls-94" x="583.33" y="266.67" width="58.33" height="66.67"/>
  <rect class="cls-82" x="525" y="266.67" width="58.33" height="66.67"/>
  <rect class="cls-76" x="466.67" y="266.67" width="58.33" height="66.67"/>
  <rect class="cls-15" x="408.33" y="266.67" width="58.33" height="66.67"/>
  <rect class="cls-60" x="350" y="266.67" width="58.33" height="66.67"/>
  <rect class="cls-119" x="291.67" y="266.67" width="58.33" height="66.67"/>
  <rect class="cls-90" x="233.33" y="266.67" width="58.33" height="66.67"/>
  <rect class="cls-50" x="175" y="266.67" width="58.33" height="66.67"/>
  <rect class="cls-138" x="116.67" y="266.67" width="58.33" height="66.67"/>
  <rect class="cls-88" x="58.33" y="266.67" width="58.33" height="66.67"/>
  <rect class="cls-30" x="0" y="266.67" width="58.33" height="66.67"/>
  <rect class="cls-124" x="641.67" y="200" width="58.33" height="66.67"/>
  <rect class="cls-64" x="583.33" y="200" width="58.33" height="66.67"/>
  <rect class="cls-4" x="525" y="200" width="58.33" height="66.67"/>
  <rect class="cls-21" x="466.67" y="200" width="58.33" height="66.67"/>
  <rect class="cls-26" x="408.33" y="200" width="58.33" height="66.67"/>
  <rect class="cls-27" x="350" y="200" width="58.33" height="66.67"/>
  <rect class="cls-83" x="291.67" y="200" width="58.33" height="66.67"/>
  <rect class="cls-78" x="233.33" y="200" width="58.33" height="66.67"/>
  <rect class="cls-135" x="175" y="200" width="58.33" height="66.67"/>
  <rect class="cls-133" x="116.67" y="200" width="58.33" height="66.67"/>
  <rect class="cls-28" x="58.33" y="200" width="58.33" height="66.67"/>
  <rect class="cls-34" x="0" y="200" width="58.33" height="66.67"/>
  <rect class="cls-128" x="641.67" y="133.33" width="58.33" height="66.67"/>
  <rect class="cls-97" x="583.33" y="133.33" width="58.33" height="66.67"/>
  <rect class="cls-115" x="525" y="133.33" width="58.33" height="66.67"/>
  <rect class="cls-63" x="466.67" y="133.33" width="58.33" height="66.67"/>
  <rect class="cls-123" x="408.33" y="133.33" width="58.33" height="66.67"/>
  <rect class="cls-75" x="350" y="133.33" width="58.33" height="66.67"/>
  <rect class="cls-85" x="291.67" y="133.33" width="58.33" height="66.67"/>
  <rect class="cls-121" x="233.33" y="133.33" width="58.33" height="66.67"/>
  <rect class="cls-79" x="175" y="133.33" width="58.33" height="66.67"/>
  <rect class="cls-139" x="116.67" y="133.33" width="58.33" height="66.67"/>
  <rect class="cls-80" x="58.33" y="133.33" width="58.33" height="66.67"/>
  <rect class="cls-73" x="0" y="133.33" width="58.33" height="66.67"/>
  <rect class="cls-70" x="641.67" y="66.67" width="58.33" height="66.67"/>
  <rect class="cls-35" x="583.33" y="66.67" width="58.33" height="66.67"/>
  <rect class="cls-1" x="525" y="66.67" width="58.33" height="66.67"/>
  <rect class="cls-74" x="466.67" y="66.67" width="58.33" height="66.67"/>
  <rect class="cls-144" x="408.33" y="66.67" width="58.33" height="66.67"/>
  <rect class="cls-59" x="350" y="66.67" width="58.33" height="66.67"/>
  <rect class="cls-95" x="291.67" y="66.67" width="58.33" height="66.67"/>
  <rect class="cls-143" x="233.33" y="66.67" width="58.33" height="66.67"/>
  <rect class="cls-84" x="175" y="66.67" width="58.33" height="66.67"/>
  <rect class="cls-72" x="116.67" y="66.67" width="58.33" height="66.67"/>
  <rect class="cls-134" x="58.33" y="66.67" width="58.33" height="66.67"/>
  <rect class="cls-20" x="0" y="66.67" width="58.33" height="66.67"/>
  <rect class="cls-31" x="641.67" width="58.33" height="66.67"/>
  <rect class="cls-39" x="583.33" width="58.33" height="66.67"/>
  <rect class="cls-103" x="525" width="58.33" height="66.67"/>
  <rect class="cls-111" x="466.67" width="58.33" height="66.67"/>
  <rect class="cls-67" x="408.33" width="58.33" height="66.67"/>
  <rect class="cls-89" x="350" width="58.33" height="66.67"/>
  <rect class="cls-45" x="291.67" width="58.33" height="66.67"/>
  <rect class="cls-29" x="233.33" width="58.33" height="66.67"/>
  <rect class="cls-16" x="175" width="58.33" height="66.67"/>
  <rect class="cls-32" x="116.67" width="58.33" height="66.67"/>
  <rect class="cls-87" x="58.33" width="58.33" height="66.67"/>
  <rect class="cls-112" x="0" width="58.33" height="66.67"/>
</svg>