<?xml version="1.0" encoding="UTF-8"?>
<svg id="Layer_1" data-name="Layer 1" xmlns="http://www.w3.org/2000/svg" viewBox="0 0 700 800">
  <defs>
    <style>
      .cls-1 {
        fill: #94766b;
      }

      .cls-2 {
        fill: #6f5042;
      }

      .cls-3 {
        fill: #d9a89e;
      }

      .cls-4 {
        fill: #090c0e;
      }

      .cls-5 {
        fill: #854c36;
      }

      .cls-6 {
        fill: #52392d;
      }

      .cls-7 {
        fill: #93746a;
      }

      .cls-8 {
        fill: #0a0e0f;
      }

      .cls-9 {
        fill: #90776e;
      }

      .cls-10 {
        fill: #845d50;
      }

      .cls-11 {
        fill: #0d0e0a;
      }

      .cls-12 {
        fill: #93786d;
      }

      .cls-13 {
        fill: #dcbeaa;
      }

      .cls-14 {
        fill: #0d1218;
      }

      .cls-15 {
        fill: #773d27;
      }

      .cls-16 {
        fill: #35242a;
      }

      .cls-17 {
        fill: #abc5c9;
      }

      .cls-18 {
        fill: #8c796b;
      }

      .cls-19 {
        fill: #0f111c;
      }

      .cls-20 {
        fill: #6c4b3e;
      }

      .cls-21 {
        fill: #917265;
      }

      .cls-22 {
        fill: #9a786c;
      }

      .cls-23 {
        fill: #cea089;
      }

      .cls-24 {
        fill: #0f1217;
      }

      .cls-25 {
        fill: #64362f;
      }

      .cls-26 {
        fill: #0e1216;
      }

      .cls-27 {
        fill: #af7056;
      }

      .cls-28 {
        fill: #d3aa9e;
      }

      .cls-29 {
        fill: #100c17;
      }

      .cls-30 {
        fill: #dabaab;
      }

      .cls-31 {
        fill: #c8a795;
      }

      .cls-32 {
        fill: #92452f;
      }

      .cls-33 {
        fill: #ab7970;
      }

      .cls-34 {
        fill: #110f19;
      }

      .cls-35 {
        fill: #6e6e6e;
      }

      .cls-36 {
        fill: #dcb8a5;
      }

      .cls-37 {
        fill: #a47b62;
      }

      .cls-38 {
        fill: #c59e91;
      }

      .cls-39 {
        fill: #16100d;
      }

      .cls-40 {
        fill: #62382b;
      }

      .cls-41 {
        fill: #ad8875;
      }

      .cls-42 {
        fill: #181b2e;
      }

      .cls-43 {
        fill: #96766b;
      }

      .cls-44 {
        fill: #d1aa95;
      }

      .cls-45 {
        fill: #dcbeb2;
      }

      .cls-46 {
        fill: #5c3b30;
      }

      .cls-47 {
        fill: #11141c;
      }

      .cls-48 {
        fill: #090e0f;
      }

      .cls-49 {
        fill: #84695e;
      }

      .cls-50 {
        fill: #40251e;
      }

      .cls-51 {
        fill: #d6af9e;
      }

      .cls-52 {
        fill: #debda7;
      }

      .cls-53 {
        fill: #504646;
      }

      .cls-54 {
        fill: #af6c65;
      }

      .cls-55 {
        fill: #905b47;
      }

      .cls-56 {
        fill: #9d8376;
      }

      .cls-57 {
        fill: #94786c;
      }

      .cls-58 {
        fill: #35242c;
      }

      .cls-59 {
        fill: #6a6a6a;
      }

      .cls-60 {
        fill: #0a0e11;
      }

      .cls-61 {
        fill: #160f0b;
      }

      .cls-62 {
        fill: #8c665f;
      }

      .cls-63 {
        fill: #160b06;
      }

      .cls-64 {
        fill: #d39e7e;
      }

      .cls-65 {
        fill: #99776d;
      }

      .cls-66 {
        fill: #ce9c7f;
      }

      .cls-67 {
        fill: #4e281c;
      }

      .cls-68 {
        fill: #aa6d52;
      }

      .cls-69 {
        fill: #c99d8b;
      }

      .cls-70 {
        fill: #685650;
      }

      .cls-71 {
        fill: #ddbca9;
      }

      .cls-72 {
        fill: #060503;
      }

      .cls-73 {
        fill: #d2dce0;
      }

      .cls-74 {
        fill: #744530;
      }

      .cls-75 {
        fill: #99796a;
      }

      .cls-76 {
        fill: #be8d81;
      }

      .cls-77 {
        fill: #19110f;
      }

      .cls-78 {
        fill: #090b10;
      }

      .cls-79 {
        fill: #37262e;
      }

      .cls-80 {
        fill: #6a6a6c;
      }

      .cls-81 {
        fill: #431d16;
      }

      .cls-82 {
        fill: #95756a;
      }

      .cls-83 {
        fill: #3b201d;
      }

      .cls-84 {
        fill: #907268;
      }

      .cls-85 {
        fill: #696768;
      }

      .cls-86 {
        fill: #b18673;
      }

      .cls-87 {
        fill: #2a1b1b;
      }

      .cls-88 {
        fill: #d8baab;
      }

      .cls-89 {
        fill: #a78275;
      }

      .cls-90 {
        fill: #977769;
      }

      .cls-91 {
        fill: #b5c5c9;
      }

      .cls-92 {
        fill: #d0a387;
      }

      .cls-93 {
        fill: #604d46;
      }

      .cls-94 {
        fill: #24191b;
      }

      .cls-95 {
        fill: #d3b8a7;
      }

      .cls-96 {
        fill: #35110c;
      }

      .cls-97 {
        fill: #895e4c;
      }

      .cls-98 {
        fill: #52312a;
      }

      .cls-99 {
        fill: #98766b;
      }

      .cls-100 {
        fill: #080c0d;
      }

      .cls-101 {
        fill: #4e3f3b;
      }

      .cls-102 {
        fill: #95786d;
      }

      .cls-103 {
        fill: #897265;
      }

      .cls-104 {
        fill: #302019;
      }

      .cls-105 {
        fill: #2b1911;
      }

      .cls-106 {
        fill: #0a0c12;
      }

      .cls-107 {
        fill: #1e1816;
      }

      .cls-108 {
        fill: #b15940;
      }

      .cls-109 {
        fill: #44343e;
      }

      .cls-110 {
        fill: #5a321e;
      }

      .cls-111 {
        fill: #110c06;
      }

      .cls-112 {
        fill: #6a2114;
      }

      .cls-113 {
        fill: #854c3c;
      }

      .cls-114 {
        fill: #755548;
      }

      .cls-115 {
        fill: #c79e86;
      }

      .cls-116 {
        fill: #0d0d18;
      }

      .cls-117 {
        fill: #c9b49f;
      }

      .cls-118 {
        fill: #6b6b6b;
      }

      .cls-119 {
        fill: #6c676b;
      }

      .cls-120 {
        fill: #dcc2b5;
      }

      .cls-121 {
        fill: #6c6d6f;
      }

      .cls-122 {
        fill: #9e715d;
      }

      .cls-123 {
        fill: #935c43;
      }

      .cls-124 {
        fill: #b08879;
      }

      .cls-125 {
        fill: #0f1017;
      }

      .cls-126 {
        fill: #d5b1a0;
      }

      .cls-127 {
        fill: #3a2a2a;
      }

      .cls-128 {
        fill: #0b0f10;
      }

      .cls-129 {
        fill: #845040;
      }

      .cls-130 {
        fill: #937268;
      }

      .cls-131 {
        fill: #bca099;
      }

      .cls-132 {
        fill: #55312b;
      }

      .cls-133 {
        fill: #403138;
      }

      .cls-134 {
        fill: #4e231b;
      }

      .cls-135 {
        fill: #c59483;
      }

      .cls-136 {
        fill: #261914;
      }

      .cls-137 {
        fill: #aac5d0;
      }

      .cls-138 {
        fill: #0f0e0c;
      }

      .cls-139 {
        fill: #452c24;
      }

      .cls-140 {
        fill: #6b3724;
      }

      .cls-141 {
        fill: #23191d;
      }

      .cls-142 {
        fill: #4e3f40;
      }
    </style>
  </defs>
  <rect class="cls-128" x="641.67" y="733.33" width="58.33" height="66.67"/>
  <rect class="cls-14" x="583.33" y="733.33" width="58.33" height="66.67"/>
  <rect class="cls-4" x="525" y="733.33" width="58.33" height="66.67"/>
  <rect class="cls-60" x="466.67" y="733.33" width="58.33" height="66.67"/>
  <rect class="cls-26" x="408.33" y="733.33" width="58.33" height="66.67"/>
  <rect class="cls-78" x="350" y="733.33" width="58.33" height="66.67"/>
  <rect class="cls-62" x="291.67" y="733.33" width="58.33" height="66.67"/>
  <rect class="cls-34" x="233.33" y="733.33" width="58.33" height="66.67"/>
  <rect class="cls-67" x="175" y="733.33" width="58.33" height="66.67"/>
  <rect class="cls-112" x="116.67" y="733.33" width="58.33" height="66.67"/>
  <rect class="cls-117" x="58.33" y="733.33" width="58.33" height="66.67"/>
  <rect class="cls-110" x="0" y="733.33" width="58.33" height="66.67"/>
  <rect class="cls-100" x="641.67" y="666.67" width="58.33" height="66.67"/>
  <rect class="cls-100" x="583.33" y="666.67" width="58.33" height="66.67"/>
  <rect class="cls-40" x="525" y="666.67" width="58.33" height="66.67"/>
  <rect class="cls-114" x="466.67" y="666.67" width="58.33" height="66.67"/>
  <rect class="cls-125" x="408.33" y="666.67" width="58.33" height="66.67"/>
  <rect class="cls-106" x="350" y="666.67" width="58.33" height="66.67"/>
  <rect class="cls-42" x="291.67" y="666.67" width="58.33" height="66.67"/>
  <rect class="cls-95" x="233.33" y="666.67" width="58.33" height="66.67"/>
  <rect class="cls-108" x="175" y="666.67" width="58.33" height="66.67"/>
  <rect class="cls-126" x="116.67" y="666.67" width="58.33" height="66.67"/>
  <rect class="cls-140" x="58.33" y="666.67" width="58.33" height="66.67"/>
  <rect class="cls-50" x="0" y="666.67" width="58.33" height="66.67"/>
  <rect class="cls-48" x="641.67" y="600" width="58.33" height="66.67"/>
  <rect class="cls-37" x="583.33" y="600" width="58.33" height="66.67"/>
  <rect class="cls-56" x="525" y="600" width="58.33" height="66.67"/>
  <rect class="cls-131" x="466.67" y="600" width="58.33" height="66.67"/>
  <rect class="cls-116" x="408.33" y="600" width="58.33" height="66.67"/>
  <rect class="cls-47" x="350" y="600" width="58.33" height="66.67"/>
  <rect class="cls-19" x="291.67" y="600" width="58.33" height="66.67"/>
  <rect class="cls-27" x="233.33" y="600" width="58.33" height="66.67"/>
  <rect class="cls-32" x="175" y="600" width="58.33" height="66.67"/>
  <rect class="cls-3" x="116.67" y="600" width="58.33" height="66.67"/>
  <rect class="cls-92" x="58.33" y="600" width="58.33" height="66.67"/>
  <rect class="cls-134" x="0" y="600" width="58.33" height="66.67"/>
  <rect class="cls-29" x="641.67" y="533.33" width="58.33" height="66.67"/>
  <rect class="cls-86" x="583.33" y="533.33" width="58.33" height="66.67"/>
  <rect class="cls-33" x="525" y="533.33" width="58.33" height="66.67"/>
  <rect class="cls-76" x="466.67" y="533.33" width="58.33" height="66.67"/>
  <rect class="cls-41" x="408.33" y="533.33" width="58.33" height="66.67"/>
  <rect class="cls-24" x="350" y="533.33" width="58.33" height="66.67"/>
  <rect class="cls-8" x="291.67" y="533.33" width="58.33" height="66.67"/>
  <rect class="cls-61" x="233.33" y="533.33" width="58.33" height="66.67"/>
  <rect class="cls-52" x="175" y="533.33" width="58.33" height="66.67"/>
  <rect class="cls-71" x="116.67" y="533.33" width="58.33" height="66.67"/>
  <rect class="cls-64" x="58.33" y="533.33" width="58.33" height="66.67"/>
  <rect class="cls-15" x="0" y="533.33" width="58.33" height="66.67"/>
  <rect class="cls-135" x="641.67" y="466.67" width="58.33" height="66.67"/>
  <rect class="cls-44" x="583.33" y="466.67" width="58.33" height="66.67"/>
  <rect class="cls-28" x="525" y="466.67" width="58.33" height="66.67"/>
  <rect class="cls-69" x="466.67" y="466.67" width="58.33" height="66.67"/>
  <rect class="cls-51" x="408.33" y="466.67" width="58.33" height="66.67"/>
  <rect class="cls-72" x="350" y="466.67" width="58.33" height="66.67"/>
  <rect class="cls-105" x="291.67" y="466.67" width="58.33" height="66.67"/>
  <rect class="cls-66" x="233.33" y="466.67" width="58.33" height="66.67"/>
  <rect class="cls-13" x="175" y="466.67" width="58.33" height="66.67"/>
  <rect class="cls-89" x="116.67" y="466.67" width="58.33" height="66.67"/>
  <rect class="cls-68" x="58.33" y="466.67" width="58.33" height="66.67"/>
  <rect class="cls-129" x="0" y="466.67" width="58.33" height="66.67"/>
  <rect class="cls-6" x="641.67" y="400" width="58.33" height="66.67"/>
  <rect class="cls-122" x="583.33" y="400" width="58.33" height="66.67"/>
  <rect class="cls-124" x="525" y="400" width="58.33" height="66.67"/>
  <rect class="cls-31" x="466.67" y="400" width="58.33" height="66.67"/>
  <rect class="cls-10" x="408.33" y="400" width="58.33" height="66.67"/>
  <rect class="cls-11" x="350" y="400" width="58.33" height="66.67"/>
  <rect class="cls-96" x="291.67" y="400" width="58.33" height="66.67"/>
  <rect class="cls-25" x="233.33" y="400" width="58.33" height="66.67"/>
  <rect class="cls-55" x="175" y="400" width="58.33" height="66.67"/>
  <rect class="cls-5" x="116.67" y="400" width="58.33" height="66.67"/>
  <rect class="cls-46" x="58.33" y="400" width="58.33" height="66.67"/>
  <rect class="cls-17" x="0" y="400" width="58.33" height="66.67"/>
  <rect class="cls-107" x="641.67" y="333.33" width="58.33" height="66.67"/>
  <rect class="cls-23" x="583.33" y="333.33" width="58.33" height="66.67"/>
  <rect class="cls-45" x="525" y="333.33" width="58.33" height="66.67"/>
  <rect class="cls-120" x="466.67" y="333.33" width="58.33" height="66.67"/>
  <rect class="cls-115" x="408.33" y="333.33" width="58.33" height="66.67"/>
  <rect class="cls-123" x="350" y="333.33" width="58.33" height="66.67"/>
  <rect class="cls-54" x="291.67" y="333.33" width="58.33" height="66.67"/>
  <rect class="cls-38" x="233.33" y="333.33" width="58.33" height="66.67"/>
  <rect class="cls-81" x="175" y="333.33" width="58.33" height="66.67"/>
  <rect class="cls-74" x="116.67" y="333.33" width="58.33" height="66.67"/>
  <rect class="cls-91" x="58.33" y="333.33" width="58.33" height="66.67"/>
  <rect class="cls-73" x="0" y="333.33" width="58.33" height="66.67"/>
  <rect class="cls-142" x="641.67" y="266.67" width="58.33" height="66.67"/>
  <rect class="cls-139" x="583.33" y="266.67" width="58.33" height="66.67"/>
  <rect class="cls-2" x="525" y="266.67" width="58.33" height="66.67"/>
  <rect class="cls-20" x="466.67" y="266.67" width="58.33" height="66.67"/>
  <rect class="cls-127" x="408.33" y="266.67" width="58.33" height="66.67"/>
  <rect class="cls-30" x="350" y="266.67" width="58.33" height="66.67"/>
  <rect class="cls-88" x="291.67" y="266.67" width="58.33" height="66.67"/>
  <rect class="cls-36" x="233.33" y="266.67" width="58.33" height="66.67"/>
  <rect class="cls-97" x="175" y="266.67" width="58.33" height="66.67"/>
  <rect class="cls-137" x="116.67" y="266.67" width="58.33" height="66.67"/>
  <rect class="cls-109" x="58.33" y="266.67" width="58.33" height="66.67"/>
  <rect class="cls-94" x="0" y="266.67" width="58.33" height="66.67"/>
  <rect class="cls-18" x="641.67" y="200" width="58.33" height="66.67"/>
  <rect class="cls-12" x="583.33" y="200" width="58.33" height="66.67"/>
  <rect class="cls-70" x="525" y="200" width="58.33" height="66.67"/>
  <rect class="cls-9" x="466.67" y="200" width="58.33" height="66.67"/>
  <rect class="cls-63" x="408.33" y="200" width="58.33" height="66.67"/>
  <rect class="cls-113" x="350" y="200" width="58.33" height="66.67"/>
  <rect class="cls-132" x="291.67" y="200" width="58.33" height="66.67"/>
  <rect class="cls-87" x="233.33" y="200" width="58.33" height="66.67"/>
  <rect class="cls-138" x="175" y="200" width="58.33" height="66.67"/>
  <rect class="cls-16" x="116.67" y="200" width="58.33" height="66.67"/>
  <rect class="cls-79" x="58.33" y="200" width="58.33" height="66.67"/>
  <rect class="cls-141" x="0" y="200" width="58.33" height="66.67"/>
  <rect class="cls-103" x="641.67" y="133.33" width="58.33" height="66.67"/>
  <rect class="cls-7" x="583.33" y="133.33" width="58.33" height="66.67"/>
  <rect class="cls-57" x="525" y="133.33" width="58.33" height="66.67"/>
  <rect class="cls-102" x="466.67" y="133.33" width="58.33" height="66.67"/>
  <rect class="cls-83" x="408.33" y="133.33" width="58.33" height="66.67"/>
  <rect class="cls-77" x="350" y="133.33" width="58.33" height="66.67"/>
  <rect class="cls-98" x="291.67" y="133.33" width="58.33" height="66.67"/>
  <rect class="cls-93" x="233.33" y="133.33" width="58.33" height="66.67"/>
  <rect class="cls-111" x="175" y="133.33" width="58.33" height="66.67"/>
  <rect class="cls-133" x="116.67" y="133.33" width="58.33" height="66.67"/>
  <rect class="cls-79" x="58.33" y="133.33" width="58.33" height="66.67"/>
  <rect class="cls-58" x="0" y="133.33" width="58.33" height="66.67"/>
  <rect class="cls-49" x="641.67" y="66.67" width="58.33" height="66.67"/>
  <rect class="cls-1" x="583.33" y="66.67" width="58.33" height="66.67"/>
  <rect class="cls-90" x="525" y="66.67" width="58.33" height="66.67"/>
  <rect class="cls-43" x="466.67" y="66.67" width="58.33" height="66.67"/>
  <rect class="cls-21" x="408.33" y="66.67" width="58.33" height="66.67"/>
  <rect class="cls-39" x="350" y="66.67" width="58.33" height="66.67"/>
  <rect class="cls-136" x="291.67" y="66.67" width="58.33" height="66.67"/>
  <rect class="cls-104" x="233.33" y="66.67" width="58.33" height="66.67"/>
  <rect class="cls-101" x="175" y="66.67" width="58.33" height="66.67"/>
  <rect class="cls-80" x="116.67" y="66.67" width="58.33" height="66.67"/>
  <rect class="cls-119" x="58.33" y="66.67" width="58.33" height="66.67"/>
  <rect class="cls-121" x="0" y="66.67" width="58.33" height="66.67"/>
  <rect class="cls-84" x="641.67" width="58.33" height="66.67"/>
  <rect class="cls-82" x="583.33" width="58.33" height="66.67"/>
  <rect class="cls-22" x="525" width="58.33" height="66.67"/>
  <rect class="cls-65" x="466.67" width="58.33" height="66.67"/>
  <rect class="cls-99" x="408.33" width="58.33" height="66.67"/>
  <rect class="cls-75" x="350" width="58.33" height="66.67"/>
  <rect class="cls-130" x="291.67" width="58.33" height="66.67"/>
  <rect class="cls-53" x="233.33" width="58.33" height="66.67"/>
  <rect class="cls-85" x="175" width="58.33" height="66.67"/>
  <rect class="cls-118" x="116.67" width="58.33" height="66.67"/>
  <rect class="cls-35" x="58.33" width="58.33" height="66.67"/>
  <rect class="cls-59" x="0" width="58.33" height="66.67"/>
</svg>