<?xml version="1.0" encoding="UTF-8"?>
<svg id="Layer_1" data-name="Layer 1" xmlns="http://www.w3.org/2000/svg" viewBox="0 0 700 800">
  <defs>
    <style>
      .cls-1 {
        fill: #333527;
      }

      .cls-2 {
        fill: #133101;
      }

      .cls-3 {
        fill: #faba93;
      }

      .cls-4 {
        fill: #b5b6b2;
      }

      .cls-5 {
        fill: #342a11;
      }

      .cls-6 {
        fill: #181715;
      }

      .cls-7 {
        fill: #493124;
      }

      .cls-8 {
        fill: #acaf9f;
      }

      .cls-9 {
        fill: #5e923f;
      }

      .cls-10 {
        fill: #2d530e;
      }

      .cls-11 {
        fill: #764e21;
      }

      .cls-12 {
        fill: #eba975;
      }

      .cls-13 {
        fill: #7d7c82;
      }

      .cls-14 {
        fill: #bd7c5d;
      }

      .cls-15 {
        fill: #64923d;
      }

      .cls-16 {
        fill: #858188;
      }

      .cls-17 {
        fill: #ccc9c2;
      }

      .cls-18 {
        fill: #342c29;
      }

      .cls-19 {
        fill: #2f4c0c;
      }

      .cls-20 {
        fill: #6e9242;
      }

      .cls-21 {
        fill: #d3d1ca;
      }

      .cls-22 {
        fill: #2d2825;
      }

      .cls-23 {
        fill: #f4b286;
      }

      .cls-24 {
        fill: #8e8d93;
      }

      .cls-25 {
        fill: #30700b;
      }

      .cls-26 {
        fill: #5c9622;
      }

      .cls-27 {
        fill: #1a1615;
      }

      .cls-28 {
        fill: #d09373;
      }

      .cls-29 {
        fill: #bababa;
      }

      .cls-30 {
        fill: #b77967;
      }

      .cls-31 {
        fill: #908c7f;
      }

      .cls-32 {
        fill: #3e7d04;
      }

      .cls-33 {
        fill: #838288;
      }

      .cls-34 {
        fill: #49250b;
      }

      .cls-35 {
        fill: #6f8f4c;
      }

      .cls-36 {
        fill: #6da056;
      }

      .cls-37 {
        fill: #bcbdb5;
      }

      .cls-38 {
        fill: #fde0d4;
      }

      .cls-39 {
        fill: #db9661;
      }

      .cls-40 {
        fill: #d3834d;
      }

      .cls-41 {
        fill: #9b6242;
      }

      .cls-42 {
        fill: #d3525a;
      }

      .cls-43 {
        fill: #4d493e;
      }

      .cls-44 {
        fill: #bec2ba;
      }

      .cls-45 {
        fill: #3a302e;
      }

      .cls-46 {
        fill: #7c532b;
      }

      .cls-47 {
        fill: #412e1f;
      }

      .cls-48 {
        fill: #c88c7a;
      }

      .cls-49 {
        fill: #0e4602;
      }

      .cls-50 {
        fill: #25211e;
      }

      .cls-51 {
        fill: #adc897;
      }

      .cls-52 {
        fill: #828187;
      }

      .cls-53 {
        fill: #c87306;
      }

      .cls-54 {
        fill: #252021;
      }

      .cls-55 {
        fill: #a7aaa1;
      }

      .cls-56 {
        fill: #3e2a1f;
      }

      .cls-57 {
        fill: #ed6260;
      }

      .cls-58 {
        fill: #af7e59;
      }

      .cls-59 {
        fill: #23201f;
      }

      .cls-60 {
        fill: #0f8698;
      }

      .cls-61 {
        fill: #848389;
      }

      .cls-62 {
        fill: #703f43;
      }

      .cls-63 {
        fill: #a26c47;
      }

      .cls-64 {
        fill: #3b7704;
      }

      .cls-65 {
        fill: #2b410c;
      }

      .cls-66 {
        fill: #2d2e23;
      }

      .cls-67 {
        fill: #adafa2;
      }

      .cls-68 {
        fill: #df9643;
      }

      .cls-69 {
        fill: #4e5043;
      }

      .cls-70 {
        fill: #9cb28a;
      }

      .cls-71 {
        fill: #221e1b;
      }

      .cls-72 {
        fill: #9a4c4a;
      }

      .cls-73 {
        fill: #0c2238;
      }

      .cls-74 {
        fill: #38342d;
      }

      .cls-75 {
        fill: #2b2726;
      }

      .cls-76 {
        fill: #595449;
      }

      .cls-77 {
        fill: #ad7653;
      }

      .cls-78 {
        fill: #875e47;
      }

      .cls-79 {
        fill: #f3bfa8;
      }

      .cls-80 {
        fill: #20201b;
      }

      .cls-81 {
        fill: #d39579;
      }

      .cls-82 {
        fill: #39302d;
      }

      .cls-83 {
        fill: #5c311a;
      }

      .cls-84 {
        fill: #1b171a;
      }

      .cls-85 {
        fill: #38220f;
      }

      .cls-86 {
        fill: #d58169;
      }

      .cls-87 {
        fill: #404d4a;
      }

      .cls-88 {
        fill: #323122;
      }

      .cls-89 {
        fill: #fecfa9;
      }

      .cls-90 {
        fill: #53544c;
      }

      .cls-91 {
        fill: #070301;
      }

      .cls-92 {
        fill: #2a4504;
      }

      .cls-93 {
        fill: #89888e;
      }

      .cls-94 {
        fill: #86858b;
      }

      .cls-95 {
        fill: #312e1e;
      }

      .cls-96 {
        fill: #151110;
      }

      .cls-97 {
        fill: #2e6905;
      }

      .cls-98 {
        fill: #3e5b34;
      }

      .cls-99 {
        fill: #2a2625;
      }

      .cls-100 {
        fill: #245702;
      }

      .cls-101 {
        fill: #292524;
      }

      .cls-102 {
        fill: #221c14;
      }

      .cls-103 {
        fill: #1e380a;
      }

      .cls-104 {
        fill: #a26713;
      }

      .cls-105 {
        fill: #06946d;
      }

      .cls-106 {
        fill: #edddcd;
      }

      .cls-107 {
        fill: #472612;
      }

      .cls-108 {
        fill: #fecbab;
      }

      .cls-109 {
        fill: #181c03;
      }

      .cls-110 {
        fill: #b0a6a0;
      }

      .cls-111 {
        fill: #a2c442;
      }

      .cls-112 {
        fill: #0caa91;
      }

      .cls-113 {
        fill: #f8c197;
      }

      .cls-114 {
        fill: #fac59b;
      }

      .cls-115 {
        fill: #71746b;
      }

      .cls-116 {
        fill: #24201f;
      }

      .cls-117 {
        fill: #eba67b;
      }

      .cls-118 {
        fill: #d99258;
      }

      .cls-119 {
        fill: #49392c;
      }

      .cls-120 {
        fill: #968b71;
      }

      .cls-121 {
        fill: #2c6a0d;
      }

      .cls-122 {
        fill: #eeb784;
      }

      .cls-123 {
        fill: #4b480c;
      }

      .cls-124 {
        fill: #221911;
      }

      .cls-125 {
        fill: #b3663c;
      }

      .cls-126 {
        fill: #231f1e;
      }

      .cls-127 {
        fill: #578c40;
      }

      .cls-128 {
        fill: #d59974;
      }

      .cls-129 {
        fill: #626a1c;
      }

      .cls-130 {
        fill: #1c2b10;
      }

      .cls-131 {
        fill: #92a185;
      }

      .cls-132 {
        fill: #969992;
      }

      .cls-133 {
        fill: #2d2b2a;
      }

      .cls-134 {
        fill: #31690a;
      }

      .cls-135 {
        fill: #1e1a17;
      }

      .cls-136 {
        fill: #488118;
      }

      .cls-137 {
        fill: #f9c09b;
      }

      .cls-138 {
        fill: #c37e58;
      }

      .cls-139 {
        fill: #db956c;
      }

      .cls-140 {
        fill: #848188;
      }

      .cls-141 {
        fill: #629375;
      }

      .cls-142 {
        fill: #f3b289;
      }

      .cls-143 {
        fill: #d89e8d;
      }

      .cls-144 {
        fill: #5a3b19;
      }
    </style>
  </defs>
  <rect class="cls-19" x="641.67" y="733.33" width="58.33" height="66.67"/>
  <rect class="cls-130" x="583.33" y="733.33" width="58.33" height="66.67"/>
  <rect class="cls-91" x="525" y="733.33" width="58.33" height="66.67"/>
  <rect class="cls-83" x="466.67" y="733.33" width="58.33" height="66.67"/>
  <rect class="cls-33" x="408.33" y="733.33" width="58.33" height="66.67"/>
  <rect class="cls-13" x="350" y="733.33" width="58.33" height="66.67"/>
  <rect class="cls-61" x="291.67" y="733.33" width="58.33" height="66.67"/>
  <rect class="cls-118" x="233.33" y="733.33" width="58.33" height="66.67"/>
  <rect class="cls-52" x="175" y="733.33" width="58.33" height="66.67"/>
  <rect class="cls-126" x="116.67" y="733.33" width="58.33" height="66.67"/>
  <rect class="cls-6" x="58.33" y="733.33" width="58.33" height="66.67"/>
  <rect class="cls-27" y="733.33" width="58.33" height="66.67"/>
  <rect class="cls-100" x="641.67" y="666.67" width="58.33" height="66.67"/>
  <rect class="cls-25" x="583.33" y="666.67" width="58.33" height="66.67"/>
  <rect class="cls-2" x="525" y="666.67" width="58.33" height="66.67"/>
  <rect class="cls-85" x="466.67" y="666.67" width="58.33" height="66.67"/>
  <rect class="cls-24" x="408.33" y="666.67" width="58.33" height="66.67"/>
  <rect class="cls-93" x="350" y="666.67" width="58.33" height="66.67"/>
  <rect class="cls-94" x="291.67" y="666.67" width="58.33" height="66.67"/>
  <rect class="cls-16" x="233.33" y="666.67" width="58.33" height="66.67"/>
  <rect class="cls-140" x="175" y="666.67" width="58.33" height="66.67"/>
  <rect class="cls-116" x="116.67" y="666.67" width="58.33" height="66.67"/>
  <rect class="cls-96" x="58.33" y="666.67" width="58.33" height="66.67"/>
  <rect class="cls-71" y="666.67" width="58.33" height="66.67"/>
  <rect class="cls-10" x="641.67" y="600" width="58.33" height="66.67"/>
  <rect class="cls-136" x="583.33" y="600" width="58.33" height="66.67"/>
  <rect class="cls-134" x="525" y="600" width="58.33" height="66.67"/>
  <rect class="cls-98" x="466.67" y="600" width="58.33" height="66.67"/>
  <rect class="cls-66" x="408.33" y="600" width="58.33" height="66.67"/>
  <rect class="cls-75" x="350" y="600" width="58.33" height="66.67"/>
  <rect class="cls-99" x="291.67" y="600" width="58.33" height="66.67"/>
  <rect class="cls-101" x="233.33" y="600" width="58.33" height="66.67"/>
  <rect class="cls-40" x="175" y="600" width="58.33" height="66.67"/>
  <rect class="cls-22" x="116.67" y="600" width="58.33" height="66.67"/>
  <rect class="cls-50" x="58.33" y="600" width="58.33" height="66.67"/>
  <rect class="cls-135" y="600" width="58.33" height="66.67"/>
  <rect class="cls-111" x="641.67" y="533.33" width="58.33" height="66.67"/>
  <rect class="cls-35" x="583.33" y="533.33" width="58.33" height="66.67"/>
  <rect class="cls-102" x="525" y="533.33" width="58.33" height="66.67"/>
  <rect class="cls-121" x="466.67" y="533.33" width="58.33" height="66.67"/>
  <rect class="cls-141" x="408.33" y="533.33" width="58.33" height="66.67"/>
  <rect class="cls-80" x="350" y="533.33" width="58.33" height="66.67"/>
  <rect class="cls-124" x="291.67" y="533.33" width="58.33" height="66.67"/>
  <rect class="cls-54" x="233.33" y="533.33" width="58.33" height="66.67"/>
  <rect class="cls-59" x="175" y="533.33" width="58.33" height="66.67"/>
  <rect class="cls-133" x="116.67" y="533.33" width="58.33" height="66.67"/>
  <rect class="cls-18" x="58.33" y="533.33" width="58.33" height="66.67"/>
  <rect class="cls-45" y="533.33" width="58.33" height="66.67"/>
  <rect class="cls-20" x="641.67" y="466.67" width="58.33" height="66.67"/>
  <rect class="cls-92" x="583.33" y="466.67" width="58.33" height="66.67"/>
  <rect class="cls-44" x="525" y="466.67" width="58.33" height="66.67"/>
  <rect class="cls-29" x="466.67" y="466.67" width="58.33" height="66.67"/>
  <rect class="cls-109" x="408.33" y="466.67" width="58.33" height="66.67"/>
  <rect class="cls-46" x="350" y="466.67" width="58.33" height="66.67"/>
  <rect class="cls-34" x="291.67" y="466.67" width="58.33" height="66.67"/>
  <rect class="cls-138" x="233.33" y="466.67" width="58.33" height="66.67"/>
  <rect class="cls-122" x="175" y="466.67" width="58.33" height="66.67"/>
  <rect class="cls-125" x="116.67" y="466.67" width="58.33" height="66.67"/>
  <rect class="cls-82" x="58.33" y="466.67" width="58.33" height="66.67"/>
  <rect class="cls-55" y="466.67" width="58.33" height="66.67"/>
  <rect class="cls-15" x="641.67" y="400" width="58.33" height="66.67"/>
  <rect class="cls-26" x="583.33" y="400" width="58.33" height="66.67"/>
  <rect class="cls-65" x="525" y="400" width="58.33" height="66.67"/>
  <rect class="cls-76" x="466.67" y="400" width="58.33" height="66.67"/>
  <rect class="cls-74" x="408.33" y="400" width="58.33" height="66.67"/>
  <rect class="cls-28" x="350" y="400" width="58.33" height="66.67"/>
  <rect class="cls-81" x="291.67" y="400" width="58.33" height="66.67"/>
  <rect class="cls-107" x="233.33" y="400" width="58.33" height="66.67"/>
  <rect class="cls-39" x="175" y="400" width="58.33" height="66.67"/>
  <rect class="cls-43" x="116.67" y="400" width="58.33" height="66.67"/>
  <rect class="cls-69" x="58.33" y="400" width="58.33" height="66.67"/>
  <rect class="cls-90" y="400" width="58.33" height="66.67"/>
  <rect class="cls-70" x="641.67" y="333.33" width="58.33" height="66.67"/>
  <rect class="cls-64" x="583.33" y="333.33" width="58.33" height="66.67"/>
  <rect class="cls-9" x="525" y="333.33" width="58.33" height="66.67"/>
  <rect class="cls-5" x="466.67" y="333.33" width="58.33" height="66.67"/>
  <rect class="cls-123" x="408.33" y="333.33" width="58.33" height="66.67"/>
  <rect class="cls-106" x="350" y="333.33" width="58.33" height="66.67"/>
  <rect class="cls-86" x="291.67" y="333.33" width="58.33" height="66.67"/>
  <rect class="cls-77" x="233.33" y="333.33" width="58.33" height="66.67"/>
  <rect class="cls-41" x="175" y="333.33" width="58.33" height="66.67"/>
  <rect class="cls-95" x="116.67" y="333.33" width="58.33" height="66.67"/>
  <rect class="cls-88" x="58.33" y="333.33" width="58.33" height="66.67"/>
  <rect class="cls-1" y="333.33" width="58.33" height="66.67"/>
  <rect class="cls-21" x="641.67" y="266.67" width="58.33" height="66.67"/>
  <rect class="cls-51" x="583.33" y="266.67" width="58.33" height="66.67"/>
  <rect class="cls-127" x="525" y="266.67" width="58.33" height="66.67"/>
  <rect class="cls-129" x="466.67" y="266.67" width="58.33" height="66.67"/>
  <rect class="cls-3" x="408.33" y="266.67" width="58.33" height="66.67"/>
  <rect class="cls-79" x="350" y="266.67" width="58.33" height="66.67"/>
  <rect class="cls-30" x="291.67" y="266.67" width="58.33" height="66.67"/>
  <rect class="cls-139" x="233.33" y="266.67" width="58.33" height="66.67"/>
  <rect class="cls-14" x="175" y="266.67" width="58.33" height="66.67"/>
  <rect class="cls-105" x="116.67" y="266.67" width="58.33" height="66.67"/>
  <rect class="cls-67" x="58.33" y="266.67" width="58.33" height="66.67"/>
  <rect class="cls-8" y="266.67" width="58.33" height="66.67"/>
  <rect class="cls-17" x="641.67" y="200" width="58.33" height="66.67"/>
  <rect class="cls-84" x="583.33" y="200" width="58.33" height="66.67"/>
  <rect class="cls-36" x="525" y="200" width="58.33" height="66.67"/>
  <rect class="cls-97" x="466.67" y="200" width="58.33" height="66.67"/>
  <rect class="cls-143" x="408.33" y="200" width="58.33" height="66.67"/>
  <rect class="cls-108" x="350" y="200" width="58.33" height="66.67"/>
  <rect class="cls-48" x="291.67" y="200" width="58.33" height="66.67"/>
  <rect class="cls-12" x="233.33" y="200" width="58.33" height="66.67"/>
  <rect class="cls-63" x="175" y="200" width="58.33" height="66.67"/>
  <rect class="cls-119" x="116.67" y="200" width="58.33" height="66.67"/>
  <rect class="cls-132" x="58.33" y="200" width="58.33" height="66.67"/>
  <rect class="cls-4" y="200" width="58.33" height="66.67"/>
  <rect class="cls-110" x="641.67" y="133.33" width="58.33" height="66.67"/>
  <rect class="cls-128" x="583.33" y="133.33" width="58.33" height="66.67"/>
  <rect class="cls-68" x="525" y="133.33" width="58.33" height="66.67"/>
  <rect class="cls-32" x="466.67" y="133.33" width="58.33" height="66.67"/>
  <rect class="cls-113" x="408.33" y="133.33" width="58.33" height="66.67"/>
  <rect class="cls-38" x="350" y="133.33" width="58.33" height="66.67"/>
  <rect class="cls-137" x="291.67" y="133.33" width="58.33" height="66.67"/>
  <rect class="cls-117" x="233.33" y="133.33" width="58.33" height="66.67"/>
  <rect class="cls-78" x="175" y="133.33" width="58.33" height="66.67"/>
  <rect class="cls-11" x="116.67" y="133.33" width="58.33" height="66.67"/>
  <rect class="cls-115" x="58.33" y="133.33" width="58.33" height="66.67"/>
  <rect class="cls-103" y="133.33" width="58.33" height="66.67"/>
  <rect class="cls-62" x="641.67" y="66.67" width="58.33" height="66.67"/>
  <rect class="cls-144" x="583.33" y="66.67" width="58.33" height="66.67"/>
  <rect class="cls-58" x="525" y="66.67" width="58.33" height="66.67"/>
  <rect class="cls-73" x="466.67" y="66.67" width="58.33" height="66.67"/>
  <rect class="cls-142" x="408.33" y="66.67" width="58.33" height="66.67"/>
  <rect class="cls-89" x="350" y="66.67" width="58.33" height="66.67"/>
  <rect class="cls-114" x="291.67" y="66.67" width="58.33" height="66.67"/>
  <rect class="cls-23" x="233.33" y="66.67" width="58.33" height="66.67"/>
  <rect class="cls-7" x="175" y="66.67" width="58.33" height="66.67"/>
  <rect class="cls-53" x="116.67" y="66.67" width="58.33" height="66.67"/>
  <rect class="cls-31" x="58.33" y="66.67" width="58.33" height="66.67"/>
  <rect class="cls-49" y="66.67" width="58.33" height="66.67"/>
  <rect class="cls-42" x="641.67" width="58.33" height="66.67"/>
  <rect class="cls-87" x="583.33" width="58.33" height="66.67"/>
  <rect class="cls-60" x="525" width="58.33" height="66.67"/>
  <rect class="cls-57" x="466.67" width="58.33" height="66.67"/>
  <rect class="cls-72" x="408.33" width="58.33" height="66.67"/>
  <rect class="cls-56" x="350" width="58.33" height="66.67"/>
  <rect class="cls-47" x="291.67" width="58.33" height="66.67"/>
  <rect class="cls-120" x="233.33" width="58.33" height="66.67"/>
  <rect class="cls-104" x="175" width="58.33" height="66.67"/>
  <rect class="cls-112" x="116.67" width="58.33" height="66.67"/>
  <rect class="cls-37" x="58.33" width="58.33" height="66.67"/>
  <rect class="cls-131" width="58.33" height="66.67"/>
</svg>