<?xml version="1.0" encoding="UTF-8"?>
<svg id="Layer_1" data-name="Layer 1" xmlns="http://www.w3.org/2000/svg" viewBox="0 0 700 800">
  <defs>
    <style>
      .cls-1 {
        fill: #5e8631;
      }

      .cls-2 {
        fill: #a2754a;
      }

      .cls-3 {
        fill: #595d52;
      }

      .cls-4 {
        fill: #030929;
      }

      .cls-5 {
        fill: #a9b29a;
      }

      .cls-6 {
        fill: #d19b52;
      }

      .cls-7 {
        fill: #848570;
      }

      .cls-8 {
        fill: #1d1a29;
      }

      .cls-9 {
        fill: #b4856b;
      }

      .cls-10 {
        fill: #d8d6af;
      }

      .cls-11 {
        fill: #0a1023;
      }

      .cls-12 {
        fill: #363846;
      }

      .cls-13 {
        fill: #2b3042;
      }

      .cls-14 {
        fill: #624338;
      }

      .cls-15 {
        fill: #363a4e;
      }

      .cls-16 {
        fill: #101a33;
      }

      .cls-17 {
        fill: #a2aeb6;
      }

      .cls-18 {
        fill: #1e253b;
      }

      .cls-19 {
        fill: #6e5951;
      }

      .cls-20 {
        fill: #7f8772;
      }

      .cls-21 {
        fill: #9c6a3e;
      }

      .cls-22 {
        fill: #c09393;
      }

      .cls-23 {
        fill: #41413d;
      }

      .cls-24 {
        fill: #050f23;
      }

      .cls-25 {
        fill: #d9dfc8;
      }

      .cls-26 {
        fill: #72865b;
      }

      .cls-27 {
        fill: #1e1c2b;
      }

      .cls-28 {
        fill: #895d35;
      }

      .cls-29 {
        fill: #020522;
      }

      .cls-30 {
        fill: #212032;
      }

      .cls-31 {
        fill: #74864f;
      }

      .cls-32 {
        fill: #a07261;
      }

      .cls-33 {
        fill: #0b142a;
      }

      .cls-34 {
        fill: #84635b;
      }

      .cls-35 {
        fill: #38383d;
      }

      .cls-36 {
        fill: #50393c;
      }

      .cls-37 {
        fill: #625f5e;
      }

      .cls-38 {
        fill: #5d7551;
      }

      .cls-39 {
        fill: #1e2132;
      }

      .cls-40 {
        fill: #77876d;
      }

      .cls-41 {
        fill: #657a2c;
      }

      .cls-42 {
        fill: #181e35;
      }

      .cls-43 {
        fill: #5b824d;
      }

      .cls-44 {
        fill: #ebb08d;
      }

      .cls-45 {
        fill: #969f8d;
      }

      .cls-46 {
        fill: #020520;
      }

      .cls-47 {
        fill: #7e8435;
      }

      .cls-48 {
        fill: #694843;
      }

      .cls-49 {
        fill: #abc3ad;
      }

      .cls-50 {
        fill: #676963;
      }

      .cls-51 {
        fill: #2c2c32;
      }

      .cls-52 {
        fill: #1c233d;
      }

      .cls-53 {
        fill: #c7a892;
      }

      .cls-54 {
        fill: #a28165;
      }

      .cls-55 {
        fill: #152034;
      }

      .cls-56 {
        fill: #a9b4b5;
      }

      .cls-57 {
        fill: #555c6f;
      }

      .cls-58 {
        fill: #121d32;
      }

      .cls-59 {
        fill: #9dbdc4;
      }

      .cls-60 {
        fill: #677565;
      }

      .cls-61 {
        fill: #28354d;
      }

      .cls-62 {
        fill: #38383e;
      }

      .cls-63 {
        fill: #59764d;
      }

      .cls-64 {
        fill: #020518;
      }

      .cls-65 {
        fill: #242c41;
      }

      .cls-66 {
        fill: #1f2538;
      }

      .cls-67 {
        fill: #8a9369;
      }

      .cls-68 {
        fill: #23263a;
      }

      .cls-69 {
        fill: #0a1127;
      }

      .cls-70 {
        fill: #a9b16c;
      }

      .cls-71 {
        fill: #5e706f;
      }

      .cls-72 {
        fill: #959894;
      }

      .cls-73 {
        fill: #0e162f;
      }

      .cls-74 {
        fill: #272431;
      }

      .cls-75 {
        fill: #151727;
      }

      .cls-76 {
        fill: #2b2737;
      }

      .cls-77 {
        fill: #1b1e2d;
      }

      .cls-78 {
        fill: #000a24;
      }

      .cls-79 {
        fill: #959c92;
      }

      .cls-80 {
        fill: #23161f;
      }

      .cls-81 {
        fill: #ba6454;
      }

      .cls-82 {
        fill: #8d9a77;
      }

      .cls-83 {
        fill: #774d4c;
      }

      .cls-84 {
        fill: #868a6c;
      }

      .cls-85 {
        fill: #4c5449;
      }

      .cls-86 {
        fill: #00051f;
      }

      .cls-87 {
        fill: #cdd2b4;
      }

      .cls-88 {
        fill: #1b1828;
      }

      .cls-89 {
        fill: #a1a68f;
      }

      .cls-90 {
        fill: #685c68;
      }

      .cls-91 {
        fill: #acb397;
      }

      .cls-92 {
        fill: #6b555b;
      }

      .cls-93 {
        fill: #738a6e;
      }

      .cls-94 {
        fill: #181626;
      }

      .cls-95 {
        fill: #562c24;
      }

      .cls-96 {
        fill: #694c48;
      }

      .cls-97 {
        fill: #494852;
      }

      .cls-98 {
        fill: #161026;
      }

      .cls-99 {
        fill: #aabcb9;
      }

      .cls-100 {
        fill: #252735;
      }

      .cls-101 {
        fill: #0a1021;
      }

      .cls-102 {
        fill: #868061;
      }

      .cls-103 {
        fill: #665554;
      }

      .cls-104 {
        fill: #5f515b;
      }

      .cls-105 {
        fill: #42404a;
      }

      .cls-106 {
        fill: #26283b;
      }

      .cls-107 {
        fill: #929d8e;
      }

      .cls-108 {
        fill: #f2d91a;
      }

      .cls-109 {
        fill: #26273b;
      }

      .cls-110 {
        fill: #412321;
      }

      .cls-111 {
        fill: #bcb899;
      }

      .cls-112 {
        fill: #8a5b55;
      }

      .cls-113 {
        fill: #19162c;
      }

      .cls-114 {
        fill: #dbb689;
      }

      .cls-115 {
        fill: #272a3c;
      }

      .cls-116 {
        fill: #05102b;
      }

      .cls-117 {
        fill: #ba9569;
      }

      .cls-118 {
        fill: #1d1d35;
      }

      .cls-119 {
        fill: #534b47;
      }

      .cls-120 {
        fill: #343442;
      }

      .cls-121 {
        fill: #0d1529;
      }

      .cls-122 {
        fill: #0d0d20;
      }

      .cls-123 {
        fill: #191d2c;
      }

      .cls-124 {
        fill: #70715e;
      }

      .cls-125 {
        fill: #8ba674;
      }

      .cls-126 {
        fill: #96a9ac;
      }

      .cls-127 {
        fill: #5a5d54;
      }

      .cls-128 {
        fill: #101837;
      }

      .cls-129 {
        fill: #302634;
      }

      .cls-130 {
        fill: #ad6e59;
      }

      .cls-131 {
        fill: #484453;
      }

      .cls-132 {
        fill: #0b152e;
      }

      .cls-133 {
        fill: #27212a;
      }

      .cls-134 {
        fill: #452d2f;
      }

      .cls-135 {
        fill: #3c3d46;
      }

      .cls-136 {
        fill: #242539;
      }

      .cls-137 {
        fill: #c6915a;
      }

      .cls-138 {
        fill: #98a49e;
      }

      .cls-139 {
        fill: #1f1e2f;
      }

      .cls-140 {
        fill: #875739;
      }

      .cls-141 {
        fill: #909943;
      }

      .cls-142 {
        fill: #09091d;
      }

      .cls-143 {
        fill: #77895c;
      }
    </style>
  </defs>
  <rect class="cls-2" x="648.54" y="733.33" width="58.96" height="66.67"/>
  <rect class="cls-6" x="589.58" y="733.33" width="58.96" height="66.67"/>
  <rect class="cls-35" x="530.62" y="733.33" width="58.96" height="66.67"/>
  <rect class="cls-13" x="471.67" y="733.33" width="58.96" height="66.67"/>
  <rect class="cls-98" x="412.71" y="733.33" width="58.96" height="66.67"/>
  <rect class="cls-66" x="353.75" y="733.33" width="58.96" height="66.67"/>
  <rect class="cls-39" x="294.79" y="733.33" width="58.96" height="66.67"/>
  <rect class="cls-75" x="235.83" y="733.33" width="58.96" height="66.67"/>
  <rect class="cls-30" x="176.88" y="733.33" width="58.96" height="66.67"/>
  <rect class="cls-14" x="117.92" y="733.33" width="58.96" height="66.67"/>
  <rect class="cls-117" x="58.96" y="733.33" width="58.96" height="66.67"/>
  <rect class="cls-53" y="733.33" width="58.96" height="66.67"/>
  <rect class="cls-137" x="648.54" y="666.67" width="58.96" height="66.67"/>
  <rect class="cls-28" x="589.58" y="666.67" width="58.96" height="66.67"/>
  <rect class="cls-100" x="530.62" y="666.67" width="58.96" height="66.67"/>
  <rect class="cls-77" x="471.67" y="666.67" width="58.96" height="66.67"/>
  <rect class="cls-81" x="412.71" y="666.67" width="58.96" height="66.67"/>
  <rect class="cls-111" x="353.75" y="666.67" width="58.96" height="66.67"/>
  <rect class="cls-68" x="294.79" y="666.67" width="58.96" height="66.67"/>
  <rect class="cls-139" x="235.83" y="666.67" width="58.96" height="66.67"/>
  <rect class="cls-64" x="176.88" y="666.67" width="58.96" height="66.67"/>
  <rect class="cls-110" x="117.92" y="666.67" width="58.96" height="66.67"/>
  <rect class="cls-114" x="58.96" y="666.67" width="58.96" height="66.67"/>
  <rect class="cls-54" y="666.67" width="58.96" height="66.67"/>
  <rect class="cls-17" x="648.54" y="600" width="58.96" height="66.67"/>
  <rect class="cls-19" x="589.58" y="600" width="58.96" height="66.67"/>
  <rect class="cls-12" x="530.62" y="600" width="58.96" height="66.67"/>
  <rect class="cls-135" x="471.67" y="600" width="58.96" height="66.67"/>
  <rect class="cls-51" x="412.71" y="600" width="58.96" height="66.67"/>
  <rect class="cls-123" x="353.75" y="600" width="58.96" height="66.67"/>
  <rect class="cls-55" x="294.79" y="600" width="58.96" height="66.67"/>
  <rect class="cls-103" x="235.83" y="600" width="58.96" height="66.67"/>
  <rect class="cls-133" x="176.88" y="600" width="58.96" height="66.67"/>
  <rect class="cls-95" x="117.92" y="600" width="58.96" height="66.67"/>
  <rect class="cls-140" x="58.96" y="600" width="58.96" height="66.67"/>
  <rect class="cls-70" y="600" width="58.96" height="66.67"/>
  <rect class="cls-71" x="648.54" y="533.33" width="58.96" height="66.67"/>
  <rect class="cls-105" x="589.58" y="533.33" width="58.96" height="66.67"/>
  <rect class="cls-134" x="530.62" y="533.33" width="58.96" height="66.67"/>
  <rect class="cls-80" x="471.67" y="533.33" width="58.96" height="66.67"/>
  <rect class="cls-88" x="412.71" y="533.33" width="58.96" height="66.67"/>
  <rect class="cls-121" x="353.75" y="533.33" width="58.96" height="66.67"/>
  <rect class="cls-132" x="294.79" y="533.33" width="58.96" height="66.67"/>
  <rect class="cls-24" x="235.83" y="533.33" width="58.96" height="66.67"/>
  <rect class="cls-8" x="176.88" y="533.33" width="58.96" height="66.67"/>
  <rect class="cls-96" x="117.92" y="533.33" width="58.96" height="66.67"/>
  <rect class="cls-21" x="58.96" y="533.33" width="58.96" height="66.67"/>
  <rect class="cls-119" y="533.33" width="58.96" height="66.67"/>
  <rect class="cls-38" x="648.54" y="466.67" width="58.96" height="66.67"/>
  <rect class="cls-93" x="589.58" y="466.67" width="58.96" height="66.67"/>
  <rect class="cls-48" x="530.62" y="466.67" width="58.96" height="66.67"/>
  <rect class="cls-90" x="471.67" y="466.67" width="58.96" height="66.67"/>
  <rect class="cls-131" x="412.71" y="466.67" width="58.96" height="66.67"/>
  <rect class="cls-115" x="353.75" y="466.67" width="58.96" height="66.67"/>
  <rect class="cls-132" x="294.79" y="466.67" width="58.96" height="66.67"/>
  <rect class="cls-73" x="235.83" y="466.67" width="58.96" height="66.67"/>
  <rect class="cls-113" x="176.88" y="466.67" width="58.96" height="66.67"/>
  <rect class="cls-142" x="117.92" y="466.67" width="58.96" height="66.67"/>
  <rect class="cls-11" x="58.96" y="466.67" width="58.96" height="66.67"/>
  <rect class="cls-122" y="466.67" width="58.96" height="66.67"/>
  <rect class="cls-43" x="648.54" y="400" width="58.96" height="66.67"/>
  <rect class="cls-1" x="589.58" y="400" width="58.96" height="66.67"/>
  <rect class="cls-34" x="530.62" y="400" width="58.96" height="66.67"/>
  <rect class="cls-104" x="471.67" y="400" width="58.96" height="66.67"/>
  <rect class="cls-120" x="412.71" y="400" width="58.96" height="66.67"/>
  <rect class="cls-109" x="353.75" y="400" width="58.96" height="66.67"/>
  <rect class="cls-27" x="294.79" y="400" width="58.96" height="66.67"/>
  <rect class="cls-16" x="235.83" y="400" width="58.96" height="66.67"/>
  <rect class="cls-42" x="176.88" y="400" width="58.96" height="66.67"/>
  <rect class="cls-46" x="117.92" y="400" width="58.96" height="66.67"/>
  <rect class="cls-33" x="58.96" y="400" width="58.96" height="66.67"/>
  <rect class="cls-101" y="400" width="58.96" height="66.67"/>
  <rect class="cls-87" x="648.54" y="333.33" width="58.96" height="66.67"/>
  <rect class="cls-56" x="589.58" y="333.33" width="58.96" height="66.67"/>
  <rect class="cls-127" x="530.62" y="333.33" width="58.96" height="66.67"/>
  <rect class="cls-76" x="471.67" y="333.33" width="58.96" height="66.67"/>
  <rect class="cls-129" x="412.71" y="333.33" width="58.96" height="66.67"/>
  <rect class="cls-29" x="353.75" y="333.33" width="58.96" height="66.67"/>
  <rect class="cls-94" x="294.79" y="333.33" width="58.96" height="66.67"/>
  <rect class="cls-78" x="235.83" y="333.33" width="58.96" height="66.67"/>
  <rect class="cls-18" x="176.88" y="333.33" width="58.96" height="66.67"/>
  <rect class="cls-52" x="117.92" y="333.33" width="58.96" height="66.67"/>
  <rect class="cls-69" x="58.96" y="333.33" width="58.96" height="66.67"/>
  <rect class="cls-136" y="333.33" width="58.96" height="66.67"/>
  <rect class="cls-10" x="648.54" y="266.67" width="58.96" height="66.67"/>
  <rect class="cls-138" x="589.58" y="266.67" width="58.96" height="66.67"/>
  <rect class="cls-40" x="530.62" y="266.67" width="58.96" height="66.67"/>
  <rect class="cls-37" x="471.67" y="266.67" width="58.96" height="66.67"/>
  <rect class="cls-74" x="412.71" y="266.67" width="58.96" height="66.67"/>
  <rect class="cls-36" x="353.75" y="266.67" width="58.96" height="66.67"/>
  <rect class="cls-32" x="294.79" y="266.67" width="58.96" height="66.67"/>
  <rect class="cls-86" x="235.83" y="266.67" width="58.96" height="66.67"/>
  <rect class="cls-116" x="176.88" y="266.67" width="58.96" height="66.67"/>
  <rect class="cls-58" x="117.92" y="266.67" width="58.96" height="66.67"/>
  <rect class="cls-65" x="58.96" y="266.67" width="58.96" height="66.67"/>
  <rect class="cls-126" y="266.67" width="58.96" height="66.67"/>
  <rect class="cls-5" x="648.54" y="200" width="58.96" height="66.67"/>
  <rect class="cls-79" x="589.58" y="200" width="58.96" height="66.67"/>
  <rect class="cls-72" x="530.62" y="200" width="58.96" height="66.67"/>
  <rect class="cls-50" x="471.67" y="200" width="58.96" height="66.67"/>
  <rect class="cls-118" x="412.71" y="200" width="58.96" height="66.67"/>
  <rect class="cls-44" x="353.75" y="200" width="58.96" height="66.67"/>
  <rect class="cls-130" x="294.79" y="200" width="58.96" height="66.67"/>
  <rect class="cls-83" x="235.83" y="200" width="58.96" height="66.67"/>
  <rect class="cls-92" x="176.88" y="200" width="58.96" height="66.67"/>
  <rect class="cls-61" x="117.92" y="200" width="58.96" height="66.67"/>
  <rect class="cls-23" x="58.96" y="200" width="58.96" height="66.67"/>
  <rect class="cls-47" y="200" width="58.96" height="66.67"/>
  <rect class="cls-45" x="648.54" y="133.33" width="58.96" height="66.67"/>
  <rect class="cls-82" x="589.58" y="133.33" width="58.96" height="66.67"/>
  <rect class="cls-7" x="530.62" y="133.33" width="58.96" height="66.67"/>
  <rect class="cls-124" x="471.67" y="133.33" width="58.96" height="66.67"/>
  <rect class="cls-106" x="412.71" y="133.33" width="58.96" height="66.67"/>
  <rect class="cls-9" x="353.75" y="133.33" width="58.96" height="66.67"/>
  <rect class="cls-112" x="294.79" y="133.33" width="58.96" height="66.67"/>
  <rect class="cls-4" x="235.83" y="133.33" width="58.96" height="66.67"/>
  <rect class="cls-22" x="176.88" y="133.33" width="58.96" height="66.67"/>
  <rect class="cls-143" x="117.92" y="133.33" width="58.96" height="66.67"/>
  <rect class="cls-97" x="58.96" y="133.33" width="58.96" height="66.67"/>
  <rect class="cls-63" y="133.33" width="58.96" height="66.67"/>
  <rect class="cls-20" x="648.54" y="66.67" width="58.96" height="66.67"/>
  <rect class="cls-67" x="589.58" y="66.67" width="58.96" height="66.67"/>
  <rect class="cls-31" x="530.62" y="66.67" width="58.96" height="66.67"/>
  <rect class="cls-84" x="471.67" y="66.67" width="58.96" height="66.67"/>
  <rect class="cls-3" x="412.71" y="66.67" width="58.96" height="66.67"/>
  <rect class="cls-128" x="353.75" y="66.67" width="58.96" height="66.67"/>
  <rect class="cls-15" x="294.79" y="66.67" width="58.96" height="66.67"/>
  <rect class="cls-57" x="235.83" y="66.67" width="58.96" height="66.67"/>
  <rect class="cls-59" x="176.88" y="66.67" width="58.96" height="66.67"/>
  <rect class="cls-91" x="117.92" y="66.67" width="58.96" height="66.67"/>
  <rect class="cls-62" x="58.96" y="66.67" width="58.96" height="66.67"/>
  <rect class="cls-107" y="66.67" width="58.96" height="66.67"/>
  <rect class="cls-99" x="648.54" width="58.96" height="66.67"/>
  <rect class="cls-102" x="589.58" width="58.96" height="66.67"/>
  <rect class="cls-89" x="530.62" width="58.96" height="66.67"/>
  <rect class="cls-26" x="471.67" width="58.96" height="66.67"/>
  <rect class="cls-60" x="412.71" width="58.96" height="66.67"/>
  <rect class="cls-41" x="353.75" width="58.96" height="66.67"/>
  <rect class="cls-141" x="294.79" width="58.96" height="66.67"/>
  <rect class="cls-108" x="235.83" width="58.96" height="66.67"/>
  <rect class="cls-49" x="176.88" width="58.96" height="66.67"/>
  <rect class="cls-125" x="117.92" width="58.96" height="66.67"/>
  <rect class="cls-85" x="58.96" width="58.96" height="66.67"/>
  <rect class="cls-25" width="58.96" height="66.67"/>
</svg>