<?xml version="1.0" encoding="UTF-8"?>
<svg id="Layer_1" data-name="Layer 1" xmlns="http://www.w3.org/2000/svg" viewBox="0 0 700 800">
  <defs>
    <style>
      .cls-1 {
        fill: #ad7753;
      }

      .cls-2 {
        fill: #494337;
      }

      .cls-3 {
        fill: #b47750;
      }

      .cls-4 {
        fill: #b1a79b;
      }

      .cls-5 {
        fill: #cb9d7c;
      }

      .cls-6 {
        fill: #986549;
      }

      .cls-7 {
        fill: #010101;
      }

      .cls-8 {
        fill: #5c4637;
      }

      .cls-9 {
        fill: #070908;
      }

      .cls-10 {
        fill: #0f110e;
      }

      .cls-11 {
        fill: #101210;
      }

      .cls-12 {
        fill: #10100c;
      }

      .cls-13 {
        fill: #a79f96;
      }

      .cls-14 {
        fill: #121412;
      }

      .cls-15 {
        fill: #372716;
      }

      .cls-16 {
        fill: #a79684;
      }

      .cls-17 {
        fill: #c09171;
      }

      .cls-18 {
        fill: #0c0e0d;
      }

      .cls-19 {
        fill: #b56b49;
      }

      .cls-20 {
        fill: #cba083;
      }

      .cls-21 {
        fill: #3a140c;
      }

      .cls-22 {
        fill: #c89879;
      }

      .cls-23 {
        fill: #050807;
      }

      .cls-24 {
        fill: #b39a7e;
      }

      .cls-25 {
        fill: #201f1b;
      }

      .cls-26 {
        fill: #89796a;
      }

      .cls-27 {
        fill: #685f51;
      }

      .cls-28 {
        fill: #020202;
      }

      .cls-29 {
        fill: #10120f;
      }

      .cls-30 {
        fill: #171916;
      }

      .cls-31 {
        fill: #191e1a;
      }

      .cls-32 {
        fill: #c9916a;
      }

      .cls-33 {
        fill: #040605;
      }

      .cls-34 {
        fill: #ba8e62;
      }

      .cls-35 {
        fill: #121411;
      }

      .cls-36 {
        fill: #6a5a47;
      }

      .cls-37 {
        fill: #a69a87;
      }

      .cls-38 {
        fill: #040c0c;
      }

      .cls-39 {
        fill: #151714;
      }

      .cls-40 {
        fill: #c08a65;
      }

      .cls-41 {
        fill: #918672;
      }

      .cls-42 {
        fill: #a46c4a;
      }

      .cls-43 {
        fill: #1c1b17;
      }

      .cls-44 {
        fill: #a86949;
      }

      .cls-45 {
        fill: #3c2c1f;
      }

      .cls-46 {
        fill: #734a28;
      }

      .cls-47 {
        fill: #2f302a;
      }

      .cls-48 {
        fill: #31190d;
      }

      .cls-49 {
        fill: #c39574;
      }

      .cls-50 {
        fill: #c68b5f;
      }

      .cls-51 {
        fill: #131311;
      }

      .cls-52 {
        fill: #020403;
      }

      .cls-53 {
        fill: #b88c60;
      }

      .cls-54 {
        fill: #c0af9e;
      }

      .cls-55 {
        fill: #a56c4c;
      }

      .cls-56 {
        fill: #1e201b;
      }

      .cls-57 {
        fill: #c79575;
      }

      .cls-58 {
        fill: #161b17;
      }

      .cls-59 {
        fill: #1d201b;
      }

      .cls-60 {
        fill: #0a0c0b;
      }

      .cls-61 {
        fill: #151611;
      }

      .cls-62 {
        fill: #12140d;
      }

      .cls-63 {
        fill: #b89376;
      }

      .cls-64 {
        fill: #c08c6a;
      }

      .cls-65 {
        fill: #c49670;
      }

      .cls-66 {
        fill: #b18b6b;
      }

      .cls-67 {
        fill: #ac643b;
      }

      .cls-68 {
        fill: #c83d2a;
      }

      .cls-69 {
        fill: #1f2120;
      }

      .cls-70 {
        fill: #978c7a;
      }

      .cls-71 {
        fill: #8c5933;
      }

      .cls-72 {
        fill: #151715;
      }

      .cls-73 {
        fill: #bc9570;
      }

      .cls-74 {
        fill: #242523;
      }

      .cls-75 {
        fill: #98927e;
      }

      .cls-76 {
        fill: #a2684d;
      }

      .cls-77 {
        fill: #17140d;
      }

      .cls-78 {
        fill: #131614;
      }

      .cls-79 {
        fill: #4e402d;
      }

      .cls-80 {
        fill: #0a0301;
      }

      .cls-81 {
        fill: #c38d68;
      }

      .cls-82 {
        fill: #331d0f;
      }

      .cls-83 {
        fill: #c39177;
      }

      .cls-84 {
        fill: #82755f;
      }

      .cls-85 {
        fill: #c38d6a;
      }

      .cls-86 {
        fill: #b09d86;
      }

      .cls-87 {
        fill: #262722;
      }

      .cls-88 {
        fill: #44443e;
      }

      .cls-89 {
        fill: #54524b;
      }

      .cls-90 {
        fill: #222018;
      }

      .cls-91 {
        fill: #aa7049;
      }

      .cls-92 {
        fill: #a39585;
      }

      .cls-93 {
        fill: #090d09;
      }

      .cls-94 {
        fill: #050706;
      }

      .cls-95 {
        fill: #1e201d;
      }

      .cls-96 {
        fill: #9a6443;
      }

      .cls-97 {
        fill: #534932;
      }

      .cls-98 {
        fill: #524b3b;
      }

      .cls-99 {
        fill: #c39b7b;
      }

      .cls-100 {
        fill: #c69472;
      }

      .cls-101 {
        fill: #c7946f;
      }

      .cls-102 {
        fill: #141612;
      }

      .cls-103 {
        fill: #23241f;
      }

      .cls-104 {
        fill: #bc835e;
      }

      .cls-105 {
        fill: #060807;
      }

      .cls-106 {
        fill: #5f5340;
      }

      .cls-107 {
        fill: #080e0a;
      }

      .cls-108 {
        fill: #b9b6ba;
      }

      .cls-109 {
        fill: #090b0a;
      }

      .cls-110 {
        fill: #141613;
      }

      .cls-111 {
        fill: #c09674;
      }

      .cls-112 {
        fill: #b57b59;
      }

      .cls-113 {
        fill: #635846;
      }

      .cls-114 {
        fill: #90532e;
      }

      .cls-115 {
        fill: #b98051;
      }

      .cls-116 {
        fill: #8d7c64;
      }

      .cls-117 {
        fill: #c4beb3;
      }

      .cls-118 {
        fill: #161815;
      }

      .cls-119 {
        fill: #c49267;
      }

      .cls-120 {
        fill: #010302;
      }

      .cls-121 {
        fill: #2a2b26;
      }

      .cls-122 {
        fill: #948878;
      }

      .cls-123 {
        fill: #956041;
      }

      .cls-124 {
        fill: #b38763;
      }

      .cls-125 {
        fill: #b47f5b;
      }

      .cls-126 {
        fill: #9f6b4f;
      }

      .cls-127 {
        fill: #bf8c6a;
      }

      .cls-128 {
        fill: #292926;
      }

      .cls-129 {
        fill: #030504;
      }

      .cls-130 {
        fill: #070a09;
      }

      .cls-131 {
        fill: #75644e;
      }

      .cls-132 {
        fill: #986445;
      }

      .cls-133 {
        fill: #26231e;
      }

      .cls-134 {
        fill: #4e4737;
      }

      .cls-135 {
        fill: #0e130f;
      }

      .cls-136 {
        fill: #cf462f;
      }

      .cls-137 {
        fill: #0a0c09;
      }
    </style>
  </defs>
  <rect class="cls-23" x="641.67" y="733.33" width="58.33" height="66.67"/>
  <rect class="cls-123" x="583.33" y="733.33" width="58.33" height="66.67"/>
  <rect class="cls-32" x="525" y="733.33" width="58.33" height="66.67"/>
  <rect class="cls-104" x="466.67" y="733.33" width="58.33" height="66.67"/>
  <rect class="cls-40" x="408.33" y="733.33" width="58.33" height="66.67"/>
  <rect class="cls-130" x="350" y="733.33" width="58.33" height="66.67"/>
  <rect class="cls-105" x="291.67" y="733.33" width="58.33" height="66.67"/>
  <rect class="cls-135" x="233.33" y="733.33" width="58.33" height="66.67"/>
  <rect class="cls-31" x="175" y="733.33" width="58.33" height="66.67"/>
  <rect class="cls-7" x="116.67" y="733.33" width="58.33" height="66.67"/>
  <rect class="cls-129" x="58.33" y="733.33" width="58.33" height="66.67"/>
  <rect class="cls-94" y="733.33" width="58.33" height="66.67"/>
  <rect class="cls-43" x="641.67" y="666.67" width="58.33" height="66.67"/>
  <rect class="cls-119" x="583.33" y="666.67" width="58.33" height="66.67"/>
  <rect class="cls-50" x="525" y="666.67" width="58.33" height="66.67"/>
  <rect class="cls-44" x="466.67" y="666.67" width="58.33" height="66.67"/>
  <rect class="cls-1" x="408.33" y="666.67" width="58.33" height="66.67"/>
  <rect class="cls-94" x="350" y="666.67" width="58.33" height="66.67"/>
  <rect class="cls-39" x="291.67" y="666.67" width="58.33" height="66.67"/>
  <rect class="cls-94" x="233.33" y="666.67" width="58.33" height="66.67"/>
  <rect class="cls-110" x="175" y="666.67" width="58.33" height="66.67"/>
  <rect class="cls-78" x="116.67" y="666.67" width="58.33" height="66.67"/>
  <rect class="cls-87" x="58.33" y="666.67" width="58.33" height="66.67"/>
  <rect class="cls-118" y="666.67" width="58.33" height="66.67"/>
  <rect class="cls-51" x="641.67" y="600" width="58.33" height="66.67"/>
  <rect class="cls-42" x="583.33" y="600" width="58.33" height="66.67"/>
  <rect class="cls-17" x="525" y="600" width="58.33" height="66.67"/>
  <rect class="cls-126" x="466.67" y="600" width="58.33" height="66.67"/>
  <rect class="cls-66" x="408.33" y="600" width="58.33" height="66.67"/>
  <rect class="cls-102" x="350" y="600" width="58.33" height="66.67"/>
  <rect class="cls-109" x="291.67" y="600" width="58.33" height="66.67"/>
  <rect class="cls-52" x="233.33" y="600" width="58.33" height="66.67"/>
  <rect class="cls-95" x="175" y="600" width="58.33" height="66.67"/>
  <rect class="cls-56" x="116.67" y="600" width="58.33" height="66.67"/>
  <rect class="cls-121" x="58.33" y="600" width="58.33" height="66.67"/>
  <rect class="cls-103" y="600" width="58.33" height="66.67"/>
  <rect class="cls-117" x="641.67" y="533.33" width="58.33" height="66.67"/>
  <rect class="cls-85" x="583.33" y="533.33" width="58.33" height="66.67"/>
  <rect class="cls-22" x="525" y="533.33" width="58.33" height="66.67"/>
  <rect class="cls-57" x="466.67" y="533.33" width="58.33" height="66.67"/>
  <rect class="cls-125" x="408.33" y="533.33" width="58.33" height="66.67"/>
  <rect class="cls-128" x="350" y="533.33" width="58.33" height="66.67"/>
  <rect class="cls-14" x="291.67" y="533.33" width="58.33" height="66.67"/>
  <rect class="cls-129" x="233.33" y="533.33" width="58.33" height="66.67"/>
  <rect class="cls-33" x="175" y="533.33" width="58.33" height="66.67"/>
  <rect class="cls-35" x="116.67" y="533.33" width="58.33" height="66.67"/>
  <rect class="cls-72" x="58.33" y="533.33" width="58.33" height="66.67"/>
  <rect class="cls-15" y="533.33" width="58.33" height="66.67"/>
  <rect class="cls-6" x="641.67" y="466.67" width="58.33" height="66.67"/>
  <rect class="cls-55" x="583.33" y="466.67" width="58.33" height="66.67"/>
  <rect class="cls-100" x="525" y="466.67" width="58.33" height="66.67"/>
  <rect class="cls-91" x="466.67" y="466.67" width="58.33" height="66.67"/>
  <rect class="cls-12" x="408.33" y="466.67" width="58.33" height="66.67"/>
  <rect class="cls-4" x="350" y="466.67" width="58.33" height="66.67"/>
  <rect class="cls-122" x="291.67" y="466.67" width="58.33" height="66.67"/>
  <rect class="cls-28" x="233.33" y="466.67" width="58.33" height="66.67"/>
  <rect class="cls-30" x="175" y="466.67" width="58.33" height="66.67"/>
  <rect class="cls-60" x="116.67" y="466.67" width="58.33" height="66.67"/>
  <rect class="cls-38" x="58.33" y="466.67" width="58.33" height="66.67"/>
  <rect class="cls-81" y="466.67" width="58.33" height="66.67"/>
  <rect class="cls-64" x="641.67" y="400" width="58.33" height="66.67"/>
  <rect class="cls-20" x="583.33" y="400" width="58.33" height="66.67"/>
  <rect class="cls-5" x="525" y="400" width="58.33" height="66.67"/>
  <rect class="cls-127" x="466.67" y="400" width="58.33" height="66.67"/>
  <rect class="cls-92" x="408.33" y="400" width="58.33" height="66.67"/>
  <rect class="cls-71" x="350" y="400" width="58.33" height="66.67"/>
  <rect class="cls-48" x="291.67" y="400" width="58.33" height="66.67"/>
  <rect class="cls-129" x="233.33" y="400" width="58.33" height="66.67"/>
  <rect class="cls-19" x="175" y="400" width="58.33" height="66.67"/>
  <rect class="cls-132" x="116.67" y="400" width="58.33" height="66.67"/>
  <rect class="cls-18" x="58.33" y="400" width="58.33" height="66.67"/>
  <rect class="cls-9" y="400" width="58.33" height="66.67"/>
  <rect class="cls-49" x="641.67" y="333.33" width="58.33" height="66.67"/>
  <rect class="cls-83" x="583.33" y="333.33" width="58.33" height="66.67"/>
  <rect class="cls-112" x="525" y="333.33" width="58.33" height="66.67"/>
  <rect class="cls-96" x="466.67" y="333.33" width="58.33" height="66.67"/>
  <rect class="cls-67" x="408.33" y="333.33" width="58.33" height="66.67"/>
  <rect class="cls-114" x="350" y="333.33" width="58.33" height="66.67"/>
  <rect class="cls-82" x="291.67" y="333.33" width="58.33" height="66.67"/>
  <rect class="cls-120" x="233.33" y="333.33" width="58.33" height="66.67"/>
  <rect class="cls-137" x="175" y="333.33" width="58.33" height="66.67"/>
  <rect class="cls-59" x="116.67" y="333.33" width="58.33" height="66.67"/>
  <rect class="cls-118" x="58.33" y="333.33" width="58.33" height="66.67"/>
  <rect class="cls-11" y="333.33" width="58.33" height="66.67"/>
  <rect class="cls-88" x="641.67" y="266.67" width="58.33" height="66.67"/>
  <rect class="cls-124" x="583.33" y="266.67" width="58.33" height="66.67"/>
  <rect class="cls-111" x="525" y="266.67" width="58.33" height="66.67"/>
  <rect class="cls-65" x="466.67" y="266.67" width="58.33" height="66.67"/>
  <rect class="cls-101" x="408.33" y="266.67" width="58.33" height="66.67"/>
  <rect class="cls-73" x="350" y="266.67" width="58.33" height="66.67"/>
  <rect class="cls-46" x="291.67" y="266.67" width="58.33" height="66.67"/>
  <rect class="cls-89" x="233.33" y="266.67" width="58.33" height="66.67"/>
  <rect class="cls-118" x="175" y="266.67" width="58.33" height="66.67"/>
  <rect class="cls-69" x="116.67" y="266.67" width="58.33" height="66.67"/>
  <rect class="cls-47" x="58.33" y="266.67" width="58.33" height="66.67"/>
  <rect class="cls-58" y="266.67" width="58.33" height="66.67"/>
  <rect class="cls-108" x="641.67" y="200" width="58.33" height="66.67"/>
  <rect class="cls-107" x="583.33" y="200" width="58.33" height="66.67"/>
  <rect class="cls-63" x="525" y="200" width="58.33" height="66.67"/>
  <rect class="cls-90" x="466.67" y="200" width="58.33" height="66.67"/>
  <rect class="cls-77" x="408.33" y="200" width="58.33" height="66.67"/>
  <rect class="cls-21" x="350" y="200" width="58.33" height="66.67"/>
  <rect class="cls-86" x="291.67" y="200" width="58.33" height="66.67"/>
  <rect class="cls-80" x="233.33" y="200" width="58.33" height="66.67"/>
  <rect class="cls-93" x="175" y="200" width="58.33" height="66.67"/>
  <rect class="cls-29" x="116.67" y="200" width="58.33" height="66.67"/>
  <rect class="cls-61" x="58.33" y="200" width="58.33" height="66.67"/>
  <rect class="cls-25" y="200" width="58.33" height="66.67"/>
  <rect class="cls-75" x="641.67" y="133.33" width="58.33" height="66.67"/>
  <rect class="cls-62" x="583.33" y="133.33" width="58.33" height="66.67"/>
  <rect class="cls-10" x="525" y="133.33" width="58.33" height="66.67"/>
  <rect class="cls-29" x="466.67" y="133.33" width="58.33" height="66.67"/>
  <rect class="cls-97" x="408.33" y="133.33" width="58.33" height="66.67"/>
  <rect class="cls-45" x="350" y="133.33" width="58.33" height="66.67"/>
  <rect class="cls-70" x="291.67" y="133.33" width="58.33" height="66.67"/>
  <rect class="cls-99" x="233.33" y="133.33" width="58.33" height="66.67"/>
  <rect class="cls-3" x="175" y="133.33" width="58.33" height="66.67"/>
  <rect class="cls-115" x="116.67" y="133.33" width="58.33" height="66.67"/>
  <rect class="cls-133" x="58.33" y="133.33" width="58.33" height="66.67"/>
  <rect class="cls-26" y="133.33" width="58.33" height="66.67"/>
  <rect class="cls-37" x="641.67" y="66.67" width="58.33" height="66.67"/>
  <rect class="cls-16" x="583.33" y="66.67" width="58.33" height="66.67"/>
  <rect class="cls-24" x="525" y="66.67" width="58.33" height="66.67"/>
  <rect class="cls-76" x="466.67" y="66.67" width="58.33" height="66.67"/>
  <rect class="cls-41" x="408.33" y="66.67" width="58.33" height="66.67"/>
  <rect class="cls-27" x="350" y="66.67" width="58.33" height="66.67"/>
  <rect class="cls-13" x="291.67" y="66.67" width="58.33" height="66.67"/>
  <rect class="cls-116" x="233.33" y="66.67" width="58.33" height="66.67"/>
  <rect class="cls-34" x="175" y="66.67" width="58.33" height="66.67"/>
  <rect class="cls-53" x="116.67" y="66.67" width="58.33" height="66.67"/>
  <rect class="cls-8" x="58.33" y="66.67" width="58.33" height="66.67"/>
  <rect class="cls-84" y="66.67" width="58.33" height="66.67"/>
  <rect class="cls-74" x="641.67" width="58.33" height="66.67"/>
  <rect class="cls-2" x="583.33" width="58.33" height="66.67"/>
  <rect class="cls-36" x="525" width="58.33" height="66.67"/>
  <rect class="cls-131" x="466.67" width="58.33" height="66.67"/>
  <rect class="cls-106" x="408.33" width="58.33" height="66.67"/>
  <rect class="cls-54" x="350" width="58.33" height="66.67"/>
  <rect class="cls-113" x="291.67" width="58.33" height="66.67"/>
  <rect class="cls-98" x="233.33" width="58.33" height="66.67"/>
  <rect class="cls-68" x="175" width="58.33" height="66.67"/>
  <rect class="cls-136" x="116.67" width="58.33" height="66.67"/>
  <rect class="cls-79" x="58.33" width="58.33" height="66.67"/>
  <rect class="cls-134" width="58.33" height="66.67"/>
</svg>