<svg width="62" height="64" viewBox="0 0 62 64" fill="none" xmlns="http://www.w3.org/2000/svg">
<path d="M19.3298 25.7686C22.9299 25.7686 25.3513 28.1083 25.3513 32.439V42.1886H21.1148V33.3036C21.1148 30.9942 20.1282 29.8414 18.249 29.8414C15.8615 29.8414 14.7469 31.5402 14.7469 34.5247V42.1886H10.5405V33.3036C10.5405 30.9942 9.51994 29.8414 7.64081 29.8414C5.28342 29.8414 4.20264 31.5402 4.20264 34.5247V42.1886H0L0 26.1516H4.07836L4.07836 28.6203C5.03487 26.9214 6.59391 25.7648 9.04544 25.7648C11.3049 25.7648 13.0598 26.728 13.9824 28.7492C14.9992 26.9252 16.8444 25.7686 19.3298 25.7686ZM40.7233 30.9638C40.7233 24.2593 45.4042 19.739 51.3616 19.739C57.3191 19.739 62 24.2631 62 30.9638C62 37.6646 57.3191 42.1886 51.3616 42.1886C45.4042 42.1886 40.7233 37.6684 40.7233 30.9638ZM57.5413 30.9638C57.5413 26.8266 54.9278 24.229 51.3616 24.229C47.7615 24.229 45.182 26.8266 45.182 30.9638C45.182 35.1011 47.7615 37.6987 51.3616 37.6987C54.9316 37.6987 57.5413 35.1011 57.5413 30.9638ZM20.742 18.9237C20.629 20.16 21.5328 21.2521 22.7604 21.3621L26.3907 21.6958C27.6183 21.8096 28.7029 20.8995 28.8121 19.6632C28.9251 18.427 28.0213 17.3348 26.7936 17.2249L23.1634 16.8912C21.9395 16.7812 20.855 17.6913 20.742 18.9237ZM26.0518 7.45627C25.0388 8.16161 24.7902 9.56091 25.4906 10.581L28.2999 14.6576C29.0004 15.6777 30.3899 15.9279 31.4029 15.2226C32.4159 14.5173 32.6645 13.118 31.964 12.0979L29.1548 8.0213C28.4543 7.00121 27.0648 6.75093 26.0518 7.45627ZM38.9948 5.27199C37.8048 4.94586 36.5809 5.65121 36.2571 6.84953L34.9654 11.6276C34.6415 12.8222 35.342 14.0584 36.5319 14.3845C37.7219 14.7107 38.9458 14.0053 39.2697 12.807L40.5614 8.02888C40.8814 6.83056 40.181 5.59811 38.9948 5.27199ZM47.7879 14.449C47.272 13.3227 45.9464 12.8335 44.828 13.3531L41.5216 14.8889C40.4032 15.4084 39.9174 16.7433 40.4333 17.8695C40.9492 18.9958 42.2748 19.485 43.3932 18.9654L46.6996 17.4296C47.818 16.9063 48.3038 15.5715 47.7879 14.449ZM35.2516 19.739C34.6265 19.739 34.0239 19.959 33.5457 20.3648L26.8652 26.0113C25.9237 26.8076 25.7995 28.2259 26.5903 29.1739C27.3811 30.122 28.7895 30.2471 29.7309 29.4508L33.444 26.3146V42.1924H37.9027V22.4125C37.9027 20.9336 36.7165 19.739 35.2516 19.739Z" fill="#141414" style="fill:#141414;fill:color(display-p3 0.0784 0.0784 0.0784);fill-opacity:1;"/>
</svg>
