<svg width="280" height="138" viewBox="0 0 280 138" fill="none" xmlns="http://www.w3.org/2000/svg">
<g clip-path="url(#clip0_13058_108451)">
<path d="M184.061 23.2715C185.135 23.2715 185.935 23.9352 185.935 24.9307V25.1173C185.935 26.1232 185.135 26.7765 184.061 26.7765C182.988 26.7765 182.156 26.1128 182.156 25.1173V24.9307C182.156 23.9248 182.988 23.2715 184.061 23.2715Z" fill="#141414" style="fill:#141414;fill:color(display-p3 0.0784 0.0784 0.0784);fill-opacity:1;"/>
<path d="M271.531 34.4931C271.531 30.8015 269.121 28.0742 265.289 28.0742C261.457 28.0742 258.668 30.9259 258.668 34.7213V35.696C258.668 39.4188 261.405 42.3742 265.415 42.3742C268.068 42.3742 270.184 41.2128 271.521 38.7552L269.131 37.4382C268.163 39.0766 267.015 39.7921 265.384 39.7921C263.131 39.7921 261.605 38.4233 261.468 35.9138H271.521V34.4931H271.531ZM261.594 33.6739C261.942 31.6933 263.205 30.563 265.289 30.563C267.594 30.563 268.563 32.1703 268.615 33.6739H261.594Z" fill="#141414" style="fill:#141414;fill:color(display-p3 0.0784 0.0784 0.0784);fill-opacity:1;"/>
<path d="M231.007 28.3957V30.0548C230.038 28.8623 228.459 28.0742 226.586 28.0742C222.996 28.0742 220.133 30.8741 220.133 34.7835V35.6857C220.133 39.5951 222.996 42.395 226.586 42.395C228.459 42.395 230.038 41.6069 231.007 40.4143V42.0735H233.954V28.3957H231.007ZM231.007 35.5509C231.007 38.133 229.48 39.8025 227.07 39.8025C224.659 39.8025 223.133 38.1433 223.133 35.5509V34.9183C223.133 32.3362 224.659 30.6667 227.07 30.6667C229.48 30.6667 231.007 32.3258 231.007 34.9183V35.5509Z" fill="#141414" style="fill:#141414;fill:color(display-p3 0.0784 0.0784 0.0784);fill-opacity:1;"/>
<path d="M174.208 28.0836C172.334 28.0836 170.755 28.8717 169.787 30.0641V23.5938H166.84V35.5806C166.84 39.8527 169.871 42.3932 173.703 42.3932C177.744 42.3932 180.671 39.5727 180.671 35.6843V34.8132C180.671 30.8833 177.808 28.0836 174.218 28.0836H174.208ZM177.723 35.6324C177.723 38.1107 176.166 39.8008 173.755 39.8008C171.345 39.8008 169.787 38.1625 169.787 35.6324V34.9169C169.787 32.335 171.345 30.6655 173.755 30.6655C176.166 30.6655 177.723 32.3246 177.723 34.9169V35.6324Z" fill="#141414" style="fill:#141414;fill:color(display-p3 0.0784 0.0784 0.0784);fill-opacity:1;"/>
<path d="M249.224 34.2533L254.824 28.3947H258.655L253.087 33.9422L259.192 42.0717H255.571L251.077 35.9227L249.224 37.7374V42.0717H246.277V23.5938H249.224V34.2533Z" fill="#141414" style="fill:#141414;fill:color(display-p3 0.0784 0.0784 0.0784);fill-opacity:1;"/>
<path d="M242.858 28.0846C243.658 28.0846 244.384 28.2712 244.973 28.6342L244.279 31.2785C243.742 31.04 243.205 30.8844 242.563 30.8844C240.689 30.8844 239.268 32.3051 239.268 34.6902V42.0839H236.32V28.3957H239.268V30.2933C240.068 28.686 241.416 28.0742 242.858 28.0742V28.0846Z" fill="#141414" style="fill:#141414;fill:color(display-p3 0.0784 0.0784 0.0784);fill-opacity:1;"/>
<path d="M213.448 28.0826C216.606 28.0826 218.543 30.198 218.543 33.8376V42.0708H215.596V33.9102C215.596 31.9089 214.68 30.6646 212.975 30.6646C211.07 30.6646 209.975 31.9815 209.975 34.0968V42.0708H207.028V34.0968C207.028 31.9815 206.228 30.6646 204.375 30.6646C202.607 30.6646 201.396 31.9815 201.396 34.1798V42.0708H198.449V28.3937H201.396V30.1047C202.144 28.9744 203.375 28.0723 205.259 28.0723C207.133 28.0723 208.554 29.0989 209.196 30.5817C209.922 29.2337 211.291 28.0723 213.459 28.0723L213.448 28.0826Z" fill="#141414" style="fill:#141414;fill:color(display-p3 0.0784 0.0784 0.0784);fill-opacity:1;"/>
<path d="M194.914 28.0846C195.714 28.0846 196.44 28.2712 197.03 28.6342L196.335 31.2785C195.798 31.04 195.261 30.8844 194.619 30.8844C192.745 30.8844 191.324 32.3051 191.324 34.6902V42.0839H188.377V28.3957H191.324V30.2933C192.124 28.686 193.472 28.0742 194.914 28.0742V28.0846Z" fill="#141414" style="fill:#141414;fill:color(display-p3 0.0784 0.0784 0.0784);fill-opacity:1;"/>
<path d="M185.535 28.3945H182.588V42.0724H185.535V28.3945Z" fill="#141414" style="fill:#141414;fill:color(display-p3 0.0784 0.0784 0.0784);fill-opacity:1;"/>
<path d="M277.467 28.3961H280.003V30.9781H277.467V33.726V38.2573C277.467 39.2632 277.919 39.5742 278.751 39.5742C279.014 39.5742 279.182 39.5431 279.372 39.4913L279.666 41.9695C279.287 42.1043 278.866 42.1562 278.351 42.1562C275.888 42.1562 274.519 40.8082 274.519 38.0914V36.6605V30.9677H272.088V28.3858H274.519V24.4766H277.467V28.3858V28.3961Z" fill="#141414" style="fill:#141414;fill:color(display-p3 0.0784 0.0784 0.0784);fill-opacity:1;"/>
<path d="M157.683 32.1269L150.315 19.6941C149.767 18.7712 148.42 18.7712 147.873 19.6941L140.515 32.1269C139.831 33.2779 139.831 34.7088 140.515 35.8702L147.883 48.3133C148.43 49.2361 149.778 49.2361 150.325 48.3133L157.693 35.8702C158.377 34.7192 158.377 33.2882 157.693 32.1269H157.683ZM153.914 35.0614L149.399 42.5583C149.262 42.7865 148.925 42.7865 148.788 42.5583L144.273 35.0614C143.873 34.4081 143.873 33.5889 144.273 32.9357L148.788 25.4387C148.925 25.2105 149.262 25.2105 149.399 25.4387L153.914 32.9357C154.314 33.5889 154.314 34.4081 153.914 35.0614Z" fill="#141414" style="fill:#141414;fill:color(display-p3 0.0784 0.0784 0.0784);fill-opacity:1;"/>
</g>
<g clip-path="url(#clip1_13058_108451)">
<path d="M10.8577 21.5673C10.8577 20.9957 10.5441 20.8845 10.1679 21.1068L2.6898 25.4891C2.18813 25.7749 2 26.2672 2 26.7435V48.4327C2 49.0043 2.31355 49.1155 2.6898 48.8932L10.1679 44.5109C10.6695 44.2251 10.8577 43.7328 10.8577 43.2565V21.5673Z" fill="#141414" style="fill:#141414;fill:color(display-p3 0.0784 0.0784 0.0784);fill-opacity:1;"/>
<path d="M19.6992 35.7614V24.0117H22.5055V30.347C23.4304 29.1879 24.9354 28.4099 26.7226 28.4099C30.1403 28.4099 32.8838 31.1568 32.8838 35.0151V35.8725C32.8838 39.6832 30.0933 42.446 26.2366 42.446C22.5838 42.4301 19.6992 39.9531 19.6992 35.7614ZM30.0619 35.809V35.1104C30.0619 32.5699 28.5726 30.9504 26.2837 30.9504C23.9791 30.9504 22.5055 32.5858 22.5055 35.1104V35.809C22.5055 38.3018 23.9948 39.8896 26.2837 39.8896C28.5882 39.9055 30.0619 38.2383 30.0619 35.809Z" fill="#141414" style="fill:#141414;fill:color(display-p3 0.0784 0.0784 0.0784);fill-opacity:1;"/>
<path d="M36.5861 23.6953C37.6052 23.6953 38.3734 24.3463 38.3734 25.3307V25.5054C38.3734 26.4898 37.6052 27.1408 36.5861 27.1408C35.5671 27.1408 34.7676 26.4898 34.7676 25.5054V25.3307C34.7676 24.3463 35.5671 23.6953 36.5861 23.6953ZM37.9971 42.1296H35.1909V28.7286H37.9971V42.1296Z" fill="#141414" style="fill:#141414;fill:color(display-p3 0.0784 0.0784 0.0784);fill-opacity:1;"/>
<path d="M50.6797 35.7614V24.0117H53.4859V30.347C54.4109 29.1879 55.9159 28.4099 57.7031 28.4099C61.1208 28.4099 63.8643 31.1568 63.8643 35.0151V35.8725C63.8643 39.6832 61.0737 42.446 57.2171 42.446C53.5643 42.4301 50.6797 39.9531 50.6797 35.7614ZM61.0424 35.809V35.1104C61.0424 32.5699 59.553 30.9504 57.2641 30.9504C54.9596 30.9504 53.4859 32.5858 53.4859 35.1104V35.809C53.4859 38.3018 54.9753 39.8896 57.2641 39.8896C59.5687 39.9055 61.0424 38.2383 61.0424 35.809Z" fill="#141414" style="fill:#141414;fill:color(display-p3 0.0784 0.0784 0.0784);fill-opacity:1;"/>
<path d="M49.0783 28.95L48.4198 31.5381C47.9025 31.2999 47.4008 31.157 46.7894 31.157C45.0022 31.157 43.6539 32.5543 43.6539 34.8883V42.1287H40.832V28.7277H43.6383V30.5854C44.4064 29.0135 45.6763 28.4102 47.0559 28.4102C47.8241 28.4102 48.5139 28.5848 49.0783 28.95Z" fill="#141414" style="fill:#141414;fill:color(display-p3 0.0784 0.0784 0.0784);fill-opacity:1;"/>
<path d="M65.6191 35.8569V34.9836C65.6191 31.157 68.347 28.4102 71.7803 28.4102C73.5675 28.4102 75.0725 29.1882 75.9975 30.3473V28.7277H78.8037V42.1287H75.9975V40.4932C75.0725 41.6523 73.5675 42.4303 71.7803 42.4303C68.347 42.4303 65.6191 39.6993 65.6191 35.8569ZM75.9975 35.7299V35.1106C75.9975 32.5702 74.5395 30.9506 72.235 30.9506C69.9304 30.9506 68.4724 32.586 68.4724 35.1106V35.7299C68.4724 38.2703 69.9304 39.8899 72.235 39.8899C74.5395 39.9058 75.9975 38.2703 75.9975 35.7299Z" fill="#141414" style="fill:#141414;fill:color(display-p3 0.0784 0.0784 0.0784);fill-opacity:1;"/>
<path d="M84.4156 34.3959V42.1284H81.6094V28.7275H84.4156V30.4105C85.1054 29.3785 86.3596 28.4258 88.3036 28.4258C91.2979 28.4258 93.2576 30.5693 93.2576 34.1895V42.1284H90.4514V34.3641C90.4514 32.1095 89.3539 30.9504 87.5667 30.9504C85.8736 30.9504 84.4156 32.2365 84.4156 34.3959Z" fill="#141414" style="fill:#141414;fill:color(display-p3 0.0784 0.0784 0.0784);fill-opacity:1;"/>
<path d="M98.8394 42.1284H96.0332V24.0117H98.8394V34.4594L104.185 28.7116H107.838L102.524 34.1418L108.356 42.1125H104.907L100.611 36.0789L98.8394 37.889V42.1284Z" fill="#141414" style="fill:#141414;fill:color(display-p3 0.0784 0.0784 0.0784);fill-opacity:1;"/>
</g>
<g clip-path="url(#clip2_13058_108451)">
<path d="M215.133 104.986C215.133 98.3521 219.794 93.8888 225.733 93.8888C231.672 93.8888 236.333 98.3521 236.333 104.986C236.333 111.62 231.675 116.081 225.733 116.081C219.791 116.081 215.133 111.596 215.133 104.986ZM231.88 104.986C231.88 100.901 229.277 98.3332 225.73 98.3332C222.183 98.3332 219.58 100.901 219.58 104.986C219.58 109.071 222.14 111.639 225.73 111.639C229.32 111.639 231.88 109.071 231.88 104.986ZM209.675 93.8699C209.045 93.8699 208.458 94.0808 207.975 94.4809L201.62 99.7619C200.677 100.54 200.55 101.952 201.347 102.901C202.145 103.849 203.529 103.952 204.475 103.174L207.869 100.377V116.086H212.319V96.5219C212.319 95.0702 211.121 93.8672 209.675 93.8672V93.8699Z" fill="#141414" style="fill:#141414;fill:color(display-p3 0.0784 0.0784 0.0784);fill-opacity:1;"/>
<path d="M216.889 91.02L220.127 89.3893" stroke="#141414" style="stroke:#141414;stroke:color(display-p3 0.0784 0.0784 0.0784);stroke-opacity:1;" stroke-width="3.63237" stroke-linecap="round"/>
<path d="M212.036 86.1854L213.458 81.6737" stroke="#141414" style="stroke:#141414;stroke:color(display-p3 0.0784 0.0784 0.0784);stroke-opacity:1;" stroke-width="3.63237" stroke-linecap="round"/>
<path d="M201.293 92.4025L197.83 91.7598" stroke="#141414" style="stroke:#141414;stroke:color(display-p3 0.0784 0.0784 0.0784);stroke-opacity:1;" stroke-width="3.63237" stroke-linecap="round"/>
<path d="M205.069 86.8466L202.627 82.7031" stroke="#141414" style="stroke:#141414;stroke:color(display-p3 0.0784 0.0784 0.0784);stroke-opacity:1;" stroke-width="3.63237" stroke-linecap="round"/>
<path d="M152.039 102.734C151.114 100.726 149.354 99.7715 147.081 99.7715C144.621 99.7715 143.05 100.915 142.093 102.607V100.155H138V116.084H142.22V108.471C142.22 105.508 143.309 103.818 145.672 103.818C147.559 103.818 148.584 104.962 148.584 107.257V116.084H152.804V108.471C152.804 105.505 153.923 103.818 156.321 103.818C158.208 103.818 159.197 104.962 159.197 107.257V116.084H163.45V106.4C163.45 102.099 161.019 99.7742 157.405 99.7742C154.918 99.7688 153.063 100.918 152.039 102.734Z" fill="#141414" style="fill:#141414;fill:color(display-p3 0.0784 0.0784 0.0784);fill-opacity:1;"/>
<path d="M181.168 97.4121H176.986V116.083H181.168V97.4121Z" fill="#141414" style="fill:#141414;fill:color(display-p3 0.0784 0.0784 0.0784);fill-opacity:1;"/>
<path d="M190.129 97.4121H185.947V116.083H190.129V97.4121Z" fill="#141414" style="fill:#141414;fill:color(display-p3 0.0784 0.0784 0.0784);fill-opacity:1;"/>
<path d="M172.281 103.688H168.1V116.083H172.281V103.688Z" fill="#141414" style="fill:#141414;fill:color(display-p3 0.0784 0.0784 0.0784);fill-opacity:1;"/>
<path d="M199.082 103.688H194.9V116.083H199.082V103.688Z" fill="#141414" style="fill:#141414;fill:color(display-p3 0.0784 0.0784 0.0784);fill-opacity:1;"/>
<path d="M199.381 99.8056C199.381 98.4859 198.311 97.416 196.991 97.416C195.671 97.416 194.602 98.4859 194.602 99.8056C194.602 101.125 195.671 102.195 196.991 102.195C198.311 102.195 199.381 101.125 199.381 99.8056Z" fill="#141414" style="fill:#141414;fill:color(display-p3 0.0784 0.0784 0.0784);fill-opacity:1;"/>
<path d="M172.578 99.8056C172.578 98.4859 171.508 97.416 170.188 97.416C168.869 97.416 167.799 98.4859 167.799 99.8056C167.799 101.125 168.869 102.195 170.188 102.195C171.508 102.195 172.578 101.125 172.578 99.8056Z" fill="#141414" style="fill:#141414;fill:color(display-p3 0.0784 0.0784 0.0784);fill-opacity:1;"/>
</g>
<path d="M63.3298 99.7676C66.9299 99.7676 69.3513 102.107 69.3513 106.438V116.188H65.1148V107.303C65.1148 104.993 64.1282 103.84 62.249 103.84C59.8615 103.84 58.7469 105.539 58.7469 108.524V116.188H54.5405V107.303C54.5405 104.993 53.5199 103.84 51.6408 103.84C49.2834 103.84 48.2026 105.539 48.2026 108.524V116.188H44V100.151H48.0784V102.619C49.0349 100.92 50.5939 99.7638 53.0454 99.7638C55.3049 99.7638 57.0598 100.727 57.9824 102.748C58.9992 100.924 60.8444 99.7676 63.3298 99.7676ZM84.7233 104.963C84.7233 98.2583 89.4042 93.7381 95.3616 93.7381C101.319 93.7381 106 98.2621 106 104.963C106 111.664 101.319 116.188 95.3616 116.188C89.4042 116.188 84.7233 111.667 84.7233 104.963ZM101.541 104.963C101.541 100.826 98.9278 98.228 95.3616 98.228C91.7615 98.228 89.182 100.826 89.182 104.963C89.182 109.1 91.7615 111.698 95.3616 111.698C98.9316 111.698 101.541 109.1 101.541 104.963ZM64.742 92.9228C64.629 94.159 65.5328 95.2511 66.7604 95.3611L70.3907 95.6948C71.6183 95.8086 72.7029 94.8985 72.8121 93.6622C72.9251 92.426 72.0213 91.3338 70.7936 91.2239L67.1634 90.8902C65.9395 90.7802 64.855 91.6903 64.742 92.9228ZM70.0518 81.4553C69.0388 82.1606 68.7902 83.5599 69.4906 84.58L72.2999 88.6566C73.0004 89.6767 74.3899 89.927 75.4029 89.2216C76.4159 88.5163 76.6645 87.117 75.964 86.0969L73.1548 82.0203C72.4543 81.0002 71.0648 80.7499 70.0518 81.4553ZM82.9948 79.271C81.8048 78.9449 80.5809 79.6502 80.2571 80.8485L78.9654 85.6267C78.6415 86.8212 79.342 88.0574 80.5319 88.3836C81.7219 88.7097 82.9458 88.0043 83.2697 86.806L84.5614 82.0279C84.8814 80.8296 84.181 79.5971 82.9948 79.271ZM91.7879 88.448C91.272 87.3218 89.9464 86.8326 88.828 87.3521L85.5216 88.8879C84.4032 89.4074 83.9174 90.7423 84.4333 91.8685C84.9492 92.9948 86.2748 93.484 87.3932 92.9645L90.6996 91.4287C91.818 90.9053 92.3038 89.5705 91.7879 88.448ZM79.2516 93.7381C78.6265 93.7381 78.0239 93.958 77.5457 94.3638L70.8652 100.01C69.9237 100.807 69.7995 102.225 70.5903 103.173C71.3811 104.121 72.7895 104.246 73.7309 103.45L77.444 100.314V116.191H81.9027V96.4115C81.9027 94.9326 80.7165 93.7381 79.2516 93.7381Z" fill="#141414" style="fill:#141414;fill:color(display-p3 0.0784 0.0784 0.0784);fill-opacity:1;"/>
<defs>
<clipPath id="clip0_13058_108451">
<rect width="140" height="30" fill="white" style="fill:white;fill-opacity:1;" transform="translate(140 19)"/>
</clipPath>
<clipPath id="clip1_13058_108451">
<rect width="108" height="64" fill="white" style="fill:white;fill-opacity:1;"/>
</clipPath>
<clipPath id="clip2_13058_108451">
<rect width="98" height="64" fill="white" style="fill:white;fill-opacity:1;" transform="translate(138 74)"/>
</clipPath>
</defs>
</svg>
