<svg width="280" height="80" viewBox="0 0 280 80" fill="none" xmlns="http://www.w3.org/2000/svg">
<path d="M13.7374 79.9957C13.1846 79.9957 12.6452 79.9875 12.0967 79.9733C10.9606 79.9562 9.82711 79.8422 8.70559 79.6322C7.65983 79.4246 6.64676 79.0384 5.69981 78.4863C4.76155 77.9388 3.90577 77.221 3.16527 76.3602C2.41405 75.5096 1.78863 74.523 1.31379 73.4396C0.833712 72.3491 0.50147 71.1803 0.328637 69.9737C0.141993 68.6773 0.0410106 67.3664 0.026561 66.0524C0.0150585 65.6113 0 64.1427 0 64.1427V15.8304C0 15.8304 0.0160383 14.3844 0.0266518 13.9596C0.0404871 12.6476 0.140882 11.3388 0.326968 10.0444C0.50012 8.83456 0.832619 7.66233 1.31295 6.56828C1.78605 5.4856 2.408 4.49829 3.15469 3.64462C3.90055 2.78285 4.75906 2.06128 5.69892 1.50624C6.6437 0.955961 7.65485 0.572482 8.6985 0.368649C9.8237 0.156512 10.9611 0.0418196 12.1012 0.0255359L13.7382 0H266.253L267.91 0.0265607C269.039 0.0420352 270.166 0.155704 271.281 0.3666C272.335 0.572989 273.357 0.959144 274.313 1.51237C276.196 2.63094 277.728 4.40063 278.694 6.57339C279.167 7.65988 279.494 8.82254 279.665 10.0219C279.853 11.327 279.959 12.6461 279.98 13.9688C279.986 14.5611 279.986 15.1973 279.986 15.8304C280 16.6147 280 17.3612 280 18.1138V61.8838C280 62.6436 280 63.385 279.986 64.1325C279.986 64.8126 279.986 65.4356 279.979 66.0768C279.957 67.376 279.854 68.6716 279.669 69.9532C279.499 71.1685 279.169 72.3464 278.689 73.4459C278.211 74.5175 277.589 75.4956 276.846 76.3439C276.105 77.2093 275.248 77.9314 274.307 78.4823C273.354 79.0386 272.334 79.4263 271.281 79.6322C270.16 79.8433 269.026 79.9574 267.89 79.9733C267.359 79.9875 266.802 79.9957 266.262 79.9957L264.295 79.9999L13.7374 79.9957Z" fill="black"/>
<path d="M43.1227 40.0418C43.1423 38.5204 43.5464 37.0286 44.2974 35.7054C45.0485 34.3821 46.122 33.2704 47.4182 32.4735C46.5947 31.2975 45.5085 30.3297 44.2456 29.647C42.9827 28.9643 41.5781 28.5854 40.1431 28.5405C37.0823 28.2192 34.1149 30.3721 32.5551 30.3721C30.9651 30.3721 28.5636 28.5724 25.9776 28.6256C24.3049 28.6796 22.6747 29.1661 21.2458 30.0375C19.817 30.9089 18.6382 32.1355 17.8244 33.5979C14.2992 39.7014 16.9287 48.6714 20.3056 53.6049C21.9951 56.0207 23.9697 58.7193 26.5534 58.6236C29.0817 58.5187 30.026 57.0114 33.0779 57.0114C36.1014 57.0114 36.9874 58.6236 39.6235 58.5627C42.3365 58.5187 44.0458 56.1362 45.6761 53.6975C46.89 51.9761 47.8241 50.0736 48.4438 48.0605C46.8676 47.3939 45.5226 46.278 44.5763 44.852C43.6301 43.4261 43.1245 41.7531 43.1227 40.0418Z" fill="white"/>
<path d="M38.1434 25.2943C39.6226 23.5185 40.3514 21.2361 40.1749 18.9316C37.9149 19.169 35.8274 20.2491 34.3282 21.9567C33.5951 22.791 33.0337 23.7615 32.676 24.8128C32.3183 25.8641 32.1713 26.9757 32.2434 28.0838C33.3738 28.0955 34.4921 27.8505 35.5141 27.3673C36.536 26.8841 37.435 26.1753 38.1434 25.2943Z" fill="white"/>
<path d="M62.9504 63.5237V62.1299C63.1252 62.1513 63.3012 62.1614 63.4773 62.1602C63.8228 62.1858 64.1655 62.0829 64.4398 61.8714C64.7141 61.6598 64.9007 61.3544 64.9637 61.0138L65.0829 60.6151L62.1138 52.377H63.8778L65.9356 58.8955H66.0637L68.1144 52.377H69.8321L66.7722 60.923C66.0708 62.9203 65.2947 63.5611 63.6215 63.5611C63.4862 63.561 63.1017 63.5468 62.9504 63.5237Z" fill="white"/>
<path d="M78.64 60.587H77.0788V59.2822H76.9507C76.7432 59.7554 76.3921 60.1514 75.9471 60.4141C75.502 60.6767 74.9856 60.7926 74.471 60.7454C74.074 60.7734 73.6758 60.7122 73.3055 60.5663C72.9352 60.4203 72.6023 60.1933 72.3312 59.9019C72.0601 59.6105 71.8577 59.2621 71.7389 58.8822C71.62 58.5024 71.5877 58.1007 71.6443 57.7068V52.3791H73.2659V57.2849C73.2659 58.6111 73.8 59.2448 74.9908 59.2448C75.2669 59.2711 75.5453 59.2354 75.8058 59.1404C76.0664 59.0454 76.3024 58.8934 76.4967 58.6955C76.6909 58.4977 76.8386 58.2589 76.9288 57.9967C77.0191 57.7345 77.0497 57.4555 77.0183 57.1799V52.3791H78.64V60.587ZM72.5272 50.2448C72.5283 50.0463 72.588 49.8525 72.699 49.6879C72.81 49.5232 72.9673 49.3952 73.1509 49.3197C73.3346 49.2443 73.5365 49.225 73.7311 49.2641C73.9258 49.3032 74.1045 49.3991 74.2448 49.5396C74.385 49.6801 74.4806 49.859 74.5193 50.0537C74.5581 50.2484 74.5384 50.4503 74.4627 50.6338C74.3869 50.8173 74.2586 50.9743 74.0937 51.085C73.9289 51.1957 73.735 51.2552 73.5365 51.2559C73.4033 51.2577 73.2711 51.2328 73.1477 51.1826C73.0243 51.1324 72.9122 51.058 72.8181 50.9637C72.724 50.8694 72.6498 50.7572 72.5998 50.6337C72.5498 50.5103 72.5251 50.378 72.5272 50.2448ZM75.7456 50.2448C75.7442 50.1118 75.7692 49.9799 75.8191 49.8567C75.869 49.7335 75.9429 49.6213 76.0364 49.5268C76.1299 49.4323 76.2413 49.3573 76.364 49.3061C76.4867 49.2549 76.6183 49.2285 76.7513 49.2285C76.8843 49.2285 77.0159 49.2549 77.1386 49.3061C77.2613 49.3573 77.3727 49.4323 77.4662 49.5268C77.5597 49.6213 77.6336 49.7335 77.6835 49.8567C77.7335 49.9799 77.7584 50.1118 77.7571 50.2448C77.7579 50.3774 77.7324 50.5088 77.6822 50.6315C77.6321 50.7543 77.5581 50.8658 77.4646 50.9599C77.3712 51.0539 77.26 51.1285 77.1376 51.1795C77.0152 51.2304 76.8839 51.2566 76.7513 51.2566C76.6187 51.2566 76.4874 51.2304 76.365 51.1795C76.2426 51.1285 76.1315 51.0539 76.038 50.9599C75.9445 50.8658 75.8706 50.7543 75.8204 50.6315C75.7702 50.5088 75.7448 50.3774 75.7456 50.2448Z" fill="white"/>
<path d="M86.3013 52.376H88.2149L84.8381 55.8951L88.441 60.5838H86.4509L83.633 56.965L82.9157 57.6432V60.5839H81.2959V49.1719H82.9157V55.7973H83.0439L86.3013 52.376Z" fill="white"/>
<path d="M90.23 49.1719H91.8498V60.5838H90.23L90.23 49.1719Z" fill="white"/>
<path d="M94.2545 56.6775C94.2545 56.4336 94.2616 56.0794 94.2616 56.0794H100.147V55.9797C100.171 55.671 100.131 55.3606 100.028 55.0683C99.9263 54.776 99.7644 54.5081 99.5532 54.2818C99.3419 54.0554 99.0858 53.8755 98.8012 53.7535C98.5166 53.6315 98.2097 53.57 97.9001 53.573C97.4939 53.5367 97.0864 53.6276 96.734 53.8329C96.3816 54.0383 96.1018 54.3481 95.9331 54.7194H94.356C94.5666 53.9515 95.0339 53.2789 95.68 52.8135C96.3261 52.3481 97.1121 52.118 97.9072 52.1614C98.4573 52.1541 99.0027 52.2646 99.5067 52.4853C100.011 52.706 100.462 53.032 100.829 53.4413C101.197 53.8506 101.473 54.3338 101.638 54.8585C101.804 55.3832 101.856 55.9372 101.789 56.4834C101.855 57.0207 101.806 57.5656 101.646 58.0827C101.487 58.5998 101.219 59.0772 100.862 59.4839C100.505 59.8906 100.066 60.2172 99.5742 60.4425C99.0821 60.6678 98.548 60.7866 98.0069 60.7912C97.4789 60.8049 96.9542 60.7049 96.4683 60.4979C95.9824 60.2909 95.5467 59.9818 95.1908 59.5916C94.8349 59.2015 94.5671 58.7393 94.4055 58.2364C94.244 57.7336 94.1925 57.2019 94.2545 56.6775ZM100.125 57.3112H95.9046C95.9028 57.5882 95.9569 57.8627 96.0637 58.1182C96.1706 58.3738 96.328 58.6051 96.5265 58.7983C96.725 58.9915 96.9606 59.1426 97.2189 59.2424C97.4773 59.3423 97.7532 59.389 98.03 59.3796C98.5794 59.3742 99.1051 59.1553 99.4961 58.7693C99.8871 58.3833 100.113 57.8604 100.125 57.3112H100.125Z" fill="white"/>
<path d="M104.273 63.5237V62.1299C104.447 62.1513 104.623 62.1614 104.8 62.1602C105.145 62.1858 105.488 62.0829 105.762 61.8714C106.036 61.6598 106.223 61.3544 106.286 61.0138L106.405 60.6151L103.436 52.377H105.2L107.258 58.8955H107.386L109.437 52.377H111.154L108.094 60.923C107.393 62.9203 106.617 63.5611 104.944 63.5611C104.808 63.561 104.424 63.5468 104.273 63.5237Z" fill="white"/>
<path d="M112.831 49.9467C112.819 49.7369 112.87 49.5283 112.978 49.3479C113.085 49.1674 113.245 49.0234 113.435 48.9345C113.625 48.8456 113.838 48.8159 114.046 48.8492C114.253 48.8826 114.446 48.9775 114.599 49.1216C114.752 49.2657 114.858 49.4524 114.903 49.6575C114.949 49.8626 114.932 50.0767 114.854 50.272C114.777 50.4673 114.643 50.6349 114.469 50.7531C114.295 50.8712 114.09 50.9345 113.88 50.9347C113.745 50.9415 113.611 50.9211 113.485 50.8746C113.358 50.8282 113.243 50.7567 113.145 50.6644C113.047 50.5721 112.969 50.4609 112.915 50.3376C112.861 50.2142 112.833 50.0813 112.831 49.9467ZM113.073 52.3747H114.686V60.5825H113.073V52.3747Z" fill="white"/>
<path d="M117.3 52.3775H118.86V53.6805H118.981C119.186 53.2124 119.533 52.82 119.972 52.5581C120.411 52.2961 120.92 52.1776 121.43 52.219C121.829 52.189 122.23 52.2492 122.603 52.3952C122.976 52.5412 123.312 52.7692 123.584 53.0624C123.857 53.3556 124.061 53.7064 124.18 54.0889C124.298 54.4713 124.33 54.8756 124.271 55.2718V60.5852H122.651V55.6777C122.651 54.3587 122.078 53.7036 120.88 53.7036C120.609 53.691 120.338 53.7371 120.087 53.8388C119.835 53.9404 119.608 54.0953 119.422 54.2928C119.236 54.4903 119.095 54.7257 119.008 54.9828C118.922 55.24 118.892 55.5129 118.92 55.7827V60.5854H117.3V52.3775Z" fill="white"/>
<path d="M75.0868 34.8903H66.4589L64.3869 41.0084H60.7324L68.9047 18.373H72.7015L80.8738 41.0084H77.157L75.0868 34.8903ZM67.3525 32.0671H74.1915L70.82 22.138H70.7257L67.3525 32.0671Z" fill="white"/>
<path d="M98.5229 32.764C98.5229 37.8924 95.778 41.1872 91.6358 41.1872C90.5865 41.2421 89.543 41.0004 88.6247 40.4898C87.7064 39.9792 86.9504 39.2202 86.4434 38.3H86.365V46.474H82.9775V24.5117H86.2564V27.2565H86.3187C86.8491 26.3406 87.6178 25.5856 88.5431 25.0719C89.4684 24.5582 90.5156 24.3049 91.5734 24.339C95.762 24.339 98.5229 27.6499 98.5229 32.764ZM95.041 32.764C95.041 29.4228 93.3144 27.2262 90.6799 27.2262C88.0917 27.2262 86.3508 29.4691 86.3508 32.764C86.3508 36.0892 88.0917 38.316 90.6799 38.316C93.3144 38.316 95.0411 36.1354 95.0411 32.764H95.041Z" fill="white"/>
<path d="M116.686 32.764C116.686 37.8924 113.942 41.1873 109.799 41.1873C108.75 41.2422 107.707 41.0005 106.788 40.4898C105.87 39.9792 105.114 39.2203 104.607 38.3H104.529V46.4741H101.141V24.5117H104.42V27.2565H104.482C105.013 26.3406 105.781 25.5856 106.707 25.0719C107.632 24.5582 108.679 24.3049 109.737 24.339C113.926 24.339 116.686 27.6499 116.686 32.764ZM113.205 32.764C113.205 29.4229 111.478 27.2262 108.844 27.2262C106.255 27.2262 104.514 29.4691 104.514 32.764C104.514 36.0892 106.255 38.316 108.844 38.316C111.478 38.316 113.205 36.1354 113.205 32.764H113.205Z" fill="white"/>
<path d="M128.689 34.704C128.94 36.9487 131.12 38.4225 134.1 38.4225C136.955 38.4225 139.01 36.9486 139.01 34.9247C139.01 33.1677 137.771 32.1157 134.837 31.3948L131.904 30.6881C127.747 29.6842 125.818 27.7403 125.818 24.5861C125.818 20.6806 129.221 17.998 134.052 17.998C138.837 17.998 142.116 20.6806 142.226 24.5861H138.807C138.602 22.3272 136.735 20.9636 134.006 20.9636C131.277 20.9636 129.41 22.3432 129.41 24.3511C129.41 25.9514 130.602 26.893 133.52 27.6139L136.014 28.2262C140.658 29.3245 142.586 31.1901 142.586 34.5009C142.586 38.7357 139.214 41.388 133.849 41.388C128.829 41.388 125.44 38.798 125.221 34.7038L128.689 34.704Z" fill="white"/>
<path d="M149.9 20.6016V24.507H153.038V27.1896H149.9V36.2875C149.9 37.7008 150.528 38.3594 151.908 38.3594C152.281 38.353 152.653 38.3268 153.022 38.2811V40.9476C152.402 41.0635 151.772 41.116 151.141 41.1042C147.8 41.1042 146.497 39.8493 146.497 36.6487V27.1896H144.097V24.507H146.497V20.6016H149.9Z" fill="white"/>
<path d="M154.854 32.758C154.854 27.5656 157.912 24.3027 162.681 24.3027C167.466 24.3027 170.51 27.5655 170.51 32.758C170.51 37.9647 167.482 41.2133 162.681 41.2133C157.882 41.2133 154.854 37.9647 154.854 32.758ZM167.058 32.758C167.058 29.1961 165.426 27.0939 162.681 27.0939C159.936 27.0939 158.304 29.2121 158.304 32.758C158.304 36.3342 159.936 38.4204 162.681 38.4204C165.426 38.4204 167.058 36.3341 167.058 32.758Z" fill="white"/>
<path d="M173.302 24.5115H176.533V27.3204H176.611C176.83 26.4431 177.344 25.6678 178.067 25.1249C178.79 24.5819 179.678 24.3043 180.581 24.3388C180.971 24.3374 181.361 24.3798 181.742 24.4652V27.6337C181.249 27.4831 180.735 27.414 180.22 27.429C179.727 27.409 179.237 27.4958 178.781 27.6833C178.326 27.8709 177.917 28.1548 177.581 28.5155C177.246 28.8762 176.993 29.3052 176.839 29.773C176.685 30.2409 176.634 30.7365 176.69 31.2259V41.0144H173.302V24.5115Z" fill="white"/>
<path d="M197.36 36.1615C196.904 39.1573 193.987 41.2133 190.254 41.2133C185.453 41.2133 182.473 37.9967 182.473 32.8363C182.473 27.6599 185.469 24.3027 190.111 24.3027C194.677 24.3027 197.548 27.4392 197.548 32.443V33.6036H185.893V33.8083C185.839 34.4156 185.915 35.0275 186.116 35.6032C186.317 36.1789 186.638 36.7053 187.057 37.1474C187.477 37.5895 187.987 37.9372 188.551 38.1674C189.116 38.3977 189.723 38.5051 190.332 38.4827C191.133 38.5577 191.936 38.3723 192.623 37.9541C193.309 37.5359 193.843 36.9072 194.143 36.1615L197.36 36.1615ZM185.909 31.2361H194.159C194.19 30.69 194.107 30.1435 193.916 29.6309C193.725 29.1183 193.43 28.6507 193.05 28.2574C192.67 27.8641 192.213 27.5536 191.707 27.3454C191.201 27.1372 190.658 27.0358 190.111 27.0476C189.56 27.0443 189.013 27.1503 188.502 27.3594C187.992 27.5686 187.528 27.8768 187.137 28.2662C186.747 28.6556 186.437 29.1185 186.226 29.6282C186.015 30.138 185.907 30.6844 185.909 31.2361Z" fill="white"/>
<path d="M200.482 33.3568V30.2969H210.773V33.3568H200.482Z" fill="white"/>
<path d="M213.707 32.7577C213.707 27.6596 216.514 24.3327 220.608 24.3327C221.658 24.2804 222.702 24.5267 223.618 25.0431C224.534 25.5594 225.285 26.3247 225.784 27.2502H225.848V18.373H229.252V41.0083H225.957V38.2013H225.895C225.393 39.146 224.632 39.9281 223.701 40.4559C222.77 40.9836 221.708 41.2352 220.64 41.1811C216.514 41.1809 213.707 37.8558 213.707 32.7577ZM217.172 32.7577C217.172 36.1452 218.899 38.3097 221.533 38.3097C224.138 38.3097 225.879 36.1131 225.879 32.7577C225.879 29.4308 224.138 27.2199 221.533 27.2199C218.899 27.2199 217.172 29.4005 217.172 32.7577H217.172Z" fill="white"/>
<path d="M232.233 36.3182C232.233 33.4328 234.444 31.6901 238.368 31.455L242.885 31.204V29.9491C242.885 28.1138 241.677 27.0778 239.621 27.0778C238.859 26.9766 238.087 27.1567 237.449 27.5844C236.811 28.0121 236.351 28.658 236.155 29.4008H232.986C233.081 26.4192 235.858 24.3027 239.715 24.3027C243.653 24.3027 246.257 26.4513 246.257 29.6982V41.0087H243.01V38.2941H242.932C242.412 39.2146 241.654 39.9784 240.738 40.5057C239.821 41.0331 238.78 41.3045 237.723 41.2917C237.029 41.3596 236.328 41.2816 235.666 41.0627C235.003 40.8437 234.394 40.4886 233.877 40.0203C233.36 39.5519 232.947 38.9806 232.664 38.3431C232.381 37.7055 232.234 37.0158 232.233 36.3182ZM242.885 34.8283V33.5573L238.821 33.8083C236.797 33.9347 235.653 34.8123 235.653 36.2239C235.653 37.6675 236.846 38.6092 238.665 38.6092C239.192 38.6449 239.72 38.5748 240.22 38.403C240.719 38.2312 241.179 37.9611 241.572 37.6087C241.966 37.2564 242.285 36.8288 242.51 36.3513C242.735 35.8738 242.863 35.3559 242.885 34.8283Z" fill="white"/>
<path d="M249.71 24.509H252.941V27.3179H253.019C253.478 26.3504 254.221 25.5456 255.148 25.0105C256.076 24.4753 257.144 24.2352 258.212 24.3221C261.852 24.3221 263.938 26.6593 263.938 30.4384V41.0119H260.535V31.0969C260.535 28.6191 259.388 27.2395 257.005 27.2395C256.457 27.2257 255.912 27.3296 255.407 27.5441C254.903 27.7587 254.45 28.079 254.08 28.4833C253.709 28.8877 253.43 29.3668 253.261 29.8883C253.091 30.4098 253.036 30.9615 253.097 31.5063V41.0119H249.71V24.509Z" fill="white"/>
</svg>
