<svg width="76" height="76" viewBox="0 0 76 76" fill="none" xmlns="http://www.w3.org/2000/svg">
<rect x="4.95898" y="16" width="68.0401" height="12.3784" rx="6.1892" fill="#FF4A3B" stroke="#141414" style="fill:#FF4A3B;fill:color(display-p3 1.0000 0.2906 0.2308);fill-opacity:1;stroke:#141414;stroke:color(display-p3 0.0784 0.0784 0.0784);stroke-opacity:1;" stroke-width="2"/>
<path d="M8.67981 21.3828H68.7928" stroke="#141414" style="stroke:#141414;stroke:color(display-p3 0.0784 0.0784 0.0784);stroke-opacity:1;" stroke-width="2" stroke-linecap="round"/>
<path d="M66.7992 21.9531H12.6775C12.2568 21.9531 11.8558 22.0809 11.5473 22.3669C9.16756 24.5741 -1.04745 36.0888 2.89535 68.2417C3.06033 69.5871 4.51889 70.3555 5.72446 69.736L9.38441 67.855C9.95022 67.5643 10.6216 67.5643 11.1874 67.855L16.4085 70.5383C16.9743 70.8291 17.6456 70.8291 18.2115 70.5383L23.4326 67.855C23.9984 67.5643 24.6698 67.5643 25.2356 67.855L30.4567 70.5383C31.0225 70.8291 31.6938 70.8291 32.2597 70.5383L37.4808 67.855C38.0466 67.5643 38.7179 67.5643 39.2838 67.855L44.5049 70.5383C45.0707 70.8291 45.742 70.8291 46.3079 70.5383L51.529 67.855C52.0948 67.5643 52.7661 67.5643 53.332 67.855L56.1138 69.2847C57.5274 70.0111 59.1811 68.8484 59.0125 67.268C55.163 31.1793 66.7992 21.9531 66.7992 21.9531Z" fill="white" stroke="#141414" style="fill:white;fill-opacity:1;stroke:#141414;stroke:color(display-p3 0.0784 0.0784 0.0784);stroke-opacity:1;" stroke-width="2" stroke-linejoin="round"/>
<path d="M9.74426 37.8594H48.2235" stroke="#141414" style="stroke:#141414;stroke:color(display-p3 0.0784 0.0784 0.0784);stroke-opacity:1;" stroke-width="2" stroke-linecap="round" stroke-linejoin="round"/>
<path d="M8.41223 44.4863H38.9302" stroke="#141414" style="stroke:#141414;stroke:color(display-p3 0.0784 0.0784 0.0784);stroke-opacity:1;" stroke-width="2" stroke-linecap="round" stroke-linejoin="round"/>
<path d="M36.28 60.3906L50.8756 60.3906" stroke="#141414" style="stroke:#141414;stroke:color(display-p3 0.0784 0.0784 0.0784);stroke-opacity:1;" stroke-width="2" stroke-linecap="round" stroke-linejoin="round"/>
<path d="M12.3983 31.2305H42.9163" stroke="#141414" style="stroke:#141414;stroke:color(display-p3 0.0784 0.0784 0.0784);stroke-opacity:1;" stroke-width="2" stroke-linecap="round" stroke-linejoin="round"/>
</svg>
