<svg width="1432" height="760" viewBox="0 0 1432 760" fill="none" xmlns="http://www.w3.org/2000/svg">
<g style="mix-blend-mode:multiply">
<mask id="mask0_13010_10045" style="mask-type:luminance" maskUnits="userSpaceOnUse" x="394" y="633" width="579" height="88">
<path d="M394.312 671.637L670.647 720.509L972.269 683.637L855.003 644.956L488.104 633.471L394.312 671.637Z" fill="white" style="fill:white;fill-opacity:1;"/>
</mask>
<g mask="url(#mask0_13010_10045)">
<path d="M322.296 660.344L625.731 707.181C636.718 708.875 647.872 709.236 658.948 708.248L875.795 688.937C877.939 688.745 877.949 685.618 875.805 685.415L507.457 650.277L322.429 657.934C320.962 657.993 320.843 660.122 322.296 660.344Z" fill="#231F20" style="fill:#231F20;fill:color(display-p3 0.1373 0.1216 0.1255);fill-opacity:1;"/>
</g>
</g>
<mask id="mask1_13010_10045" style="mask-type:alpha" maskUnits="userSpaceOnUse" x="403" y="265" width="508" height="460">
<g style="mix-blend-mode:color-dodge">
<path d="M403 450.848C403 398.844 426.802 349.701 467.606 317.461L534 265H740.218C836.713 265 913.861 345.225 910.088 441.647L899.387 715.116C899.172 720.592 894.59 724.875 889.112 724.721L403 711V644V450.848Z" fill="#74BEFF" style="fill:#74BEFF;fill:color(display-p3 0.4549 0.7451 1.0000);fill-opacity:1;"/>
</g>
</mask>
<g mask="url(#mask1_13010_10045)">
<path d="M863.594 446.225C863.594 446.225 868.682 446.798 869.255 450.048C869.714 452.657 869.438 461.178 869.309 464.438C869.27 465.402 869.383 466.36 869.65 467.284C869.991 468.45 870.549 470.065 871.355 471.364C871.957 472.338 872.313 473.444 872.313 474.59V504.141C872.313 504.141 870.93 508.731 863.594 508.731V446.235V446.225Z" fill="#58595B" stroke="black" style="fill:#58595B;fill:color(display-p3 0.3451 0.3490 0.3569);fill-opacity:1;stroke:black;stroke-opacity:1;" stroke-width="2" stroke-linecap="round" stroke-linejoin="round"/>
<path d="M436.201 639.75C436.201 640.258 436.196 640.762 436.187 641.261C435.895 656.61 431.227 669.148 424.879 670.012C424.721 670.037 424.563 670.052 424.4 670.057C424.256 670.062 424.113 670.062 423.975 670.057C423.93 670.057 423.886 670.052 423.836 670.052C423.53 670.032 423.239 669.992 422.942 669.928H422.937C422.839 669.908 422.74 669.889 422.641 669.864C415.824 668.155 411.477 655.701 411.477 639.75C411.477 628.229 414.055 618.206 417.869 613.004C419.158 611.236 420.591 610.035 422.107 609.507C422.671 609.314 423.249 609.21 423.832 609.21C430.659 609.21 436.191 622.884 436.191 639.745L436.201 639.75Z" fill="#FF0005" stroke="black" style="fill:#FF0005;fill:color(display-p3 1.0000 0.0000 0.0196);fill-opacity:1;stroke:black;stroke-opacity:1;" stroke-width="2" stroke-linecap="round" stroke-linejoin="round"/>
<path d="M447.063 658.038C444.845 665.141 441.536 669.261 437.272 669.39L424.883 670.012C431.226 669.148 435.899 656.6 436.186 641.251L447.063 658.038Z" fill="#202021" stroke="black" style="fill:#202021;fill:color(display-p3 0.1255 0.1255 0.1294);fill-opacity:1;stroke:black;stroke-opacity:1;" stroke-width="2" stroke-linecap="round" stroke-linejoin="round"/>
<path d="M422.947 669.933C422.655 670.037 422.369 670.111 422.072 670.155L420.867 670.215L405.503 670.985L405.469 610.149L415.932 610.006L416.683 611.167L417.868 612.994L433.172 636.608C433.217 637.685 433.242 638.776 433.242 639.883C433.242 655.069 428.963 667.873 422.937 669.928L422.947 669.933Z" fill="#202021" stroke="black" style="fill:#202021;fill:color(display-p3 0.1255 0.1255 0.1294);fill-opacity:1;stroke:black;stroke-opacity:1;" stroke-width="2" stroke-linecap="round" stroke-linejoin="round"/>
<path d="M590.15 693.127C589.75 693.265 589.345 693.369 588.935 693.428L587.265 693.512L565.924 694.554L565.875 612.328L580.409 612.135L581.451 613.706L583.101 616.176L604.363 648.088C604.427 649.541 604.461 651.018 604.461 652.515C604.461 673.04 598.514 690.345 590.145 693.122L590.15 693.127Z" fill="#202021" stroke="black" style="fill:#202021;fill:color(display-p3 0.1255 0.1255 0.1294);fill-opacity:1;stroke:black;stroke-opacity:1;" stroke-width="2" stroke-linecap="round" stroke-linejoin="round"/>
<path d="M750.229 683.019C749.893 683.133 749.557 683.222 749.217 683.271L747.824 683.34L730.039 684.21L730 615.682L742.113 615.524L742.982 616.833L744.356 618.893L762.076 645.49C762.13 646.7 762.159 647.93 762.159 649.18C762.159 666.283 757.205 680.707 750.229 683.024V683.019Z" fill="#272528" stroke="black" style="fill:#272528;fill:color(display-p3 0.1529 0.1451 0.1569);fill-opacity:1;stroke:black;stroke-opacity:1;" stroke-width="2" stroke-linecap="round" stroke-linejoin="round"/>
<path d="M743.805 650.079C743.805 669.074 737.694 684.733 729.494 684.215C729.024 684.185 728.565 684.116 728.116 684.002C720.221 682.076 715.188 668.051 715.188 650.079C715.188 631.085 721.595 615.682 729.499 615.682C737.403 615.682 743.81 631.08 743.81 650.079H743.805Z" fill="#414042" stroke="black" style="fill:#414042;fill:color(display-p3 0.2549 0.2510 0.2588);fill-opacity:1;stroke:black;stroke-opacity:1;" stroke-width="2" stroke-linecap="round" stroke-linejoin="round"/>
<path d="M384.344 654.283V663.437H401.886C401.886 663.437 390.761 617.999 413.381 616.131C413.381 616.131 412.062 603.376 401.313 602.655C390.564 601.939 383.287 631.361 384.344 654.278V654.283Z" fill="#202021" stroke="black" style="fill:#202021;fill:color(display-p3 0.1255 0.1255 0.1294);fill-opacity:1;stroke:black;stroke-opacity:1;" stroke-width="2" stroke-linecap="round" stroke-linejoin="round"/>
<path d="M541.342 669.523C541.342 669.523 541.599 674.854 541.979 677.437L553.544 676.958C553.544 676.958 546.85 644.591 558.706 627.933C570.562 611.276 575.725 620.01 575.725 620.01C575.725 620.01 572.889 605.19 558.533 604.616C544.178 604.043 534.49 633.995 541.342 669.523Z" fill="#202021" stroke="black" style="fill:#202021;fill:color(display-p3 0.1255 0.1255 0.1294);fill-opacity:1;stroke:black;stroke-opacity:1;" stroke-width="2" stroke-linecap="round" stroke-linejoin="round"/>
<path d="M650.722 386.001C646.015 386.297 641.341 387.033 636.757 388.219C586.611 401.216 385.552 453.314 356.569 460.679C354.618 461.178 352.909 462.349 351.748 463.994C350.034 466.429 347.356 470.391 344.723 474.966C344.501 475.356 344.298 475.751 344.12 476.166C343.434 477.722 343.078 479.422 343.078 481.136V634.049C343.078 636.326 344.2 638.465 346.072 639.765L363.347 651.719L389.391 654.901C389.109 651.734 388.986 648.661 388.986 645.243C388.986 622.968 395.343 604.913 403.193 604.913C411.043 604.913 417.401 622.968 417.401 645.243C417.401 648.528 417.262 651.719 417 654.772L541.351 669.523C541.351 669.523 534.736 611.883 558.942 607.037C584.121 602.003 583.38 672.966 583.38 672.966L648.075 681.503L845.552 667.429C848.254 667.241 850.931 666.796 853.554 666.105L863.395 663.516C865.564 662.948 867.09 661.012 867.135 658.769C867.367 647.58 867.945 613.889 867.051 589.297L863.607 580.796V427.374C863.607 427.374 863.607 414.915 844.307 411.719L844.094 411.689C834.066 410.148 711.786 390.679 662.084 386.159C658.3 385.813 654.511 385.764 650.732 385.996" fill="#FF0005" style="fill:#FF0005;fill:color(display-p3 1.0000 0.0000 0.0196);fill-opacity:1;"/>
<path d="M650.722 386.001C646.015 386.297 641.341 387.033 636.757 388.219C586.611 401.216 385.552 453.314 356.569 460.679C354.618 461.178 352.909 462.349 351.748 463.994C350.034 466.429 347.356 470.391 344.723 474.966C344.501 475.356 344.298 475.751 344.12 476.166C343.434 477.722 343.078 479.422 343.078 481.136V634.049C343.078 636.326 344.2 638.465 346.072 639.765L363.347 651.719L389.391 654.901C389.109 651.734 388.986 648.661 388.986 645.243C388.986 622.968 395.343 604.913 403.193 604.913C411.043 604.913 417.401 622.968 417.401 645.243C417.401 648.528 417.262 651.719 417 654.772L541.351 669.523C541.351 669.523 534.736 611.883 558.942 607.037C584.121 602.003 583.38 672.966 583.38 672.966L648.075 681.503L845.552 667.429C848.254 667.241 850.931 666.796 853.554 666.105L863.395 663.516C865.564 662.948 867.09 661.012 867.135 658.769C867.367 647.58 867.945 613.889 867.051 589.297L863.607 580.796V427.374C863.607 427.374 863.607 414.915 844.307 411.719L844.094 411.689C834.066 410.148 711.786 390.679 662.084 386.159C658.3 385.813 654.511 385.764 650.732 385.996" stroke="black" style="stroke:black;stroke-opacity:1;" stroke-width="2" stroke-linecap="round" stroke-linejoin="round"/>
<path d="M863.868 624.979C863.848 628.121 862.361 631.07 859.847 632.967L839.193 648.484C835.814 651.023 831.748 652.5 827.524 652.727L722.218 658.349C719.155 658.512 716.097 658.013 713.242 656.882C704.503 653.424 688.122 646.764 678.232 642.733C673.203 640.683 669.76 635.971 669.32 630.561L666.016 589.307L705.798 601.143C708.895 602.062 712.106 602.512 715.337 602.477C734.04 602.255 801.826 601.376 835.463 599.938C837.4 599.854 839.301 599.459 841.105 598.757C844.982 597.251 852.822 594.119 863.784 589.307L863.824 591.184C863.997 598.856 863.913 616.359 863.858 624.984L863.868 624.979Z" fill="#939598" stroke="#241F20" style="fill:#939598;fill:color(display-p3 0.5765 0.5843 0.5961);fill-opacity:1;stroke:#241F20;stroke:color(display-p3 0.1412 0.1216 0.1255);stroke-opacity:1;" stroke-width="2" stroke-linecap="round" stroke-linejoin="round"/>
<path d="M863.867 624.974C863.847 628.116 862.361 631.065 859.846 632.962L839.192 648.479C835.813 651.018 831.747 652.495 827.524 652.722L722.217 658.344C719.154 658.507 716.097 658.008 713.241 656.877C704.502 653.419 688.121 646.76 678.231 642.729C673.202 640.678 669.759 635.966 669.32 630.556L666.766 598.659L676.053 601.272C677.179 601.588 678.162 602.275 678.849 603.223L688.047 615.929C688.838 617.021 689.929 617.856 691.194 618.325L711.082 625.765C712.421 626.263 713.844 626.496 715.272 626.436L838.258 621.62C839.345 621.575 840.407 621.279 841.361 620.745L852.826 614.304C853.967 613.662 854.837 612.629 855.272 611.399L860.315 597.147L863.882 594.726C863.981 603.357 863.912 617.505 863.862 624.984L863.867 624.974Z" fill="black" stroke="black" style="fill:black;fill-opacity:1;stroke:black;stroke-opacity:1;" stroke-width="2" stroke-miterlimit="10"/>
<path d="M659.211 652.011L718.985 676.424" stroke="black" style="stroke:black;stroke-opacity:1;" stroke-width="2" stroke-linecap="round" stroke-linejoin="round"/>
<path d="M664.789 654.288V666.678C664.789 669.731 667.353 672.161 670.406 671.998L703.731 670.19L664.794 654.288H664.789Z" fill="black" stroke="black" style="fill:black;fill-opacity:1;stroke:black;stroke-opacity:1;" stroke-width="2" stroke-linecap="round" stroke-linejoin="round"/>
<path d="M835.031 668.18L862.552 646.295" stroke="black" style="stroke:black;stroke-opacity:1;" stroke-width="2" stroke-linecap="round" stroke-linejoin="round"/>
<path d="M842.422 662.306L858.635 659.07C860.122 658.774 861.194 657.464 861.194 655.948V647.698L842.422 662.311V662.306Z" fill="black" stroke="black" style="fill:black;fill-opacity:1;stroke:black;stroke-opacity:1;" stroke-width="2" stroke-linecap="round" stroke-linejoin="round"/>
<path d="M702.398 652.53L704.809 670.635" stroke="black" style="stroke:black;stroke-opacity:1;" stroke-width="2" stroke-miterlimit="10"/>
<path d="M844.894 644.196L843.758 661.16" stroke="black" style="stroke:black;stroke-opacity:1;" stroke-width="2" stroke-miterlimit="10"/>
<path d="M693.086 597.354L696.173 607.526L698.09 620.893" stroke="black" style="stroke:black;stroke-opacity:1;" stroke-width="2" stroke-miterlimit="10"/>
<path d="M844.891 618.754L846.274 603.371V596.702" stroke="black" style="stroke:black;stroke-opacity:1;" stroke-width="2" stroke-miterlimit="10"/>
<path d="M844.086 411.689C676.16 389.563 656.059 384.959 650.279 391.697C648.116 394.226 648.071 406.102 648.071 406.102L344.117 476.161C344.295 475.751 344.498 475.356 344.72 474.961C347.353 470.386 350.03 466.425 351.745 463.989C352.905 462.344 354.62 461.173 356.566 460.674C385.549 453.309 586.603 401.211 636.754 388.214C645.013 386.075 653.574 385.389 662.071 386.159C711.773 390.679 834.058 410.148 844.081 411.689H844.086Z" fill="#FF0005" stroke="black" style="fill:#FF0005;fill:color(display-p3 1.0000 0.0000 0.0196);fill-opacity:1;stroke:black;stroke-opacity:1;" stroke-width="2" stroke-linecap="round" stroke-linejoin="round"/>
<path d="M349.711 474.867V545.568C349.711 547.949 349.968 550.325 350.477 552.652L353.278 565.486C353.88 568.253 356.38 570.189 359.211 570.085L601.587 561.09V416.817L349.711 474.867Z" fill="#202328" stroke="black" style="fill:#202328;fill:color(display-p3 0.1255 0.1373 0.1569);fill-opacity:1;stroke:black;stroke-opacity:1;" stroke-width="2" stroke-linecap="round" stroke-linejoin="round"/>
<path d="M363.516 471.686V543.37C363.516 545.578 365.398 547.312 367.601 547.134L380.312 546.092C381.749 545.973 383.182 546.374 384.358 547.218L413.301 568.075L425.76 567.551V457.345L363.516 471.686Z" stroke="black" style="stroke:black;stroke-opacity:1;" stroke-width="2" stroke-linecap="round" stroke-linejoin="round"/>
<path d="M604.698 435.382L643.393 427.458C645.809 426.964 648.067 428.806 648.067 431.271V665.991C648.067 668.298 646.071 670.101 643.779 669.864L605.083 665.922C603.098 665.72 601.586 664.045 601.586 662.049V439.2C601.586 437.353 602.885 435.757 604.698 435.387V435.382Z" fill="black" stroke="black" style="fill:black;fill-opacity:1;stroke:black;stroke-opacity:1;" stroke-width="2" stroke-linecap="round" stroke-linejoin="round"/>
<path d="M604.461 448.379V653.503C604.461 654.634 605.325 655.583 606.457 655.681L642.81 658.887C644.09 659.001 645.186 657.993 645.186 656.709V441.473C645.186 440.104 643.942 439.072 642.593 439.324L606.239 446.23C605.207 446.427 604.461 447.326 604.461 448.379ZM639.96 648.839L609.361 646.523C608.22 646.439 607.341 645.485 607.341 644.344V455.675C607.341 454.618 608.097 453.709 609.139 453.526L639.738 448.033C641.076 447.791 642.311 448.823 642.311 450.182V646.656C642.311 647.926 641.229 648.933 639.96 648.835V648.839Z" fill="#00A846" style="fill:#00A846;fill:color(display-p3 0.0000 0.6588 0.2745);fill-opacity:1;"/>
<path d="M599.077 622.212V631.159C587.912 622.084 577.425 606.953 565.588 598.728C553.964 590.651 536.358 601.301 535.953 601.543C536.156 601.237 544.208 589.297 558.929 589.297C572.544 589.297 585.655 608.232 599.072 622.208L599.077 622.212Z" fill="white" style="fill:white;fill-opacity:1;"/>
<path d="M626.335 636.835C620.422 639.463 614.934 639.009 609.688 636.657V630.225C615.141 634.563 620.674 637.28 626.335 636.835Z" fill="white" style="fill:white;fill-opacity:1;"/>
<path d="M648.07 560.873C648.07 560.873 657.768 568.125 682.433 568.125C687.857 568.125 755.343 569.147 857.344 570.743C857.344 570.743 863.598 570.58 863.598 567.942V467.225L773.636 443.118L648.07 447.569V560.873Z" fill="#414042" stroke="black" style="fill:#414042;fill:color(display-p3 0.2549 0.2510 0.2588);fill-opacity:1;stroke:black;stroke-opacity:1;" stroke-width="2" stroke-linecap="round" stroke-linejoin="round"/>
<path d="M863.598 427.373V467.225C863.598 467.225 812.686 460.748 762.407 456.934C692.931 451.668 648.07 447.568 648.07 447.568V406.102C648.07 406.102 648.115 394.226 650.279 391.697C656.058 384.958 676.159 389.563 844.085 411.689C844.154 411.699 844.228 411.719 844.298 411.719C863.85 412.252 863.598 427.373 863.598 427.373Z" fill="#231F20" stroke="black" style="fill:#231F20;fill:color(display-p3 0.1373 0.1216 0.1255);fill-opacity:1;stroke:black;stroke-opacity:1;" stroke-width="2" stroke-miterlimit="10"/>
<path d="M680.503 440.129H665.465C663.073 440.129 661.133 442.068 661.133 444.461V480.523C661.133 482.916 663.073 484.856 665.465 484.856H680.503C682.895 484.856 684.835 482.916 684.835 480.523V444.461C684.835 442.068 682.895 440.129 680.503 440.129Z" fill="#58595B" stroke="black" style="fill:#58595B;fill:color(display-p3 0.3451 0.3490 0.3569);fill-opacity:1;stroke:black;stroke-opacity:1;" stroke-width="2" stroke-linecap="round" stroke-linejoin="round"/>
<path d="M648.07 435.036L664.886 428.905C665.84 428.559 666.867 429.246 666.744 430.155L666.235 433.929L679.938 433.46L678.338 420.823C677.646 415.784 671.807 412.652 666.442 414.441L648.07 420.561V435.036Z" fill="#58595B" stroke="black" style="fill:#58595B;fill:color(display-p3 0.3451 0.3490 0.3569);fill-opacity:1;stroke:black;stroke-opacity:1;" stroke-width="2" stroke-linecap="round" stroke-linejoin="round"/>
<path d="M677.344 433.83H668.625V440.129H677.344V433.83Z" fill="#353535" stroke="black" style="fill:#353535;fill:color(display-p3 0.2078 0.2078 0.2078);fill-opacity:1;stroke:black;stroke-opacity:1;" stroke-width="2" stroke-linecap="round" stroke-linejoin="round"/>
<path d="M417.4 640.688C417.4 657.553 412.124 671.45 405.04 670.99C404.635 670.965 404.239 670.901 403.849 670.802C397.032 669.093 392.68 656.639 392.68 640.688C392.68 623.823 398.213 610.154 405.04 610.154C411.867 610.154 417.4 623.823 417.4 640.688Z" fill="#414042" stroke="black" style="fill:#414042;fill:color(display-p3 0.2549 0.2510 0.2588);fill-opacity:1;stroke:black;stroke-opacity:1;" stroke-width="2" stroke-linecap="round" stroke-linejoin="round"/>
<path d="M582.445 653.601C582.445 676.395 575.114 695.181 565.273 694.559C564.71 694.524 564.157 694.44 563.618 694.307C554.148 691.995 548.102 675.164 548.102 653.601C548.102 630.808 555.788 612.328 565.273 612.328C574.758 612.328 582.445 630.808 582.445 653.601Z" fill="#414042" stroke="black" style="fill:#414042;fill:color(display-p3 0.2549 0.2510 0.2588);fill-opacity:1;stroke:black;stroke-opacity:1;" stroke-width="2" stroke-linecap="round" stroke-linejoin="round"/>
<path d="M413.387 640.654C413.387 652.05 409.82 661.446 405.033 661.135C404.762 661.115 404.49 661.076 404.228 661.007C399.619 659.851 396.68 651.433 396.68 640.654C396.68 629.257 400.419 620.014 405.033 620.014C409.647 620.014 413.387 629.252 413.387 640.654Z" fill="#6D6E71" stroke="black" style="fill:#6D6E71;fill:color(display-p3 0.4275 0.4314 0.4431);fill-opacity:1;stroke:black;stroke-opacity:1;" stroke-width="2" stroke-linecap="round" stroke-linejoin="round"/>
<path d="M466.57 652.07L528.81 658.438C530.138 658.571 531.289 657.534 531.289 656.2V563.54" stroke="black" style="stroke:black;stroke-opacity:1;" stroke-width="2" stroke-linecap="round" stroke-linejoin="round"/>
<path d="M601.59 448.087L363.516 493.006V471.685L601.59 416.817V448.087Z" fill="#202328" stroke="black" style="fill:#202328;fill:color(display-p3 0.1255 0.1373 0.1569);fill-opacity:1;stroke:black;stroke-opacity:1;" stroke-width="2" stroke-linecap="round" stroke-linejoin="round"/>
<path d="M863.791 589.302C852.829 594.114 844.989 597.246 841.111 598.752C839.303 599.454 837.406 599.854 835.47 599.933C801.833 601.371 734.041 602.25 715.343 602.472C712.108 602.507 708.902 602.062 705.804 601.138L666.022 589.302H666.017L648.07 579.21V560.872C648.07 560.872 657.763 568.129 682.428 568.129C687.857 568.129 755.343 569.152 857.344 570.747C857.344 570.747 863.598 570.58 863.598 567.946V580.8L863.603 580.815L863.786 589.302H863.791Z" fill="#241F20" stroke="#241F20" style="fill:#241F20;fill:color(display-p3 0.1412 0.1216 0.1255);fill-opacity:1;stroke:#241F20;stroke:color(display-p3 0.1412 0.1216 0.1255);stroke-opacity:1;" stroke-width="2" stroke-miterlimit="10"/>
<path d="M577.536 654.189C577.536 668.239 572.576 679.818 565.926 679.433C565.546 679.413 565.171 679.359 564.805 679.275C558.398 677.847 554.312 667.478 554.312 654.184C554.312 640.135 559.509 628.743 565.922 628.743C572.334 628.743 577.531 640.135 577.531 654.184L577.536 654.189Z" fill="#6D6E71" stroke="black" style="fill:#6D6E71;fill:color(display-p3 0.4275 0.4314 0.4431);fill-opacity:1;stroke:black;stroke-opacity:1;" stroke-width="2" stroke-linecap="round" stroke-linejoin="round"/>
<path d="M570.552 654.165C570.552 664.455 566.922 672.937 562.046 672.655C561.769 672.64 561.492 672.601 561.226 672.541C556.533 671.499 553.539 663.896 553.539 654.165C553.539 643.875 557.348 635.531 562.046 635.531C566.744 635.531 570.552 643.875 570.552 654.165Z" fill="#939598" stroke="black" style="fill:#939598;fill:color(display-p3 0.5765 0.5843 0.5961);fill-opacity:1;stroke:black;stroke-opacity:1;" stroke-width="2" stroke-linecap="round" stroke-linejoin="round"/>
<path d="M565.722 654.135C565.722 660.453 563.82 665.665 561.271 665.492C561.123 665.482 560.98 665.458 560.841 665.423C558.386 664.781 556.82 660.117 556.82 654.135C556.82 647.817 558.811 642.694 561.271 642.694C563.731 642.694 565.722 647.817 565.722 654.135Z" fill="#6D6D6D" stroke="black" style="fill:#6D6D6D;fill:color(display-p3 0.4275 0.4275 0.4275);fill-opacity:1;stroke:black;stroke-opacity:1;" stroke-width="2" stroke-linecap="round" stroke-linejoin="round"/>
<path d="M393.904 433.722L382.977 453.897L569.951 405.529L511.753 398.134C506.195 397.427 500.554 397.882 495.179 399.473L402.267 426.949C398.686 428.006 395.677 430.446 393.899 433.727L393.904 433.722Z" fill="white" stroke="black" style="fill:white;fill-opacity:1;stroke:black;stroke-opacity:1;" stroke-width="2" stroke-linecap="round" stroke-linejoin="round"/>
<path d="M501.031 400.5L512.122 420.482" stroke="black" style="stroke:black;stroke-opacity:1;" stroke-width="2" stroke-linecap="round" stroke-linejoin="round"/>
<path d="M425.763 473.741V645.767C425.763 646.834 426.568 647.733 427.63 647.846L468.716 652.278C469.956 652.411 471.033 651.443 471.033 650.198V465.328C471.033 464.004 469.818 463.011 468.519 463.278L427.432 471.69C426.459 471.888 425.758 472.748 425.758 473.741H425.763Z" fill="black" stroke="black" style="fill:black;fill-opacity:1;stroke:black;stroke-opacity:1;" stroke-width="2" stroke-linecap="round" stroke-linejoin="round"/>
<path d="M450.637 475.795C450.02 475.914 449.57 476.452 449.57 477.085V482.143V635.684V640.649C449.57 641.33 450.089 641.898 450.766 641.958L466.727 643.366C467.493 643.435 468.155 642.827 468.155 642.056V474.052C468.155 473.227 467.404 472.609 466.599 472.762L450.637 475.795ZM464.153 635.516L453.369 634.706C452.683 634.656 452.154 634.083 452.154 633.397V481.723H452.129L464.015 479.594C464.82 479.451 465.561 480.068 465.561 480.888V634.212C465.561 634.977 464.914 635.58 464.148 635.521L464.153 635.516Z" fill="#FF0005" style="fill:#FF0005;fill:color(display-p3 1.0000 0.0000 0.0196);fill-opacity:1;"/>
<path d="M429.836 640.115L444.676 641.424C445.442 641.493 446.104 640.886 446.104 640.115V634.162V482.815V478.241C446.104 477.416 445.353 476.798 444.547 476.951L429.708 479.772C429.09 479.891 428.641 480.429 428.641 481.061V638.806C428.641 639.488 429.159 640.056 429.836 640.115ZM432.311 485.29L441.969 483.556C442.774 483.413 443.515 484.03 443.515 484.85V632.557C443.515 633.323 442.868 633.925 442.107 633.866L432.449 633.14C431.763 633.09 431.234 632.517 431.234 631.831V486.584C431.234 485.947 431.689 485.404 432.316 485.29H432.311Z" fill="#FF0005" style="fill:#FF0005;fill:color(display-p3 1.0000 0.0000 0.0196);fill-opacity:1;"/>
<path d="M678.744 620.894C681.48 620.894 683.699 618.675 683.699 615.939C683.699 613.202 681.48 610.984 678.744 610.984C676.007 610.984 673.789 613.202 673.789 615.939C673.789 618.675 676.007 620.894 678.744 620.894Z" fill="white" stroke="black" style="fill:white;fill-opacity:1;stroke:black;stroke-opacity:1;" stroke-width="2" stroke-linecap="round" stroke-linejoin="round"/>
<path d="M681.736 635.308C684.473 635.308 686.691 633.09 686.691 630.354C686.691 627.617 684.473 625.399 681.736 625.399C679 625.399 676.781 627.617 676.781 630.354C676.781 633.09 679 635.308 681.736 635.308Z" fill="white" stroke="black" style="fill:white;fill-opacity:1;stroke:black;stroke-opacity:1;" stroke-width="2" stroke-linecap="round" stroke-linejoin="round"/>
<path d="M863.112 608.731C863.112 611.468 860.894 613.686 858.157 613.686C856.863 613.686 855.692 613.192 854.812 612.382C854.98 612.091 855.139 611.765 855.267 611.394C855.692 610.189 856.922 606.706 857.959 603.787C858.024 603.782 858.093 603.782 858.157 603.782C860.894 603.782 863.112 606 863.112 608.736V608.731Z" fill="white" stroke="black" style="fill:white;fill-opacity:1;stroke:black;stroke-opacity:1;" stroke-width="2" stroke-linecap="round" stroke-linejoin="round"/>
<path d="M858.635 628.101C861.371 628.101 863.589 625.883 863.589 623.146C863.589 620.41 861.371 618.191 858.635 618.191C855.898 618.191 853.68 620.41 853.68 623.146C853.68 625.883 855.898 628.101 858.635 628.101Z" fill="white" stroke="black" style="fill:white;fill-opacity:1;stroke:black;stroke-opacity:1;" stroke-width="2" stroke-linecap="round" stroke-linejoin="round"/>
<path d="M531.289 433.04V563.545" stroke="black" style="stroke:black;stroke-opacity:1;" stroke-width="2" stroke-linecap="round" stroke-linejoin="round"/>
</g>
</svg>
