<svg width="216" height="118" viewBox="0 0 216 118" fill="none" xmlns="http://www.w3.org/2000/svg">
<g clip-path="url(#clip0_11588_14458)">
<path d="M29.9299 74.6385C33.9296 79.942 39.4346 80.4998 44.6131 78.739C52.7282 84.6143 57.8934 78.4605 64.2399 75.1183C70.1005 72.8073 76.2073 77.4453 79.5212 81.8895C79.2874 78.7814 79.5699 76.3463 80.5768 73.5065C75.001 63.4486 68.1365 44.7993 47.4329 50.127C36.5892 52.9157 24.1636 53.4152 7.07953 48.3271C6.09479 47.7524 4.86566 48.6126 5.0844 49.7269C5.54555 52.0691 6.41222 56.1226 12.1245 60.1696C23.5574 68.2631 37.097 61.1325 37.097 61.1325C37.097 61.1325 30.0967 66.8283 15.3412 64.7937C14.7533 64.7109 14.2074 65.3093 14.4813 65.8344C18.9496 74.5431 25.6571 74.7536 29.9294 74.6303L29.9299 74.6385Z" fill="white" stroke="black" style="fill:white;fill-opacity:1;stroke:black;stroke-opacity:1;" stroke-width="2" stroke-linecap="round" stroke-linejoin="round"/>
<path d="M57.048 69.8034C53.3 74.8085 48.8467 77.0239 44.3761 78.9599" stroke="black" style="stroke:black;stroke-opacity:1;" stroke-width="2" stroke-linecap="round" stroke-linejoin="round"/>
<path d="M29.9622 74.646C33.7254 74.1218 37.2871 72.7637 40.4151 71.2545C44.6666 69.2066 48.4185 65.1353 48.4185 65.1353" stroke="black" style="stroke:black;stroke-opacity:1;" stroke-width="2" stroke-linecap="round" stroke-linejoin="round"/>
<path d="M96.7492 67.4904C97.7684 36.481 140.935 43.1348 136.127 72.0113C135.627 75.0166 134.601 77.9157 133.199 80.6176C124.294 97.776 117.391 103.744 115.73 114.734C115.527 116.091 113.881 116.641 112.921 115.683C109.808 112.575 104.182 107.322 98.5872 103.893C90.2211 98.7607 66.3406 85.2133 75.3984 66.3244C80.113 56.4957 90.8805 53.5053 98.1387 58.6424" fill="#03EDC3" style="fill:#03EDC3;fill:color(display-p3 0.0116 0.9292 0.7640);fill-opacity:1;"/>
<path d="M96.7492 67.4904C97.7684 36.481 140.935 43.1348 136.127 72.0113C135.627 75.0166 134.601 77.9157 133.199 80.6176C124.294 97.776 117.391 103.744 115.73 114.734C115.527 116.091 113.881 116.641 112.921 115.683C109.808 112.575 104.182 107.322 98.5872 103.893C90.2211 98.7607 66.3406 85.2133 75.3984 66.3244C80.113 56.4957 90.8805 53.5053 98.1387 58.6424" stroke="black" style="stroke:black;stroke-opacity:1;" stroke-width="2" stroke-linecap="round" stroke-linejoin="round"/>
<path d="M95.5879 58.0776L101.049 60.4093L102.603 70.7087L92.717 72.1363L95.5879 58.0776Z" fill="#03EDC3" style="fill:#03EDC3;fill:color(display-p3 0.0116 0.9292 0.7640);fill-opacity:1;"/>
<path d="M187.144 41.3959C184.142 49.1409 177.738 51.7489 170.953 51.452C163.216 61.327 154.976 55.7757 146.265 53.9935C138.487 53.2863 132.694 60.9002 130.217 67.3783C129.513 63.3562 128.354 59.3657 126.796 56.3077C130.097 42.3175 131.439 19.0727 157.993 18.1928C171.889 17.7323 186.933 13.9712 205.656 1.90222C206.643 0.874571 208.405 1.46664 208.511 2.87968C208.739 5.84025 209.057 11.002 203.589 17.8421C192.626 31.5331 174.04 27.7513 174.04 27.7513C174.04 27.7513 184.325 32.1109 201.288 24.516C201.964 24.2157 202.818 24.7353 202.67 25.4602C200.241 37.4537 192.293 40.0514 187.144 41.4049L187.144 41.3959Z" fill="white" stroke="black" style="fill:white;fill-opacity:1;stroke:black;stroke-opacity:1;" stroke-width="2" stroke-linecap="round" stroke-linejoin="round"/>
<path d="M153.172 45.0547C159.324 49.713 165.374 50.7987 171.366 51.5368" stroke="black" style="stroke:black;stroke-opacity:1;" stroke-width="2" stroke-linecap="round" stroke-linejoin="round"/>
<path d="M187.117 41.4366C182.439 42.1192 177.74 41.7437 173.495 41.0404C167.74 40.0824 161.889 36.5449 161.889 36.5449" stroke="black" style="stroke:black;stroke-opacity:1;" stroke-width="2" stroke-linecap="round" stroke-linejoin="round"/>
<path d="M124.949 52.7852C127.642 58.4786 129.681 63.5967 130.476 70.391" stroke="black" style="stroke:black;stroke-opacity:1;" stroke-width="2" stroke-linecap="round" stroke-linejoin="round"/>
</g>
<defs>
<clipPath id="clip0_11588_14458">
<rect width="216" height="118" fill="white" style="fill:white;fill-opacity:1;"/>
</clipPath>
</defs>
</svg>
