<svg width="1432" height="760" viewBox="0 0 1432 760" fill="none" xmlns="http://www.w3.org/2000/svg">
<g clip-path="url(#clip0_13010_10117)">
<path d="M640.732 594.946C638.268 598.347 636.797 602.146 635.999 605.993C634.957 610.939 635.025 615.942 635.483 620.149C636.174 626.474 637.732 631.041 637.732 631.041C590.213 635.015 566.293 655.156 566.293 655.156C565.776 650.871 565.484 646.304 565.786 641.456C566.254 633.722 568.211 625.279 573.188 616.078C576.753 609.452 581.886 602.437 589.122 595.034C616.792 577.166 640.742 594.956 640.742 594.956L640.732 594.946Z" fill="#E6D0E9" stroke="black" style="fill:#E6D0E9;fill:color(display-p3 0.9020 0.8157 0.9137);fill-opacity:1;stroke:black;stroke-opacity:1;" stroke-width="2" stroke-linecap="round" stroke-linejoin="round"/>
<path d="M637.732 631.031C629.347 631.731 621.701 632.945 614.786 634.461C606.692 636.21 599.612 638.396 593.534 640.679C575.399 647.49 566.293 655.146 566.293 655.146C565.776 650.861 565.484 646.295 565.786 641.446C569.185 639.707 579.227 634.791 592.697 630.05C599.105 627.796 606.303 625.58 613.919 623.773C620.844 622.141 628.119 620.829 635.483 620.13C636.174 626.455 637.732 631.021 637.732 631.021V631.031Z" fill="#D580CC" stroke="black" style="fill:#D580CC;fill:color(display-p3 0.8353 0.5020 0.8000);fill-opacity:1;stroke:black;stroke-opacity:1;" stroke-width="2" stroke-linecap="round" stroke-linejoin="round"/>
<path d="M613.92 623.783C613.871 624.327 613.618 627.873 614.786 634.461C606.693 636.21 599.612 638.396 593.535 640.679C592.288 633.557 592.697 630.059 592.697 630.059C599.106 627.805 606.303 625.59 613.92 623.783Z" fill="white" stroke="black" style="fill:white;fill-opacity:1;stroke:black;stroke-opacity:1;" stroke-width="2" stroke-linecap="round" stroke-linejoin="round"/>
<path d="M718.399 573.688C718.399 573.688 687.972 586.095 671.697 620.985C671.697 620.985 667.918 616.02 661.402 609.938C657.146 605.954 651.702 601.475 645.391 597.599C630.265 588.31 610.133 582.471 589.125 595.014C594.716 589.301 601.533 583.831 609.909 578.74C640.248 560.328 666.993 558.803 686.326 561.99C697.332 563.816 705.942 567.168 711.444 569.821C715.954 571.978 718.399 573.668 718.399 573.668V573.688Z" fill="white" stroke="black" style="fill:white;fill-opacity:1;stroke:black;stroke-opacity:1;" stroke-width="2" stroke-linecap="round" stroke-linejoin="round"/>
<path d="M679.358 588.767C683.166 591.274 686.02 594.256 687.88 596.559C682.027 603.059 676.281 611.114 671.693 620.985C671.693 620.985 667.914 616.02 661.398 609.938C661.398 609.938 667.203 599.561 679.358 588.757V588.767Z" fill="#D580CC" stroke="black" style="fill:#D580CC;fill:color(display-p3 0.8353 0.5020 0.8000);fill-opacity:1;stroke:black;stroke-opacity:1;" stroke-width="2" stroke-linecap="round" stroke-linejoin="round"/>
<path d="M718.398 573.688C718.398 573.688 712.437 576.126 704.373 581.869C701.84 579.235 699.065 577.448 696.922 576.301C701.324 573.872 706.174 571.657 711.444 569.84C715.953 571.997 718.398 573.688 718.398 573.688Z" fill="#D580CC" stroke="black" style="fill:#D580CC;fill:color(display-p3 0.8353 0.5020 0.8000);fill-opacity:1;stroke:black;stroke-opacity:1;" stroke-width="2" stroke-linecap="round" stroke-linejoin="round"/>
<path d="M686.326 562.009C657.857 575.913 645.391 597.608 645.391 597.608C630.265 588.32 610.133 582.481 589.125 595.024C594.716 589.311 601.533 583.841 609.909 578.75C640.248 560.338 666.993 558.813 686.326 562V562.009Z" fill="#E6D0E9" stroke="black" style="fill:#E6D0E9;fill:color(display-p3 0.9020 0.8157 0.9137);fill-opacity:1;stroke:black;stroke-opacity:1;" stroke-width="2" stroke-linecap="round" stroke-linejoin="round"/>
<path d="M579.578 626.28C579.578 626.28 590.876 623.2 595.23 619.148C599.583 615.097 599.418 606.226 585.13 610.453" stroke="black" style="stroke:black;stroke-opacity:1;" stroke-width="2" stroke-linecap="round" stroke-linejoin="round"/>
<path d="M587.031 616.71C587.031 616.71 596.099 613.795 601.29 613.649" stroke="black" style="stroke:black;stroke-opacity:1;" stroke-width="2" stroke-linecap="round" stroke-linejoin="round"/>
<path d="M722.929 404.116C719.929 404.33 717.154 405.272 714.68 406.603C711.476 408.303 708.758 410.645 706.645 412.831C703.479 416.115 701.687 419.069 701.687 419.069C677.65 394.866 655.57 391.019 655.57 391.019C657.694 388.765 660.07 386.501 662.875 384.441C667.345 381.138 672.897 378.34 680.241 376.824C685.529 375.736 691.743 375.318 699.155 375.872C721.712 382.819 722.929 404.116 722.929 404.116Z" fill="#AFE6F4" stroke="black" style="fill:#AFE6F4;fill:color(display-p3 0.6863 0.9020 0.9569);fill-opacity:1;stroke:black;stroke-opacity:1;" stroke-width="2" stroke-linecap="round" stroke-linejoin="round"/>
<path d="M701.687 419.059C697.441 414.784 693.262 411.15 689.25 408.061C684.565 404.427 680.104 401.551 676.062 399.277C663.976 392.476 655.57 391.009 655.57 391.009C657.694 388.755 660.07 386.491 662.875 384.432C665.398 385.491 672.722 388.736 681.517 393.934C685.705 396.411 690.224 399.336 694.723 402.678C698.804 405.719 702.866 409.1 706.645 412.821C703.479 416.105 701.687 419.059 701.687 419.059Z" fill="#4898D9" stroke="black" style="fill:#4898D9;fill:color(display-p3 0.2824 0.5961 0.8510);fill-opacity:1;stroke:black;stroke-opacity:1;" stroke-width="2" stroke-linecap="round" stroke-linejoin="round"/>
<path d="M694.733 402.688C694.412 402.911 692.337 404.398 689.25 408.07C684.565 404.436 680.104 401.561 676.062 399.287C679.403 395.333 681.526 393.953 681.526 393.953C685.714 396.431 690.234 399.355 694.733 402.697V402.688Z" fill="white" stroke="black" style="fill:white;fill-opacity:1;stroke:black;stroke-opacity:1;" stroke-width="2" stroke-linecap="round" stroke-linejoin="round"/>
<path d="M770.335 436.888C770.335 436.888 749.512 425.928 722.825 433.05C722.825 433.05 723.819 428.697 724.169 422.333C724.403 418.165 724.374 413.132 723.595 407.886C721.754 395.333 715.715 381.614 699.148 375.872C704.866 376.309 711.011 377.524 717.663 379.778C741.749 387.939 754.878 401.881 762.017 413.939C766.069 420.808 768.183 427.065 769.254 431.301C770.14 434.76 770.325 436.878 770.325 436.878L770.335 436.888Z" fill="white" stroke="black" style="fill:white;fill-opacity:1;stroke:black;stroke-opacity:1;" stroke-width="2" stroke-linecap="round" stroke-linejoin="round"/>
<path d="M744.097 422.43C744.468 425.666 744.136 428.6 743.727 430.689C737.455 430.466 730.384 431.029 722.836 433.05C722.836 433.05 723.829 428.697 724.18 422.333C724.18 422.333 732.566 420.74 744.097 422.44V422.43Z" fill="#4898D9" stroke="black" style="fill:#4898D9;fill:color(display-p3 0.2824 0.5961 0.8510);fill-opacity:1;stroke:black;stroke-opacity:1;" stroke-width="2" stroke-linecap="round" stroke-linejoin="round"/>
<path d="M770.339 436.888C770.339 436.888 766.258 434.74 759.392 432.962C759.674 430.368 759.392 428.027 759.031 426.317C762.391 427.609 765.839 429.251 769.268 431.301C770.154 434.76 770.339 436.878 770.339 436.878V436.888Z" fill="#4898D9" stroke="black" style="fill:#4898D9;fill:color(display-p3 0.2824 0.5961 0.8510);fill-opacity:1;stroke:black;stroke-opacity:1;" stroke-width="2" stroke-linecap="round" stroke-linejoin="round"/>
<path d="M762.025 413.948C741.29 404.748 723.603 407.886 723.603 407.886C721.762 395.333 715.723 381.614 699.156 375.872C704.873 376.309 711.019 377.524 717.671 379.778C741.757 387.939 754.886 401.881 762.025 413.939V413.948Z" fill="#AFE6F4" stroke="black" style="fill:#AFE6F4;fill:color(display-p3 0.6863 0.9020 0.9569);fill-opacity:1;stroke:black;stroke-opacity:1;" stroke-width="2" stroke-linecap="round" stroke-linejoin="round"/>
<path d="M677.562 385.014C677.562 385.014 684.458 389.785 688.685 390.31C692.912 390.834 697.723 386.656 688.831 380.778" stroke="black" style="stroke:black;stroke-opacity:1;" stroke-width="2" stroke-linecap="round" stroke-linejoin="round"/>
<path d="M686.258 384.694C686.258 384.694 692.033 388.328 694.497 391.097" stroke="black" style="stroke:black;stroke-opacity:1;" stroke-width="2" stroke-linecap="round" stroke-linejoin="round"/>
<path d="M847.797 412.248C847.797 412.248 846.288 413.764 843.259 414.735C839.791 415.843 834.347 416.232 826.887 412.812C826.887 412.812 821.004 409.052 821.325 400.978C821.374 399.705 821.578 398.316 821.987 396.819C821.987 396.819 833.451 404.728 847.807 412.238L847.797 412.248Z" fill="white" stroke="black" style="fill:white;fill-opacity:1;stroke:black;stroke-opacity:1;" stroke-width="2" stroke-linecap="round" stroke-linejoin="round"/>
<path d="M847.792 412.248C847.792 412.248 846.283 413.764 843.254 414.735C840.351 413.152 836.251 410.849 832.092 408.304C828.82 406.292 825.499 404.126 822.684 402.027C822.216 401.677 821.759 401.328 821.32 400.978C821.369 399.705 821.574 398.316 821.983 396.819C821.983 396.819 823.59 397.927 826.356 399.705C828.81 401.289 832.18 403.407 836.144 405.748C839.64 407.808 843.595 410.043 847.802 412.238L847.792 412.248Z" fill="#4898D9" stroke="black" style="fill:#4898D9;fill:color(display-p3 0.2824 0.5961 0.8510);fill-opacity:1;stroke:black;stroke-opacity:1;" stroke-width="2" stroke-linecap="round" stroke-linejoin="round"/>
<path d="M836.14 405.758C834.056 407.555 832.088 408.304 832.088 408.304C828.816 406.292 825.494 404.126 822.68 402.027C824.16 401.376 825.417 400.492 826.342 399.715C828.796 401.298 832.166 403.416 836.13 405.758H836.14Z" fill="white" stroke="black" style="fill:white;fill-opacity:1;stroke:black;stroke-opacity:1;" stroke-width="2" stroke-linecap="round" stroke-linejoin="round"/>
<path d="M798.746 363.338C798.97 365.379 798.824 367.983 797.772 371.033C797.538 371.713 797.314 372.374 797.109 373.015C793.623 383.897 794.09 390.349 798.259 396.139C798.259 396.139 807.268 403.038 826.873 412.821C822.208 407.128 821.536 399.734 825.111 389.309C825.344 388.619 825.598 387.92 825.87 387.201C827.205 383.713 827.536 380.856 827.438 378.641C827.253 374.784 825.744 372.831 825.744 372.831L797.09 358.199C797.09 358.199 798.395 360.054 798.755 363.338H798.746Z" fill="white" stroke="black" style="fill:white;fill-opacity:1;stroke:black;stroke-opacity:1;" stroke-width="2" stroke-linecap="round" stroke-linejoin="round"/>
<path d="M807.846 363.688C808.099 364.903 808.275 366.447 808.07 368.021C804.213 366.039 800.892 364.388 798.759 363.338C798.399 360.054 797.094 358.199 797.094 358.199L807.846 363.688Z" fill="#4898D9" stroke="black" style="fill:#4898D9;fill:color(display-p3 0.2824 0.5961 0.8510);fill-opacity:1;stroke:black;stroke-opacity:1;" stroke-width="2" stroke-linecap="round" stroke-linejoin="round"/>
<path d="M827.436 378.641C824.29 376.766 820.891 374.852 817.531 373.025C817.657 371.811 817.648 370.295 817.336 368.536L825.741 372.831C825.741 372.831 827.261 374.784 827.436 378.641Z" fill="#4898D9" stroke="black" style="fill:#4898D9;fill:color(display-p3 0.2824 0.5961 0.8510);fill-opacity:1;stroke:black;stroke-opacity:1;" stroke-width="2" stroke-linecap="round" stroke-linejoin="round"/>
<path d="M826.873 412.821C807.277 403.038 798.259 396.139 798.259 396.139C794.09 390.358 793.623 383.907 797.109 373.015C802.943 376.474 808.339 379.836 825.111 389.309C821.536 399.734 822.198 407.118 826.873 412.821Z" fill="#AFE6F4" stroke="black" style="fill:#AFE6F4;fill:color(display-p3 0.6863 0.9020 0.9569);fill-opacity:1;stroke:black;stroke-opacity:1;" stroke-width="2" stroke-linecap="round" stroke-linejoin="round"/>
<path d="M530.446 438.895C530.446 438.895 532.313 439.938 534.068 442.592C536.073 445.63 537.92 450.766 536.646 458.874C536.646 458.874 534.617 465.554 526.758 467.429C525.519 467.727 524.126 467.906 522.575 467.917C522.575 467.917 527.087 454.741 530.434 438.888L530.446 438.895Z" fill="white" stroke="black" style="fill:white;fill-opacity:1;stroke:black;stroke-opacity:1;" stroke-width="2" stroke-linecap="round" stroke-linejoin="round"/>
<path d="M530.449 438.896C530.449 438.896 532.317 439.94 534.072 442.593C533.332 445.815 532.225 450.386 530.899 455.078C529.849 458.773 528.661 462.556 527.402 465.834C527.192 466.379 526.979 466.914 526.761 467.431C525.523 467.728 524.13 467.907 522.579 467.918C522.579 467.918 523.21 466.071 524.173 462.927C525.034 460.136 526.161 456.319 527.343 451.869C528.38 447.946 529.462 443.534 530.437 438.89L530.449 438.896Z" fill="#4898D9" stroke="black" style="fill:#4898D9;fill:color(display-p3 0.2824 0.5961 0.8510);fill-opacity:1;stroke:black;stroke-opacity:1;" stroke-width="2" stroke-linecap="round" stroke-linejoin="round"/>
<path d="M527.356 451.875C529.65 453.395 530.903 455.087 530.903 455.087C529.852 458.782 528.665 462.565 527.406 465.843C526.379 464.594 525.188 463.623 524.189 462.943C525.049 460.152 526.177 456.334 527.359 451.885L527.356 451.875Z" fill="white" stroke="black" style="fill:white;fill-opacity:1;stroke:black;stroke-opacity:1;" stroke-width="2" stroke-linecap="round" stroke-linejoin="round"/>
<path d="M496.633 499.348C498.537 498.58 501.083 498.017 504.305 498.204C505.023 498.245 505.719 498.282 506.392 498.305C517.811 498.718 523.896 496.522 528.343 490.943C528.343 490.943 532.546 480.403 536.661 458.881C532.442 464.913 525.506 467.56 514.502 466.94C513.775 466.902 513.033 466.847 512.267 466.779C508.548 466.438 505.708 466.892 503.602 467.585C499.939 468.807 498.467 470.789 498.467 470.789L492.133 502.333C492.133 502.333 493.567 500.574 496.631 499.339L496.633 499.348Z" fill="white" stroke="black" style="fill:white;fill-opacity:1;stroke:black;stroke-opacity:1;" stroke-width="2" stroke-linecap="round" stroke-linejoin="round"/>
<path d="M503.604 467.585C502.65 471.121 501.727 474.911 500.878 478.64C499.675 478.847 498.218 479.267 496.609 480.042L498.47 470.789C498.47 470.789 499.939 468.798 503.604 467.585Z" fill="#4898D9" stroke="black" style="fill:#4898D9;fill:color(display-p3 0.2824 0.5961 0.8510);fill-opacity:1;stroke:black;stroke-opacity:1;" stroke-width="2" stroke-linecap="round" stroke-linejoin="round"/>
<path d="M536.662 458.881C532.545 480.394 528.344 490.942 528.344 490.942C523.907 496.52 517.822 498.715 506.394 498.305C508.145 491.753 509.922 485.649 514.504 466.94C525.507 467.56 532.437 464.925 536.662 458.881Z" fill="#AFE6F4" stroke="black" style="fill:#AFE6F4;fill:color(display-p3 0.6863 0.9020 0.9569);fill-opacity:1;stroke:black;stroke-opacity:1;" stroke-width="2" stroke-linecap="round" stroke-linejoin="round"/>
<path d="M851.976 581.558C851.976 581.558 852.804 584.832 851.654 589.719C850.339 595.296 846.414 602.971 835.701 610.268C835.701 610.268 825.805 615.146 815.111 608.131C813.417 607.023 811.702 605.614 810.008 603.856C810.008 603.856 830.081 594.82 851.966 581.558H851.976Z" fill="white" stroke="black" style="fill:white;fill-opacity:1;stroke:black;stroke-opacity:1;" stroke-width="2" stroke-linecap="round" stroke-linejoin="round"/>
<path d="M851.976 581.558C851.976 581.558 852.804 584.832 851.654 589.719C847.135 592.352 840.678 596.005 833.821 599.551C828.425 602.34 822.786 605.051 817.644 607.14C816.787 607.489 815.939 607.82 815.111 608.131C813.417 607.023 811.702 605.614 810.008 603.856C810.008 603.856 812.823 602.593 817.488 600.3C821.647 598.269 827.257 595.451 833.665 592.002C839.304 588.961 845.557 585.444 851.966 581.558H851.976Z" fill="#D580CC" stroke="black" style="fill:#D580CC;fill:color(display-p3 0.8353 0.5020 0.8000);fill-opacity:1;stroke:black;stroke-opacity:1;" stroke-width="2" stroke-linecap="round" stroke-linejoin="round"/>
<path d="M833.67 592.002C834.41 596.277 833.825 599.551 833.825 599.551C828.43 602.34 822.791 605.051 817.648 607.14C817.969 604.613 817.794 602.194 817.492 600.3C821.651 598.269 827.261 595.451 833.67 592.002Z" fill="white" stroke="black" style="fill:white;fill-opacity:1;stroke:black;stroke-opacity:1;" stroke-width="2" stroke-linecap="round" stroke-linejoin="round"/>
<path d="M745.648 607.917C748.608 609.277 752.017 611.59 755.3 615.505C756.03 616.37 756.751 617.205 757.452 618.012C769.383 631.585 778.509 636.219 789.758 635.296C789.758 635.296 806.462 628.748 835.71 610.258C824.178 611.92 813.61 606.8 802.371 593.479C801.631 592.595 800.891 591.682 800.131 590.729C796.488 586.095 792.885 583.306 789.787 581.635C784.401 578.74 780.525 579.197 780.525 579.197L737.32 605.964C737.32 605.964 740.895 605.711 745.648 607.907V607.917Z" fill="white" stroke="black" style="fill:white;fill-opacity:1;stroke:black;stroke-opacity:1;" stroke-width="2" stroke-linecap="round" stroke-linejoin="round"/>
<path d="M753.529 595.927C755.379 596.578 757.629 597.599 759.587 599.153C753.743 602.748 748.805 605.886 745.64 607.917C740.887 605.731 737.312 605.974 737.312 605.974L753.529 595.927Z" fill="#D580CC" stroke="black" style="fill:#D580CC;fill:color(display-p3 0.8353 0.5020 0.8000);fill-opacity:1;stroke:black;stroke-opacity:1;" stroke-width="2" stroke-linecap="round" stroke-linejoin="round"/>
<path d="M789.785 581.645C784.682 584.356 779.315 587.387 774.095 590.448C772.546 589.282 770.491 588.058 767.852 587.057L780.523 579.206C780.523 579.206 784.409 578.75 789.785 581.645Z" fill="#D580CC" stroke="black" style="fill:#D580CC;fill:color(display-p3 0.8353 0.5020 0.8000);fill-opacity:1;stroke:black;stroke-opacity:1;" stroke-width="2" stroke-linecap="round" stroke-linejoin="round"/>
<path d="M835.703 610.268C806.455 628.758 789.751 635.306 789.751 635.306C778.502 636.219 769.376 631.595 757.445 618.021C766.883 612.969 775.863 608.412 802.364 593.489C813.604 606.809 824.161 611.93 835.703 610.268Z" fill="#E6D0E9" stroke="black" style="fill:#E6D0E9;fill:color(display-p3 0.9020 0.8157 0.9137);fill-opacity:1;stroke:black;stroke-opacity:1;" stroke-width="2" stroke-linecap="round" stroke-linejoin="round"/>
<path d="M602.283 339.447L584.547 372.403C584.547 372.403 585.842 382.391 603.081 393.322C619.814 405.292 624.392 417.835 624.392 417.835L642.03 386.54C642.03 386.54 641.475 375.959 616.512 360.997C602.672 350.98 602.283 339.437 602.283 339.437V339.447Z" fill="#AFE6F4" stroke="black" style="fill:#AFE6F4;fill:color(display-p3 0.6863 0.9020 0.9569);fill-opacity:1;stroke:black;stroke-opacity:1;" stroke-width="2" stroke-linecap="round" stroke-linejoin="round"/>
<path d="M604.61 367.817C606.665 364.067 608.604 359.977 611.068 356.314C602.604 347.705 602.283 339.447 602.283 339.447L584.547 372.403C584.547 372.403 585.375 378.573 594.082 386.511C597.608 380.273 601.182 374.084 604.62 367.798V367.817H604.61Z" fill="white" stroke="black" style="fill:white;fill-opacity:1;stroke:black;stroke-opacity:1;" stroke-width="2" stroke-linecap="round" stroke-linejoin="round"/>
<path d="M622.055 413.229C623.749 416.076 624.392 417.844 624.392 417.844L642.031 386.55C642.031 386.55 641.914 384.626 640.005 381.39L622.055 413.229Z" fill="white" stroke="black" style="fill:white;fill-opacity:1;stroke:black;stroke-opacity:1;" stroke-width="2" stroke-linecap="round" stroke-linejoin="round"/>
<path d="M640.006 390.154L642.051 386.54C642.051 386.54 641.934 384.616 640.025 381.381L637.055 386.656C638.126 387.784 639.11 388.959 640.025 390.154H640.016H640.006Z" fill="#03EDC3" stroke="black" style="fill:#03EDC3;fill:color(display-p3 0.0116 0.9292 0.7640);fill-opacity:1;stroke:black;stroke-opacity:1;" stroke-width="2" stroke-linecap="round" stroke-linejoin="round"/>
<path d="M630.627 403.047C630.121 402.319 629.576 401.609 628.981 400.949L622.047 413.239C623.742 416.086 624.384 417.854 624.384 417.854L631.611 405.039C631.319 404.349 630.988 403.679 630.618 403.057L630.627 403.047Z" fill="#4898D9" stroke="black" style="fill:#4898D9;fill:color(display-p3 0.2824 0.5961 0.8510);fill-opacity:1;stroke:black;stroke-opacity:1;" stroke-width="2" stroke-linecap="round" stroke-linejoin="round"/>
<path d="M592.923 366.243C591.959 364.767 591.092 363.212 590.352 361.628L584.547 372.413C584.547 372.413 584.82 374.473 586.729 377.757L592.923 366.253V366.243Z" fill="#4898D9" stroke="black" style="fill:#4898D9;fill:color(display-p3 0.2824 0.5961 0.8510);fill-opacity:1;stroke:black;stroke-opacity:1;" stroke-width="2" stroke-linecap="round" stroke-linejoin="round"/>
<path d="M598.664 355.585L604.001 346.131C602.725 342.196 602.287 339.466 602.287 339.466L596.453 350.29C597.106 352.087 597.836 353.875 598.664 355.585Z" fill="#4898D9" stroke="black" style="fill:#4898D9;fill:color(display-p3 0.2824 0.5961 0.8510);fill-opacity:1;stroke:black;stroke-opacity:1;" stroke-width="2" stroke-linecap="round" stroke-linejoin="round"/>
<path d="M637.794 394.079L642.05 386.54C642.05 386.54 641.933 384.616 640.024 381.381L635.164 390.008C636.323 391.524 637.18 392.884 637.813 394.07H637.803L637.794 394.079Z" fill="#4898D9" stroke="black" style="fill:#4898D9;fill:color(display-p3 0.2824 0.5961 0.8510);fill-opacity:1;stroke:black;stroke-opacity:1;" stroke-width="2" stroke-linecap="round" stroke-linejoin="round"/>
<path d="M612.164 390.63C618.018 382.284 627.942 390.484 621.193 399.977" stroke="black" style="stroke:black;stroke-opacity:1;" stroke-width="2" stroke-linecap="round"/>
<path d="M617.055 394.934L622.889 386.55" stroke="black" style="stroke:black;stroke-opacity:1;" stroke-width="2" stroke-linecap="round"/>
<path d="M575.719 518.453L599.629 538.069C599.629 538.069 607.947 538.623 619.586 526.449C631.984 514.848 642.902 513.167 642.902 513.167L620.326 493.901C620.326 493.901 611.648 492.647 595.5 510.418C585.147 519.988 575.719 518.453 575.719 518.453Z" fill="#AFE6F4" stroke="black" style="fill:#AFE6F4;fill:color(display-p3 0.6863 0.9020 0.9569);fill-opacity:1;stroke:black;stroke-opacity:1;" stroke-width="2" stroke-linecap="round" stroke-linejoin="round"/>
<path d="M599.131 521.115C596.413 518.851 593.404 516.626 590.833 514.051C582.486 519.502 575.727 518.443 575.727 518.443L599.637 538.059C599.637 538.059 604.78 538.38 612.62 532.628C608.12 528.781 603.669 524.894 599.121 521.115H599.131Z" fill="white" stroke="black" style="fill:white;fill-opacity:1;stroke:black;stroke-opacity:1;" stroke-width="2" stroke-linecap="round" stroke-linejoin="round"/>
<path d="M638.794 514.314C641.375 513.4 642.914 513.167 642.914 513.167L620.338 493.901C620.338 493.901 618.75 493.687 615.828 494.717L638.794 514.323V514.314Z" fill="white" stroke="black" style="fill:white;fill-opacity:1;stroke:black;stroke-opacity:1;" stroke-width="2" stroke-linecap="round" stroke-linejoin="round"/>
<path d="M622.94 496.106L620.33 493.881C620.33 493.881 618.742 493.667 615.82 494.697L619.628 497.942C620.719 497.253 621.83 496.65 622.94 496.096V496.106Z" fill="#03EDC3" stroke="black" style="fill:#03EDC3;fill:color(display-p3 0.0116 0.9292 0.7640);fill-opacity:1;stroke:black;stroke-opacity:1;" stroke-width="2" stroke-linecap="round" stroke-linejoin="round"/>
<path d="M631.897 505.754C631.225 506.046 630.563 506.376 629.93 506.745L638.793 514.314C641.374 513.4 642.913 513.167 642.913 513.167L633.67 505.278C633.066 505.404 632.462 505.569 631.897 505.764V505.754Z" fill="#4898D9" stroke="black" style="fill:#4898D9;fill:color(display-p3 0.2824 0.5961 0.8510);fill-opacity:1;stroke:black;stroke-opacity:1;" stroke-width="2" stroke-linecap="round" stroke-linejoin="round"/>
<path d="M595.979 530.306C594.625 530.85 593.223 531.307 591.82 531.647L599.651 538.069C599.651 538.069 601.375 538.176 604.336 537.166L595.989 530.316L595.979 530.306Z" fill="#4898D9" stroke="black" style="fill:#4898D9;fill:color(display-p3 0.2824 0.5961 0.8510);fill-opacity:1;stroke:black;stroke-opacity:1;" stroke-width="2" stroke-linecap="round" stroke-linejoin="round"/>
<path d="M588.24 523.962L581.422 518.132C578.023 518.53 575.734 518.443 575.734 518.443L583.584 524.894C585.153 524.651 586.711 524.35 588.24 523.962Z" fill="#4898D9" stroke="black" style="fill:#4898D9;fill:color(display-p3 0.2824 0.5961 0.8510);fill-opacity:1;stroke:black;stroke-opacity:1;" stroke-width="2" stroke-linecap="round" stroke-linejoin="round"/>
<path d="M625.772 498.525L620.338 493.881C620.338 493.881 618.75 493.667 615.828 494.697L622.052 500.012C623.474 499.322 624.711 498.846 625.772 498.525Z" fill="#4898D9" style="fill:#4898D9;fill:color(display-p3 0.2824 0.5961 0.8510);fill-opacity:1;"/>
<path d="M625.772 498.525L620.338 493.881C620.338 493.881 618.75 493.667 615.828 494.697L622.052 500.012C623.474 499.322 624.711 498.846 625.772 498.525ZM625.772 498.525V498.535" stroke="black" style="stroke:black;stroke-opacity:1;" stroke-width="2" stroke-linecap="round" stroke-linejoin="round"/>
<path d="M618.851 518.676C613.017 512.604 621.267 505.909 627.89 512.885" stroke="black" style="stroke:black;stroke-opacity:1;" stroke-width="2" stroke-linecap="round"/>
<path d="M623.139 515.421L617.266 509.359" stroke="black" style="stroke:black;stroke-opacity:1;" stroke-width="2" stroke-linecap="round"/>
<path d="M716.916 479.414L763.588 536.311C763.588 536.311 782.756 541.47 815.597 518.453C849.959 497.136 876.226 498.263 876.226 498.263L832.505 442.795C832.505 442.795 812.831 435.848 766.841 469.825C738.216 487.362 716.906 479.405 716.906 479.405L716.916 479.414Z" fill="#E6D0E9" stroke="black" style="fill:#E6D0E9;fill:color(display-p3 0.9020 0.8157 0.9137);fill-opacity:1;stroke:black;stroke-opacity:1;" stroke-width="2" stroke-linecap="round" stroke-linejoin="round"/>
<path d="M770.314 496.514C765.035 489.975 759.046 483.378 754.234 476.179C732.203 485.04 716.922 479.424 716.922 479.424L763.594 536.32C763.594 536.32 775.457 539.449 796.436 529.655C787.729 518.589 779.148 507.454 770.285 496.505H770.305V496.514H770.314Z" fill="white" stroke="black" style="fill:white;fill-opacity:1;stroke:black;stroke-opacity:1;" stroke-width="2" stroke-linecap="round" stroke-linejoin="round"/>
<path d="M866.08 499.031C872.528 498.098 876.229 498.263 876.229 498.263L832.518 442.795C832.518 442.795 828.914 441.561 821.609 442.601L866.071 499.04L866.08 499.031Z" fill="white" stroke="black" style="fill:white;fill-opacity:1;stroke:black;stroke-opacity:1;" stroke-width="2" stroke-linecap="round" stroke-linejoin="round"/>
<path d="M837.557 449.178L832.502 442.766C832.502 442.766 828.898 441.532 821.594 442.572L828.967 451.918C831.82 450.82 834.703 449.927 837.567 449.159V449.178H837.557Z" fill="#03EDC3" stroke="black" style="fill:#03EDC3;fill:color(display-p3 0.0116 0.9292 0.7640);fill-opacity:1;stroke:black;stroke-opacity:1;" stroke-width="2" stroke-linecap="round" stroke-linejoin="round"/>
<path d="M853.979 475.858C852.274 476.228 850.56 476.684 848.914 477.257L866.075 499.04C872.523 498.108 876.224 498.273 876.224 498.273L858.323 475.557C856.852 475.557 855.371 475.674 853.969 475.858H853.979Z" fill="#D580CC" stroke="black" style="fill:#D580CC;fill:color(display-p3 0.8353 0.5020 0.8000);fill-opacity:1;stroke:black;stroke-opacity:1;" stroke-width="2" stroke-linecap="round" stroke-linejoin="round"/>
<path d="M758.662 516.5C755.253 517.141 751.776 517.549 748.328 517.695L763.6 536.311C763.6 536.311 767.564 537.36 774.956 536.369L758.672 516.5H758.662Z" fill="#D580CC" stroke="black" style="fill:#D580CC;fill:color(display-p3 0.8353 0.5020 0.8000);fill-opacity:1;stroke:black;stroke-opacity:1;" stroke-width="2" stroke-linecap="round" stroke-linejoin="round"/>
<path d="M743.571 498.108L730.374 481.338C722.242 480.697 716.953 479.434 716.953 479.434L732.273 498.127C736.033 498.292 739.831 498.312 743.581 498.108H743.571Z" fill="#D580CC" stroke="black" style="fill:#D580CC;fill:color(display-p3 0.8353 0.5020 0.8000);fill-opacity:1;stroke:black;stroke-opacity:1;" stroke-width="2" stroke-linecap="round" stroke-linejoin="round"/>
<path d="M843.044 456.145L832.526 442.776C832.526 442.776 828.922 441.542 821.617 442.581L833.665 457.874C837.298 456.922 840.415 456.378 843.044 456.125V456.145Z" fill="#D580CC" stroke="black" style="fill:#D580CC;fill:color(display-p3 0.8353 0.5020 0.8000);fill-opacity:1;stroke:black;stroke-opacity:1;" stroke-width="2" stroke-linecap="round" stroke-linejoin="round"/>
<path d="M817.506 499.963C806.715 483.087 829.096 471.272 841.3 490.636" stroke="black" style="stroke:black;stroke-opacity:1;" stroke-width="2" stroke-linecap="round"/>
<path d="M829.02 494.348L818.141 477.481" stroke="black" style="stroke:black;stroke-opacity:1;" stroke-width="2" stroke-linecap="round"/>
<path d="M465.419 584.007L487.975 611.506C487.975 611.506 497.239 613.999 513.112 602.875C529.719 592.572 542.414 593.117 542.414 593.117L521.283 566.309C521.283 566.309 511.775 562.952 489.548 579.373C475.713 587.849 465.414 584.003 465.414 584.003L465.419 584.007Z" fill="#E6D0E9" stroke="black" style="fill:#E6D0E9;fill:color(display-p3 0.9020 0.8157 0.9137);fill-opacity:1;stroke:black;stroke-opacity:1;" stroke-width="2" stroke-linecap="round" stroke-linejoin="round"/>
<path d="M491.227 592.272C488.675 589.112 485.78 585.923 483.455 582.444C472.807 586.726 465.422 584.012 465.422 584.012L487.979 611.51C487.979 611.51 493.712 613.022 503.851 608.289C499.643 602.941 495.496 597.559 491.212 592.267H491.222V592.272H491.227Z" fill="white" stroke="black" style="fill:white;fill-opacity:1;stroke:black;stroke-opacity:1;" stroke-width="2" stroke-linecap="round" stroke-linejoin="round"/>
<path d="M537.508 593.488C540.625 593.037 542.413 593.117 542.413 593.117L521.288 566.309C521.288 566.309 519.546 565.713 516.016 566.215L537.504 593.493L537.508 593.488Z" fill="white" stroke="black" style="fill:white;fill-opacity:1;stroke:black;stroke-opacity:1;" stroke-width="2" stroke-linecap="round" stroke-linejoin="round"/>
<path d="M523.723 569.394L521.28 566.295C521.28 566.295 519.538 565.699 516.008 566.201L519.571 570.719C520.95 570.188 522.344 569.756 523.728 569.385V569.394H523.723Z" fill="#03EDC3" stroke="black" style="fill:#03EDC3;fill:color(display-p3 0.0116 0.9292 0.7640);fill-opacity:1;stroke:black;stroke-opacity:1;" stroke-width="2" stroke-linecap="round" stroke-linejoin="round"/>
<path d="M531.659 582.289C530.835 582.467 530.006 582.688 529.211 582.965L537.505 593.493C540.621 593.042 542.41 593.122 542.41 593.122L533.758 582.143C533.047 582.143 532.332 582.2 531.654 582.289H531.659Z" fill="#D580CC" stroke="black" style="fill:#D580CC;fill:color(display-p3 0.8353 0.5020 0.8000);fill-opacity:1;stroke:black;stroke-opacity:1;" stroke-width="2" stroke-linecap="round" stroke-linejoin="round"/>
<path d="M526.379 572.761L521.295 566.3C521.295 566.3 519.554 565.704 516.023 566.206L521.846 573.597C523.602 573.137 525.108 572.874 526.379 572.752V572.761Z" fill="#D580CC" stroke="black" style="fill:#D580CC;fill:color(display-p3 0.8353 0.5020 0.8000);fill-opacity:1;stroke:black;stroke-opacity:1;" stroke-width="2" stroke-linecap="round" stroke-linejoin="round"/>
<path d="M514.037 593.939C508.822 585.782 519.639 580.072 525.537 589.431" stroke="black" style="stroke:black;stroke-opacity:1;" stroke-width="2" stroke-linecap="round"/>
<path d="M519.602 591.225L514.344 583.073" stroke="black" style="stroke:black;stroke-opacity:1;" stroke-width="2" stroke-linecap="round"/>
</g>
<defs>
<clipPath id="clip0_13010_10117">
<rect width="374" height="342" fill="white" style="fill:white;fill-opacity:1;" transform="translate(503.414 339)"/>
</clipPath>
</defs>
</svg>
