<svg width="179" height="83" viewBox="0 0 179 83" fill="none" xmlns="http://www.w3.org/2000/svg">
<path d="M81.2788 48.4062V54.9062H48.4975L48.1538 49.9062L67.435 19.5H74.0288L66.9038 31.5938L56.56 48.4062H81.2788ZM75.8725 19.5V65H67.5913V19.5H75.8725ZM84.4688 60.9688C84.4688 59.7188 84.8958 58.6667 85.75 57.8125C86.6042 56.9583 87.7604 56.5312 89.2188 56.5312C90.6771 56.5312 91.8333 56.9583 92.6875 57.8125C93.5417 58.6667 93.9688 59.7188 93.9688 60.9688C93.9688 62.1979 93.5417 63.2396 92.6875 64.0938C91.8333 64.9271 90.6771 65.3438 89.2188 65.3438C87.7604 65.3438 86.6042 64.9271 85.75 64.0938C84.8958 63.2396 84.4688 62.1979 84.4688 60.9688ZM105.534 58.5938H106.128C108.815 58.5938 111.086 58.25 112.94 57.5625C114.815 56.875 116.325 55.9062 117.471 54.6562C118.638 53.3854 119.482 51.875 120.003 50.125C120.544 48.3542 120.815 46.3958 120.815 44.25V36C120.815 34.25 120.638 32.7188 120.284 31.4062C119.93 30.0729 119.43 28.9583 118.784 28.0625C118.159 27.1667 117.419 26.5 116.565 26.0625C115.711 25.6042 114.794 25.375 113.815 25.375C112.732 25.375 111.773 25.625 110.94 26.125C110.107 26.625 109.398 27.3125 108.815 28.1875C108.253 29.0417 107.815 30.0312 107.503 31.1562C107.211 32.2812 107.065 33.4688 107.065 34.7188C107.065 35.9271 107.2 37.0833 107.471 38.1875C107.763 39.2917 108.19 40.2708 108.753 41.125C109.336 41.9792 110.065 42.6562 110.94 43.1562C111.815 43.6354 112.836 43.875 114.003 43.875C115.107 43.875 116.107 43.6667 117.003 43.25C117.919 42.8125 118.711 42.2396 119.378 41.5312C120.044 40.8021 120.555 40 120.909 39.125C121.284 38.2292 121.492 37.3229 121.534 36.4062L124.44 37.6562C124.44 39.1771 124.117 40.6771 123.471 42.1562C122.846 43.6354 121.961 44.9792 120.815 46.1875C119.69 47.375 118.378 48.3333 116.878 49.0625C115.378 49.7708 113.763 50.125 112.034 50.125C109.888 50.125 107.992 49.7292 106.346 48.9375C104.7 48.1458 103.315 47.0521 102.19 45.6562C101.086 44.2396 100.253 42.6146 99.69 40.7812C99.1275 38.9271 98.8463 36.9479 98.8463 34.8438C98.8463 32.6562 99.19 30.6042 99.8775 28.6875C100.565 26.75 101.555 25.0521 102.846 23.5938C104.159 22.1146 105.742 20.9583 107.596 20.125C109.45 19.2708 111.534 18.8438 113.846 18.8438C116.242 18.8438 118.378 19.3125 120.253 20.25C122.128 21.1875 123.721 22.4896 125.034 24.1562C126.346 25.8021 127.346 27.75 128.034 30C128.742 32.25 129.096 34.7083 129.096 37.375V40.2812C129.096 43.0938 128.815 45.7604 128.253 48.2812C127.69 50.8021 126.825 53.1042 125.659 55.1875C124.492 57.2708 123.003 59.0729 121.19 60.5938C119.398 62.1146 117.253 63.2917 114.753 64.125C112.273 64.9375 109.44 65.3438 106.253 65.3438H105.534V58.5938Z" fill="#141414" style="fill:#141414;fill:color(display-p3 0.0784 0.0784 0.0784);fill-opacity:1;"/>
<path d="M26.0518 1.73438C26.9547 1.29972 27.9957 1.75055 28.3633 2.63086C31.6174 10.4262 31.2421 15.9483 29.0469 20.0098C26.877 24.024 23.0089 26.4477 19.6562 28.2373C18.8452 28.6702 17.8359 28.3847 17.3662 27.6006C13.2533 20.7337 13.6461 15.0533 16.0391 10.665C18.3979 6.33935 22.639 3.37817 26.0518 1.73438Z" fill="#141414" stroke="#EBE8E7" style="fill:#141414;fill:color(display-p3 0.0784 0.0784 0.0784);fill-opacity:1;stroke:#EBE8E7;stroke:color(display-p3 0.9216 0.9098 0.9059);stroke-opacity:1;" stroke-width="1.5"/>
<path d="M11.1298 18.9225C11.6511 18.0667 12.7698 17.8788 13.5571 18.4176C20.5276 23.1893 23.216 28.0274 23.5828 32.6296C23.9451 37.1783 22.0174 41.316 20.1773 44.6412C19.7321 45.4457 18.7299 45.755 17.9093 45.3524C10.7231 41.8269 7.96328 36.8465 7.58468 31.8625C7.2115 26.9496 9.15993 22.1581 11.1298 18.9225Z" fill="#141414" stroke="#EBE8E7" style="fill:#141414;fill:color(display-p3 0.0784 0.0784 0.0784);fill-opacity:1;stroke:#EBE8E7;stroke:color(display-p3 0.9216 0.9098 0.9059);stroke-opacity:1;" stroke-width="1.5"/>
<path d="M5.60285 41.2161C5.70977 40.2197 6.64177 39.5731 7.58359 39.725C15.9229 41.0713 20.4167 44.3025 22.7097 48.3096C24.9759 52.2702 24.9952 56.8348 24.7475 60.6272C24.6876 61.5446 23.9128 62.2515 22.9988 62.2371C14.9955 62.11 10.3764 58.7805 7.91003 54.4331C5.47884 50.1476 5.19962 44.9826 5.60285 41.2161Z" fill="#141414" stroke="#EBE8E7" style="fill:#141414;fill:color(display-p3 0.0784 0.0784 0.0784);fill-opacity:1;stroke:#EBE8E7;stroke:color(display-p3 0.9216 0.9098 0.9059);stroke-opacity:1;" stroke-width="1.5"/>
<path d="M8.19863 61.8776C7.88807 60.9272 8.46944 59.9517 9.39793 59.7078C17.9903 57.451 24.0713 59.3578 28.2029 62.4973C32.2975 65.6087 34.4055 69.8731 35.2099 72.2603C36.6053 76.4011 36.3856 78.8344 35.9315 80.5086C35.7228 81.2781 35.017 81.7507 34.2778 81.7507L32.6187 81.7507C31.2577 81.7507 30.5854 80.3733 30.9276 79.2912C31.2535 78.2607 31.4323 76.7481 30.5533 74.8884C30.5416 74.8639 30.5193 74.8383 30.4717 74.8204C30.4199 74.8009 30.3497 74.797 30.2797 74.8194C23.6948 76.9328 18.6892 75.4283 15.0664 72.4763C11.4871 69.5596 9.3107 65.2784 8.19863 61.8776Z" fill="#141414" stroke="#EBE8E7" style="fill:#141414;fill:color(display-p3 0.0784 0.0784 0.0784);fill-opacity:1;stroke:#EBE8E7;stroke:color(display-p3 0.9216 0.9098 0.9059);stroke-opacity:1;" stroke-width="1.5"/>
<path d="M152.948 1.73438C152.045 1.29972 151.004 1.75055 150.637 2.63086C147.383 10.4262 147.758 15.9483 149.953 20.0098C152.123 24.024 155.991 26.4477 159.344 28.2373C160.155 28.6702 161.164 28.3847 161.634 27.6006C165.747 20.7337 165.354 15.0533 162.961 10.665C160.602 6.33935 156.361 3.37817 152.948 1.73438Z" fill="#141414" stroke="#EBE8E7" style="fill:#141414;fill:color(display-p3 0.0784 0.0784 0.0784);fill-opacity:1;stroke:#EBE8E7;stroke:color(display-p3 0.9216 0.9098 0.9059);stroke-opacity:1;" stroke-width="1.5"/>
<path d="M167.87 18.9225C167.349 18.0667 166.23 17.8788 165.443 18.4176C158.472 23.1893 155.784 28.0274 155.417 32.6296C155.055 37.1783 156.983 41.316 158.823 44.6412C159.268 45.4457 160.27 45.755 161.091 45.3524C168.277 41.8269 171.037 36.8465 171.415 31.8625C171.789 26.9496 169.84 22.1581 167.87 18.9225Z" fill="#141414" stroke="#EBE8E7" style="fill:#141414;fill:color(display-p3 0.0784 0.0784 0.0784);fill-opacity:1;stroke:#EBE8E7;stroke:color(display-p3 0.9216 0.9098 0.9059);stroke-opacity:1;" stroke-width="1.5"/>
<path d="M173.397 41.2161C173.29 40.2197 172.358 39.5731 171.416 39.725C163.077 41.0713 158.583 44.3025 156.29 48.3096C154.024 52.2702 154.005 56.8348 154.252 60.6272C154.312 61.5446 155.087 62.2515 156.001 62.2371C164.005 62.11 168.624 58.7805 171.09 54.4331C173.521 50.1476 173.8 44.9826 173.397 41.2161Z" fill="#141414" stroke="#EBE8E7" style="fill:#141414;fill:color(display-p3 0.0784 0.0784 0.0784);fill-opacity:1;stroke:#EBE8E7;stroke:color(display-p3 0.9216 0.9098 0.9059);stroke-opacity:1;" stroke-width="1.5"/>
<path d="M170.801 61.8776C171.112 60.9272 170.531 59.9517 169.602 59.7078C161.01 57.451 154.929 59.3578 150.797 62.4973C146.702 65.6087 144.595 69.8731 143.79 72.2603C142.395 76.4011 142.614 78.8344 143.068 80.5086C143.277 81.2781 143.983 81.7507 144.722 81.7507L146.381 81.7507C147.742 81.7507 148.415 80.3733 148.072 79.2912C147.746 78.2607 147.568 76.7481 148.447 74.8884C148.458 74.8639 148.481 74.8383 148.528 74.8204C148.58 74.8009 148.65 74.797 148.72 74.8194C155.305 76.9328 160.311 75.4283 163.934 72.4763C167.513 69.5596 169.689 65.2784 170.801 61.8776Z" fill="#141414" stroke="#EBE8E7" style="fill:#141414;fill:color(display-p3 0.0784 0.0784 0.0784);fill-opacity:1;stroke:#EBE8E7;stroke:color(display-p3 0.9216 0.9098 0.9059);stroke-opacity:1;" stroke-width="1.5"/>
</svg>
