<svg width="127" height="40" viewBox="0 0 127 40" fill="none" xmlns="http://www.w3.org/2000/svg">
<g clip-path="url(#clip0_16252_41552)">
<path d="M120.81 24.3502L114.186 16.8828V24.3502H109.738V0H114.186V14.0907L119.446 8.11675H124.803L118.375 15.4218L126.296 24.3502H120.81Z" fill="white"/>
<path d="M91.1133 24.3504V8.1169H95.5613V9.96751C96.5569 8.49569 98.1045 7.75977 100.204 7.75977C102.152 7.75977 103.678 8.40911 104.782 9.70777C105.907 10.9848 106.47 12.6947 106.47 14.8375V24.3504H102.022V15.5843C102.022 14.3939 101.773 13.474 101.275 12.8246C100.778 12.1536 100.074 11.8181 99.1652 11.8181C98.0828 11.8181 97.2062 12.2077 96.5352 12.9869C95.8859 13.7661 95.5613 14.9133 95.5613 16.4284V24.3504H91.1133Z" fill="white"/>
<path d="M78.4773 24.7075C76.3346 24.7075 74.5271 23.8742 73.0554 22.2076C71.5837 20.5409 70.8477 18.5496 70.8477 16.2336C70.8477 13.9176 71.5837 11.9263 73.0554 10.2597C74.5271 8.59308 76.3346 7.75977 78.4773 7.75977C79.5163 7.75977 80.4471 7.9762 81.2696 8.40911C82.092 8.84199 82.7197 9.35063 83.1527 9.93504V8.1169H87.6007V24.3504H83.1527V22.5322C82.7197 23.1166 82.092 23.6253 81.2696 24.0582C80.4471 24.4911 79.5163 24.7075 78.4773 24.7075ZM76.4319 19.4154C77.1896 20.2379 78.1852 20.6492 79.419 20.6492C80.6526 20.6492 81.6376 20.2379 82.3733 19.4154C83.131 18.5929 83.5099 17.5323 83.5099 16.2336C83.5099 14.935 83.131 13.8744 82.3733 13.0519C81.6376 12.2294 80.6526 11.8181 79.419 11.8181C78.1852 11.8181 77.1896 12.2294 76.4319 13.0519C75.6962 13.8744 75.3282 14.935 75.3282 16.2336C75.3282 17.5323 75.6962 18.5929 76.4319 19.4154Z" fill="white"/>
<path d="M61.8158 24.7074C60.7768 24.7074 59.8354 24.4909 58.9913 24.058C58.1471 23.6251 57.5195 23.1165 57.1082 22.5321V24.3502H52.6602V0H57.1082V9.93489C57.5195 9.35048 58.1471 8.84183 58.9913 8.40895C59.8354 7.97605 60.7768 7.75961 61.8158 7.75961C63.9587 7.75961 65.766 8.59293 67.238 10.2596C68.7097 11.9262 69.4457 13.9175 69.4457 16.2335C69.4457 18.5495 68.7097 20.5408 67.238 22.2074C65.766 23.874 63.9587 24.7074 61.8158 24.7074ZM57.855 19.4153C58.6124 20.2378 59.608 20.649 60.8418 20.649C62.0756 20.649 63.0604 20.2378 63.7964 19.4153C64.5538 18.5927 64.9327 17.5322 64.9327 16.2335C64.9327 14.9348 64.5538 13.8742 63.7964 13.0517C63.0604 12.2292 62.0756 11.818 60.8418 11.818C59.608 11.818 58.6124 12.2292 57.855 13.0517C57.119 13.8742 56.751 14.9348 56.751 16.2335C56.751 17.5322 57.119 18.5927 57.855 19.4153Z" fill="white"/>
<path d="M47.765 22.2725C46.0985 23.8958 44.0856 24.7075 41.7263 24.7075C39.3671 24.7075 37.354 23.8958 35.6874 22.2725C34.0208 20.6275 33.1875 18.6146 33.1875 16.2336C33.1875 13.8744 34.0208 11.8722 35.6874 10.2272C37.354 8.58224 39.3671 7.75977 41.7263 7.75977C44.0856 7.75977 46.0985 8.58224 47.765 10.2272C49.4319 11.8722 50.2652 13.8744 50.2652 16.2336C50.2652 18.6146 49.4319 20.6275 47.765 22.2725ZM41.7263 20.5517C42.8734 20.5517 43.826 20.1513 44.5834 19.3505C45.3627 18.528 45.7521 17.489 45.7521 16.2336C45.7521 14.9782 45.3627 13.9501 44.5834 13.1493C43.826 12.3268 42.8734 11.9155 41.7263 11.9155C40.5576 11.9155 39.5834 12.3268 38.8043 13.1493C38.0466 13.9501 37.668 14.9782 37.668 16.2336C37.668 17.489 38.0466 18.528 38.8043 19.3505C39.5834 20.1513 40.5576 20.5517 41.7263 20.5517Z" fill="white"/>
<path d="M23.8655 24.7075C21.398 24.7075 19.3417 23.9283 17.6967 22.3699C16.0734 20.8115 15.2617 18.7661 15.2617 16.2336C15.2617 13.8094 16.0734 11.7965 17.6967 10.1948C19.3201 8.57143 21.3547 7.75977 23.8005 7.75977C26.0515 7.75977 27.9455 8.4632 29.4823 9.87011C31.019 11.2554 31.7873 13.2142 31.7873 15.7466C31.7873 16.4609 31.7659 16.9695 31.7225 17.2726H19.5798C19.7097 18.3332 20.1751 19.1665 20.9759 19.7725C21.7984 20.357 22.7724 20.6492 23.8979 20.6492C25.8026 20.6492 27.1986 19.9674 28.0861 18.6037L31.3979 21.0712C29.731 23.4954 27.2203 24.7075 23.8655 24.7075ZM19.7422 14.2532H27.3396C27.1447 13.3224 26.7008 12.619 26.0082 12.1428C25.3373 11.6666 24.5581 11.4285 23.6707 11.4285C22.7616 11.4285 21.9283 11.6666 21.1707 12.1428C20.4132 12.619 19.937 13.3224 19.7422 14.2532Z" fill="white"/>
<path d="M0 24.3504V1.29883H4.70772V19.8699H14.5777V24.3504H0Z" fill="white"/>
<path d="M73.7633 31.6319C75.1861 31.6319 76.1613 32.5878 76.1613 34.0866V35.1868C76.1613 36.7757 75.0844 37.7078 73.5288 37.7078C72.7744 37.7078 71.8619 37.5517 71.1837 37.3091C71.0722 37.2642 71.0273 37.186 71.0273 37.0748V29.8206C71.0273 29.6877 71.0939 29.6211 71.2286 29.6211H72.5401C72.6611 29.6211 72.7295 29.6877 72.7295 29.8206V31.8195C73.007 31.722 73.3959 31.6319 73.7633 31.6319ZM74.4415 35.2201V34.0652C74.4415 33.4221 74.1073 33.1096 73.5073 33.1096C73.2082 33.1096 72.9406 33.1875 72.7295 33.299V36.0761C72.9406 36.1543 73.2181 36.1974 73.4957 36.1974C74.0957 36.1974 74.4415 35.9081 74.4415 35.2201Z" fill="white" fill-opacity="0.4"/>
<path d="M80.4982 31.9756C80.4982 31.8525 80.5764 31.7861 80.6974 31.7861H82.0089C82.1299 31.7861 82.1983 31.8525 82.1983 31.9756V37.0078C82.1983 38.9407 81.3872 39.8065 79.5661 39.8065C78.6221 39.8065 77.9557 39.6287 77.3557 39.1946C77.2443 39.1283 77.2344 39.0287 77.301 38.9288L77.8892 38.0279C77.9557 37.9283 78.0337 37.9069 78.1452 37.9616C78.5008 38.1727 78.9679 38.3386 79.4897 38.3386C80.1563 38.3386 80.5452 38.0827 80.5333 37.2599C80.2226 37.35 79.8786 37.4163 79.523 37.4163C78.1784 37.4163 77.1562 36.5505 77.1562 35.0401V31.9756C77.1562 31.8525 77.2344 31.7861 77.3557 31.7861H78.667C78.7883 31.7861 78.8566 31.8525 78.8566 31.9756V35.0068C78.8566 35.6615 79.2123 35.9508 79.779 35.9508C80.0448 35.9508 80.3359 35.8842 80.5021 35.7944V31.9756H80.4982Z" fill="white" fill-opacity="0.4"/>
<path d="M88.9569 37.6962C87.0026 37.6962 85.8691 36.5863 85.8691 34.6417V29.8206C85.8691 29.6877 85.9355 29.6211 86.0684 29.6211H87.4795C87.6005 29.6211 87.6787 29.6877 87.6787 29.8206V34.6417C87.6787 35.5406 88.1339 36.0077 88.9569 36.0077C89.7796 36.0077 90.2565 35.5406 90.2565 34.6417V29.8206C90.2565 29.6877 90.3228 29.6211 90.4459 29.6211H91.8686C91.9899 29.6211 92.0583 29.6877 92.0583 29.8206V34.6417C92.0562 36.5863 90.913 37.6962 88.9569 37.6962Z" fill="white" fill-opacity="0.4"/>
<path d="M93.5039 37.5747C93.371 37.5747 93.3047 37.4968 93.3047 37.3755V32.3218C93.3047 32.2103 93.3496 32.1321 93.4492 32.0893C94.1274 31.8116 94.9932 31.6338 95.7826 31.6338C97.4711 31.6338 98.4267 32.5445 98.4267 34.2095V37.3755C98.4267 37.4968 98.3604 37.5747 98.2275 37.5747H96.916C96.7813 37.5747 96.7168 37.4968 96.7168 37.3755V34.2095C96.7168 33.3984 96.3728 33.1424 95.7826 33.1424C95.4719 33.1424 95.1826 33.1876 95.0048 33.2423V37.3734C95.0048 37.4947 94.9385 37.5729 94.8154 37.5729H93.5039V37.5747Z" fill="white" fill-opacity="0.4"/>
<path d="M100.462 30.9874C99.9181 30.9874 99.5176 30.5771 99.5176 30.0553C99.5176 29.51 99.9181 29.1211 100.462 29.1211C101.016 29.1211 101.396 29.51 101.396 30.0553C101.394 30.5771 101.016 30.9874 100.462 30.9874ZM99.8048 37.5637C99.6838 37.5637 99.6056 37.4971 99.6056 37.3642V31.9763C99.6056 31.8532 99.6838 31.7866 99.8048 31.7866H101.116C101.237 31.7866 101.306 31.8532 101.306 31.9763V37.3642C101.306 37.4971 101.239 37.5637 101.116 37.5637H99.8048Z" fill="white" fill-opacity="0.4"/>
<path d="M105.271 31.6319C106.692 31.6319 107.669 32.5878 107.669 34.0866V35.1868C107.669 36.7757 106.592 37.7078 105.037 37.7078C104.282 37.7078 103.369 37.5517 102.692 37.3091C102.58 37.2642 102.535 37.186 102.535 37.0748V29.8206C102.535 29.6877 102.601 29.6211 102.736 29.6211H104.048C104.169 29.6211 104.237 29.6877 104.237 29.8206V31.8195C104.515 31.722 104.904 31.6319 105.271 31.6319ZM105.947 35.2201V34.0652C105.947 33.4221 105.613 33.1096 105.013 33.1096C104.714 33.1096 104.446 33.1875 104.235 33.299V36.0761C104.446 36.1543 104.724 36.1974 105.001 36.1974C105.603 36.1974 105.947 35.9081 105.947 35.2201Z" fill="white" fill-opacity="0.4"/>
<path d="M110.984 31.6318C112.516 31.6318 113.417 32.4311 113.417 34.1196V37.1624C113.417 37.2736 113.362 37.3518 113.251 37.3831C112.596 37.5844 111.719 37.7056 110.962 37.7056C109.364 37.7056 108.352 37.1056 108.352 35.7944C108.352 34.6393 109.262 34.061 110.773 34.061C111.117 34.061 111.439 34.0943 111.717 34.1273V34.0161C111.717 33.4277 111.506 33.1054 110.785 33.1054C110.296 33.1054 109.718 33.2383 109.397 33.4161C109.297 33.4726 109.186 33.461 109.129 33.3495L108.674 32.484C108.619 32.3743 108.619 32.2964 108.696 32.2396C109.217 31.9093 110.028 31.6318 110.984 31.6318ZM110.961 36.3299C111.217 36.3299 111.516 36.285 111.715 36.2419V35.2649C111.494 35.2197 111.193 35.1983 110.949 35.1983C110.339 35.1983 110.071 35.3978 110.071 35.7534C110.073 36.1423 110.429 36.3299 110.961 36.3299Z" fill="white" fill-opacity="0.4"/>
<path d="M114.764 37.5747C114.631 37.5747 114.564 37.4968 114.564 37.3755V32.3218C114.564 32.2103 114.609 32.1321 114.709 32.0893C115.387 31.8116 116.253 31.6338 117.042 31.6338C118.731 31.6338 119.687 32.5445 119.687 34.2095V37.3755C119.687 37.4968 119.62 37.5747 119.487 37.5747H118.176C118.041 37.5747 117.977 37.4968 117.977 37.3755V34.2095C117.977 33.3984 117.633 33.1424 117.042 33.1424C116.732 33.1424 116.442 33.1876 116.265 33.2423V37.3734C116.265 37.4947 116.198 37.5729 116.075 37.5729H114.764V37.5747Z" fill="white" fill-opacity="0.4"/>
<path d="M124.398 37.5632C124.299 37.5632 124.209 37.5299 124.166 37.4303L122.866 35.431L122.556 35.7632V37.3637C122.556 37.4966 122.479 37.5632 122.356 37.5632H121.068C120.935 37.5632 120.869 37.4966 120.869 37.3637V29.8223C120.869 29.6894 120.935 29.623 121.068 29.623H122.356C122.479 29.623 122.556 29.6894 122.556 29.8223V33.7425L123.967 31.9095C124.023 31.8215 124.101 31.7882 124.199 31.7882H125.743C125.899 31.7882 125.954 31.8878 125.843 32.0207L123.965 34.2194L126.087 37.3307C126.175 37.4636 126.12 37.5632 125.966 37.5632H124.398Z" fill="white" fill-opacity="0.4"/>
</g>
<defs>
<clipPath id="clip0_16252_41552">
<rect width="126.452" height="40" fill="white"/>
</clipPath>
</defs>
</svg>
