<svg width="64" height="64" viewBox="0 0 64 64" fill="none" xmlns="http://www.w3.org/2000/svg">
<path d="M64 32C64 54.0541 54.0541 64 32 64C9.94593 64 0 54.0541 0 32C0 9.94593 9.94593 0 32 0C54.0541 0 64 9.94593 64 32Z" fill="#00F0CA" style="fill:#00F0CA;fill:color(display-p3 0.0000 0.9412 0.7922);fill-opacity:1;"/>
<path d="M64 32C64 54.0541 54.0541 64 32 64C9.94593 64 0 54.0541 0 32C0 9.94593 9.94593 0 32 0C54.0541 0 64 9.94593 64 32Z" fill="#00F0CA" style="fill:#00F0CA;fill:color(display-p3 0.0000 0.9412 0.7922);fill-opacity:1;"/>
<path d="M24.4288 31.5795C26.7578 31.5795 28.3243 33.1042 28.3243 35.926V42.279H25.5836V36.4894C25.5836 34.9846 24.9453 34.2334 23.7297 34.2334C22.1851 34.2334 21.464 35.3404 21.464 37.2851V42.279H18.7428V36.4894C18.7428 34.9846 18.0825 34.2334 16.8669 34.2334C15.3418 34.2334 14.6426 35.3404 14.6426 37.2851V42.279H11.9238V31.8291H14.5622V33.4377C15.181 32.3307 16.1896 31.5771 17.7756 31.5771C19.2373 31.5771 20.3726 32.2047 20.9694 33.5218C21.6272 32.3332 22.821 31.5795 24.4288 31.5795ZM38.2689 34.9648C38.2689 30.5961 41.2971 27.6506 45.1512 27.6506C49.0052 27.6506 52.0334 30.5985 52.0334 34.9648C52.0334 39.3311 49.0052 42.279 45.1512 42.279C41.2971 42.279 38.2689 39.3336 38.2689 34.9648ZM49.149 34.9648C49.149 32.2689 47.4582 30.5763 45.1512 30.5763C42.8221 30.5763 41.1534 32.2689 41.1534 34.9648C41.1534 37.6607 42.8221 39.3533 45.1512 39.3533C47.4607 39.3533 49.149 37.6607 49.149 34.9648ZM25.3424 27.1194C25.2693 27.9249 25.854 28.6366 26.6482 28.7082L28.9967 28.9257C29.7909 28.9998 30.4925 28.4068 30.5632 27.6012C30.6363 26.7957 30.0516 26.084 29.2574 26.0124L26.9089 25.7949C26.1171 25.7233 25.4155 26.3163 25.3424 27.1194ZM28.7775 19.647C28.1221 20.1067 27.9613 21.0185 28.4145 21.6832L30.2319 24.3395C30.685 25.0042 31.584 25.1673 32.2393 24.7077C32.8946 24.2481 33.0554 23.3363 32.6023 22.6716L30.7849 20.0152C30.3318 19.3505 29.4328 19.1874 28.7775 19.647ZM37.1507 18.2237C36.3808 18.0112 35.5891 18.4708 35.3796 19.2517L34.5439 22.3652C34.3344 23.1435 34.7876 23.9491 35.5574 24.1616C36.3272 24.3741 37.119 23.9145 37.3285 23.1336L38.1641 20.0202C38.3712 19.2393 37.9181 18.4363 37.1507 18.2237ZM42.8392 24.2036C42.5054 23.4697 41.6479 23.1509 40.9244 23.4895L38.7854 24.4902C38.0618 24.8287 37.7476 25.6985 38.0813 26.4324C38.4151 27.1663 39.2726 27.4851 39.9962 27.1465L42.1351 26.1458C42.8587 25.8048 43.173 24.935 42.8392 24.2036ZM34.7291 27.6506C34.3247 27.6506 33.9349 27.794 33.6255 28.0584L29.3037 31.7377C28.6946 32.2566 28.6142 33.1807 29.1258 33.7985C29.6374 34.4163 30.5486 34.4978 31.1576 33.9789L33.5597 31.9354V42.2815H36.4442V29.3927C36.4442 28.429 35.6768 27.6506 34.7291 27.6506Z" fill="#141414" style="fill:#141414;fill:color(display-p3 0.0784 0.0784 0.0784);fill-opacity:1;"/>
</svg>
