<svg width="48" height="29" viewBox="0 0 48 29" fill="none" xmlns="http://www.w3.org/2000/svg">
<path d="M14.965 15.8454C17.7522 15.8454 19.6268 17.6472 19.6268 20.9822V28.4902H16.3469V21.648C16.3469 19.8696 15.5831 18.9818 14.1283 18.9818C12.2799 18.9818 11.4169 20.2901 11.4169 22.5884V28.4902H8.16036V21.648C8.16036 19.8696 7.37027 18.9818 5.91546 18.9818C4.09039 18.9818 3.25365 20.2901 3.25365 22.5884V28.4902H0V16.1404H3.15744V18.0415C3.89796 16.7332 5.10496 15.8425 7.00292 15.8425C8.75219 15.8425 10.1108 16.5843 10.8251 18.1408C11.6122 16.7361 13.0408 15.8454 14.965 15.8454ZM31.5277 19.8462C31.5277 14.6831 35.1516 11.2022 39.7639 11.2022C44.3761 11.2022 48 14.6861 48 19.8462C48 25.0063 44.3761 28.4902 39.7639 28.4902C35.1516 28.4902 31.5277 25.0093 31.5277 19.8462ZM44.5481 19.8462C44.5481 16.6602 42.5248 14.6598 39.7639 14.6598C36.9767 14.6598 34.9796 16.6602 34.9796 19.8462C34.9796 23.0322 36.9767 25.0326 39.7639 25.0326C42.5277 25.0326 44.5481 23.0322 44.5481 19.8462ZM16.0583 10.5743C15.9708 11.5263 16.6706 12.3674 17.621 12.4521L20.4315 12.709C21.3819 12.7966 22.2216 12.0958 22.3061 11.1438C22.3936 10.1918 21.6939 9.35071 20.7434 9.26602L17.9329 9.00905C16.9854 8.92436 16.1458 9.62522 16.0583 10.5743ZM20.1691 1.74338C19.3849 2.28656 19.1924 3.36414 19.7347 4.1497L21.9096 7.289C22.4519 8.07455 23.5277 8.26729 24.312 7.72412C25.0962 7.18094 25.2886 6.10336 24.7464 5.31781L22.5714 2.17851C22.0292 1.39295 20.9534 1.20021 20.1691 1.74338ZM30.1895 0.0613034C29.2682 -0.189841 28.3207 0.353332 28.07 1.27614L27.07 4.9557C26.8193 5.87558 27.3615 6.82759 28.2828 7.07874C29.2041 7.32988 30.1516 6.78671 30.4023 5.8639L31.4023 2.18434C31.6502 1.26154 31.1079 0.312448 30.1895 0.0613034ZM36.9971 7.12839C36.5977 6.26106 35.5714 5.88434 34.7055 6.28442L32.1458 7.46713C31.2799 7.86721 30.9038 8.89515 31.3032 9.76248C31.7026 10.6298 32.7289 11.0065 33.5948 10.6064L36.1545 9.42372C37.0204 9.02072 37.3965 7.99279 36.9971 7.12839ZM27.2916 11.2022C26.8076 11.2022 26.3411 11.3715 25.9708 11.684L20.7988 16.0323C20.07 16.6456 19.9738 17.7378 20.586 18.4678C21.1983 19.1979 22.2886 19.2943 23.0175 18.681L25.8921 16.2659V28.4932H29.344V13.261C29.344 12.1221 28.4257 11.2022 27.2916 11.2022Z" fill="white" style="fill:white;fill-opacity:1;"/>
</svg>
