<svg width="251" height="463" viewBox="0 0 251 463" fill="none" xmlns="http://www.w3.org/2000/svg">
<path d="M199.54 449.404C199.54 449.404 201.677 456.998 195.596 458.547C189.131 460.2 172.532 461.802 168.751 460.717C164.971 459.632 157.466 455.81 154.781 454.157C152.097 452.504 147.002 450.902 144.811 449.249C142.619 447.596 144.263 439.642 144.811 437.214C145.358 434.786 154.781 441.243 154.781 441.243L199.54 449.404Z" fill="black" stroke="black" style="fill:black;fill-opacity:1;stroke:black;stroke-opacity:1;" stroke-width="2" stroke-miterlimit="10" stroke-linecap="round"/>
<path d="M167.638 408.713C167.638 408.713 168.458 427.889 173.758 430.172C177.529 431.795 179.66 433.367 181.791 435.853C183.649 437.984 186.382 438.948 188.239 439.861C192.502 441.991 195.179 444.68 197.857 445.238C200.043 445.644 201.081 449.55 197.857 451.681C194.633 453.811 185.562 453.811 180.753 454.877C175.944 455.942 171.627 453.811 167.911 451.123C164.195 448.434 156.545 449.144 153.813 446.303C151.244 443.615 144.632 443.107 145.124 437.172C145.342 434.534 145.725 432.607 146.545 429.106C147.583 424.744 145.069 419.823 144.796 416.221C144.25 409.778 143.703 407.09 143.703 407.09" fill="#FBCFC6" style="fill:#FBCFC6;fill:color(display-p3 0.9843 0.8118 0.7765);fill-opacity:1;"/>
<path d="M167.638 408.713C167.638 408.713 168.458 427.889 173.758 430.172C177.529 431.795 179.66 433.367 181.791 435.853C183.649 437.984 186.382 438.948 188.239 439.861C192.502 441.991 195.179 444.68 197.857 445.238C200.043 445.644 201.081 449.55 197.857 451.681C194.633 453.811 185.562 453.811 180.753 454.877C175.944 455.942 171.627 453.811 167.911 451.123C164.195 448.434 156.545 449.144 153.813 446.303C151.244 443.615 144.632 443.107 145.124 437.172C145.342 434.534 145.725 432.607 146.545 429.106C147.583 424.744 145.069 419.823 144.796 416.221C144.25 409.778 143.703 407.09 143.703 407.09" stroke="black" style="stroke:black;stroke-opacity:1;" stroke-width="2" stroke-linecap="round"/>
<path d="M193.988 443.331C193.988 443.331 178.869 440.022 165.294 454.417L153.316 448.322C153.316 448.322 155.925 434.978 177.805 433.875C180.466 433.717 183.554 433.297 186.695 434.978C189.037 436.239 193.243 439.391 193.988 443.331Z" fill="#AFE0FF" stroke="black" style="fill:#AFE0FF;fill:color(display-p3 0.6875 0.8789 1.0000);fill-opacity:1;stroke:black;stroke-opacity:1;" stroke-width="2" stroke-linecap="round" stroke-linejoin="round"/>
<path d="M219.349 443.449C219.349 443.449 225.515 448.312 229.17 443.79C233.054 439.019 240.715 425.637 241.109 422.017C241.502 418.398 240.787 410.501 240.272 407.591C239.757 404.682 240.165 399.669 239.456 397.2C238.748 394.731 230.837 392.894 228.44 392.368C226.044 391.842 228.455 402.408 228.455 402.408L219.349 443.449Z" fill="black" stroke="black" style="fill:black;fill-opacity:1;stroke:black;stroke-opacity:1;" stroke-width="2" stroke-miterlimit="10" stroke-linecap="round"/>
<path d="M183.454 403.688C183.454 403.688 210.83 407.77 210.975 413.157C211.059 416.954 211.739 419.393 213.202 422.175C214.478 424.586 214.337 427.302 214.46 429.149C214.841 433.598 216.308 436.903 215.797 439.398C215.38 441.413 218.519 443.832 221.667 441.973C224.816 440.114 228.157 432.496 230.924 428.85C233.69 425.203 233.308 420.754 232.224 416.576C231.14 412.398 234.607 406.223 233.015 402.806C231.526 399.549 233.463 393.803 227.891 391.88C225.409 391.022 223.52 390.541 220.021 389.874C215.627 388.988 201.902 389.159 198.731 387.478C193.052 384.467 190.798 382.957 190.798 382.957" fill="#FBCFC6" style="fill:#FBCFC6;fill:color(display-p3 0.9843 0.8118 0.7765);fill-opacity:1;"/>
<path d="M183.454 403.688C183.454 403.688 210.83 407.77 210.975 413.157C211.059 416.954 211.739 419.393 213.202 422.175C214.478 424.586 214.337 427.302 214.46 429.149C214.841 433.598 216.308 436.903 215.797 439.398C215.38 441.413 218.519 443.832 221.667 441.973C224.816 440.114 228.157 432.496 230.924 428.85C233.69 425.203 233.308 420.754 232.224 416.576C231.14 412.398 234.607 406.223 233.015 402.806C231.526 399.549 233.463 393.803 227.891 391.88C225.409 391.022 223.52 390.541 220.021 389.874C215.627 388.988 201.902 389.159 198.731 387.478C193.052 384.467 190.798 382.957 190.798 382.957" stroke="black" style="stroke:black;stroke-opacity:1;" stroke-width="2" stroke-linecap="round"/>
<path d="M215.392 436.432C215.392 436.432 218.194 422.039 236.106 415.899L235.257 403.156C235.257 403.156 222.492 400.228 213.2 418.745C212.076 421.039 210.53 423.497 210.806 426.871C210.989 429.39 212.234 434.292 215.392 436.432Z" fill="#AFE0FF" stroke="black" style="fill:#AFE0FF;fill:color(display-p3 0.6875 0.8789 1.0000);fill-opacity:1;stroke:black;stroke-opacity:1;" stroke-width="2" stroke-linecap="round" stroke-linejoin="round"/>
<path d="M198.455 180.066C198.455 180.066 207.403 213.713 208.069 231.091C208.734 248.469 193.205 332.697 192.17 347.191C191.061 361.611 172.204 418.921 172.204 418.921C172.204 418.921 137.374 412.709 135.969 418.921C135.969 418.921 137.226 313.766 151.202 303.783C151.202 256.012 144.177 250.54 144.177 250.54" fill="#D9D9D9" style="fill:#D9D9D9;fill:color(display-p3 0.8510 0.8510 0.8510);fill-opacity:1;"/>
<path d="M198.455 180.066C198.455 180.066 207.403 213.713 208.069 231.091C208.734 248.469 193.205 332.697 192.17 347.191C191.061 361.611 172.204 418.921 172.204 418.921C172.204 418.921 137.374 412.709 135.969 418.921C135.969 418.921 137.226 313.766 151.202 303.783C151.202 256.012 144.177 250.54 144.177 250.54" stroke="black" style="stroke:black;stroke-opacity:1;" stroke-width="2" stroke-linecap="round" stroke-linejoin="round"/>
<path d="M121.18 235.527C121.18 235.527 133.381 252.018 144.843 256.972" stroke="black" style="stroke:black;stroke-opacity:1;" stroke-width="2" stroke-linecap="round" stroke-linejoin="round"/>
<path d="M33.9203 63.2284C29.7792 63.2284 5.67188 68.257 5.67188 79.8669C5.67188 91.4769 22.1625 90.9592 22.1625 90.9592L61.7251 88.0013L58.1755 61.6016C51.0025 63.0066 38.0614 63.2284 33.9203 63.2284Z" fill="#FBCDBD" stroke="black" style="fill:#FBCDBD;fill:color(display-p3 0.9843 0.8039 0.7412);fill-opacity:1;stroke:black;stroke-opacity:1;" stroke-width="2" stroke-linecap="round" stroke-linejoin="round"/>
<path d="M150.242 249.58C150.242 249.58 148.615 284.779 146.988 298.46C145.361 312.214 201.414 380.099 201.414 380.099C201.414 395.702 188.104 407.83 188.104 407.83C76.9585 393.04 102.249 279.011 92.3398 195.597L101.214 199.516C109.792 206.393 122.807 207.503 142.107 207.503C156.01 207.725 173.092 200.847 183.297 196.484L186.477 197.889L198.013 190.051" fill="#D9D9D9" style="fill:#D9D9D9;fill:color(display-p3 0.8510 0.8510 0.8510);fill-opacity:1;"/>
<path d="M150.242 249.58C150.242 249.58 148.615 284.779 146.988 298.46C145.361 312.214 201.414 380.099 201.414 380.099C201.414 395.702 188.104 407.83 188.104 407.83C76.9585 393.04 102.249 279.011 92.3398 195.597L101.214 199.516C109.792 206.393 122.807 207.503 142.107 207.503C156.01 207.725 173.092 200.847 183.297 196.484L186.477 197.889L198.013 190.051" stroke="black" style="stroke:black;stroke-opacity:1;" stroke-width="2" stroke-linecap="round" stroke-linejoin="round"/>
<path d="M33.2539 81.0453C33.2539 80.8974 33.2539 80.7495 33.2539 80.6016Z" fill="#FBCFC6" style="fill:#FBCFC6;fill:color(display-p3 0.9843 0.8118 0.7765);fill-opacity:1;"/>
<path d="M33.2539 81.0453C33.2539 80.8974 33.2539 80.7495 33.2539 80.6016" stroke="black" style="stroke:black;stroke-opacity:1;" stroke-width="2" stroke-linecap="round" stroke-linejoin="round"/>
<path d="M14.3243 73.6505C0.0522166 81.3411 1.01355 85.9999 1.01355 93.9864C1.01355 101.973 14.3243 98.1275 26.8956 98.1275L27.3393 90.8066C27.5612 89.1058 27.0435 85.9999 28.1528 87.257C29.7057 89.1057 32.6636 97.1662 41.1677 95.5393C44.1996 93.6166 41.7593 92.4334 35.4737 85.852C35.6955 83.3377 31.4065 74.3899 23.9377 73.1328" fill="#FBCFC6" style="fill:#FBCFC6;fill:color(display-p3 0.9843 0.8118 0.7765);fill-opacity:1;"/>
<path d="M14.3243 73.6505C0.0522166 81.3411 1.01355 85.9999 1.01355 93.9864C1.01355 101.973 14.3243 98.1275 26.8956 98.1275L27.3393 90.8066C27.5612 89.1058 27.0435 85.9999 28.1528 87.257C29.7057 89.1057 32.6636 97.1662 41.1677 95.5393C44.1996 93.6166 41.7593 92.4334 35.4737 85.852C35.6955 83.3377 31.4065 74.3899 23.9377 73.1328" stroke="black" style="stroke:black;stroke-opacity:1;" stroke-width="2" stroke-linecap="round" stroke-linejoin="round"/>
<path d="M116.076 57.0865C113.931 55.6814 88.6409 53.8327 80.7283 55.9033C68.9705 59.3049 54.2547 61.6713 47.8951 63.0763C43.4582 63.2242 47.8951 90.0676 49.9657 93.7651C54.3286 104.266 59.579 114.988 70.6713 113.066C89.2325 130.37 101.434 128.225 101.434 128.225L120.661 55.4596C120.883 55.3117 116.298 57.2344 116.076 57.0865Z" fill="#03EDC3" stroke="black" style="fill:#03EDC3;fill:color(display-p3 0.0116 0.9292 0.7640);fill-opacity:1;stroke:black;stroke-opacity:1;" stroke-width="2" stroke-miterlimit="10" stroke-linecap="round" stroke-linejoin="round"/>
<path d="M108.389 60.1953C108.389 60.1953 90.5669 114.696 87.535 132.443C84.5031 150.191 87.535 209.128 87.535 209.128C87.535 209.128 124.805 214.157 154.533 209.128C175.608 205.579 197.793 190.271 197.793 190.271C197.793 190.271 173.685 117.21 171.985 110.037C170.284 102.864 159.783 61.7482 159.783 61.7482L108.389 60.1953Z" fill="#AFE0FF" stroke="black" style="fill:#AFE0FF;fill:color(display-p3 0.6875 0.8789 1.0000);fill-opacity:1;stroke:black;stroke-opacity:1;" stroke-width="2" stroke-linecap="round" stroke-linejoin="round"/>
<path d="M111.861 50.2862C111.861 50.2862 106.981 57.9029 107.203 64.7802C107.572 75.3549 122.732 84.7464 130.57 82.6018C147.357 78.091 156.083 67.1465 155.048 64.3365C154.012 61.5264 150.758 46.3669 150.389 42.5955C150.019 38.8981 109.125 49.6946 109.125 49.6946" fill="#FBCFC6" style="fill:#FBCFC6;fill:color(display-p3 0.9843 0.8118 0.7765);fill-opacity:1;"/>
<path d="M111.861 50.2862C111.861 50.2862 106.981 57.9029 107.203 64.7802C107.572 75.3549 122.732 84.7464 130.57 82.6018C147.357 78.091 156.083 67.1465 155.048 64.3365C154.012 61.5264 150.758 46.3669 150.389 42.5955C150.019 38.8981 109.125 49.6946 109.125 49.6946" stroke="black" style="stroke:black;stroke-opacity:1;" stroke-width="2" stroke-linecap="round" stroke-linejoin="round"/>
<path d="M151.5 86.8147C151.5 86.8147 159.856 127.191 169.765 153.073C182.928 198.551 172.28 210.235 178.491 211.492C194.76 205.946 195.869 211.492 212.877 205.946C208.071 190.639 216.353 148.71 206.444 119.278C200.972 102.936 173.611 76.3879 170.431 73.356C170.209 73.1341 169.987 73.0602 169.765 72.9862L160.818 71.3594" fill="#03EDC3" style="fill:#03EDC3;fill:color(display-p3 0.0116 0.9292 0.7640);fill-opacity:1;"/>
<path d="M151.5 86.8147C151.5 86.8147 159.856 127.191 169.765 153.073C182.928 198.551 172.28 210.235 178.491 211.492C194.76 205.946 195.869 211.492 212.877 205.946C208.071 190.639 216.353 148.71 206.444 119.278C200.972 102.936 173.611 76.3879 170.431 73.356C170.209 73.1341 169.987 73.0602 169.765 72.9862L160.818 71.3594" stroke="black" style="stroke:black;stroke-opacity:1;" stroke-width="2" stroke-miterlimit="10" stroke-linecap="round" stroke-linejoin="round"/>
<path d="M152.828 55.5351C152.828 55.5351 164.142 50.0629 176.566 58.1973C177.379 62.7821 201.634 62.6342 216.498 85.8541C236.908 117.726 202.67 121.793 191.799 108.556" fill="#03EDC3" style="fill:#03EDC3;fill:color(display-p3 0.0116 0.9292 0.7640);fill-opacity:1;"/>
<path d="M152.828 55.5351C152.828 55.5351 164.142 50.0629 176.566 58.1973C177.379 62.7821 201.634 62.6342 216.498 85.8541C236.908 117.726 202.67 121.793 191.799 108.556" stroke="black" style="stroke:black;stroke-opacity:1;" stroke-width="2"/>
<path d="M186.328 84.2266C186.328 84.2266 180.782 91.8433 181.078 118.909L186.328 84.2266Z" fill="#03EDC3" style="fill:#03EDC3;fill:color(display-p3 0.0116 0.9292 0.7640);fill-opacity:1;"/>
<path d="M175.164 217.039C175.164 217.039 198.384 226.209 201.046 244.4L175.164 217.039Z" fill="#D9D9D9" style="fill:#D9D9D9;fill:color(display-p3 0.8510 0.8510 0.8510);fill-opacity:1;"/>
<path d="M175.164 217.039C175.164 217.039 198.384 226.209 201.046 244.4" stroke="black" style="stroke:black;stroke-opacity:1;" stroke-width="2" stroke-linecap="round" stroke-linejoin="round"/>
<path d="M154.088 64.191C154.088 64.191 157.046 81.7169 151.426 86.3757C151.426 86.5236 151.5 86.5975 151.722 86.5975C152.683 86.0799 156.824 83.1219 159.338 84.8227C160.448 85.5622 162.814 87.2631 165.106 89.1857C167.177 90.8126 170.283 89.1857 169.913 86.5975C168.952 79.9421 164.145 74.5439 163.036 68.1103C160.743 55.0214 151.943 51.25 151.943 51.25L154.088 64.191Z" fill="#03EDC3" stroke="black" style="fill:#03EDC3;fill:color(display-p3 0.0116 0.9292 0.7640);fill-opacity:1;stroke:black;stroke-opacity:1;" stroke-width="2" stroke-miterlimit="10" stroke-linecap="round" stroke-linejoin="round"/>
<path d="M78.6585 115.732C79.0283 123.422 77.993 137.62 78.6585 153.815C79.9896 183.099 83.835 210.756 83.835 210.756C83.835 210.756 91.3038 216.228 102.692 214.084C102.766 214.157 107.646 207.132 100.843 164.538C94.2617 101.164 107.794 70.9926 110.53 58.2734" fill="#03EDC3" style="fill:#03EDC3;fill:color(display-p3 0.0116 0.9292 0.7640);fill-opacity:1;"/>
<path d="M78.6585 115.732C79.0283 123.422 77.993 137.62 78.6585 153.815C79.9896 183.099 83.835 210.756 83.835 210.756C83.835 210.756 91.3038 216.228 102.692 214.084C102.766 214.157 107.646 207.132 100.843 164.538C94.2617 101.164 107.794 70.9926 110.53 58.2734" stroke="black" style="stroke:black;stroke-opacity:1;" stroke-width="2" stroke-miterlimit="10" stroke-linecap="round" stroke-linejoin="round"/>
<path d="M72.3 86.5234C72.3 86.5234 71.1168 100.574 71.5605 113.293L72.3 86.5234Z" fill="#03EDC3" style="fill:#03EDC3;fill:color(display-p3 0.0116 0.9292 0.7640);fill-opacity:1;"/>
<path d="M79.3234 88.3711C79.3234 88.3711 78.1402 102.421 78.5839 115.141" stroke="black" style="stroke:black;stroke-opacity:1;" stroke-width="2" stroke-miterlimit="10" stroke-linecap="round" stroke-linejoin="round"/>
<path d="M112.973 50.5062C112.973 50.5062 109.054 67.2926 103.138 85.7798C103.138 85.7798 101.511 73.4303 94.9294 83.1176C94.7815 83.3395 92.0454 82.4521 92.1933 82.0823C94.4117 74.7614 103.286 61.3767 110.607 50.0625L112.973 50.5062Z" fill="#03EDC3" stroke="black" style="fill:#03EDC3;fill:color(display-p3 0.0116 0.9292 0.7640);fill-opacity:1;stroke:black;stroke-opacity:1;" stroke-width="2" stroke-miterlimit="10" stroke-linecap="round" stroke-linejoin="round"/>
<path d="M174.424 51.837C173.314 34.9766 161.63 29.6523 159.042 26.3246C156.454 22.923 157.489 41.2623 156.898 45.2555C156.75 46.6606 156.602 48.1395 157.341 49.3227C157.785 50.2101 158.525 50.9496 159.042 51.837C159.856 53.168 151.278 47.8437 151.869 49.3227C152.461 50.7277 162.296 58.8621 163.997 59.1579C165.106 59.3797 165.624 60.415 165.919 61.3764C166.807 64.0385 167.768 68.6233 168.655 71.2116C172.649 84.5963 174.571 90.808 199.862 105.376C201.415 106.263 203.411 105.967 204.595 104.636C224.043 82.4518 188.03 66.4049 174.424 51.837Z" fill="#FBCDBD" stroke="black" style="fill:#FBCDBD;fill:color(display-p3 0.9843 0.8039 0.7412);fill-opacity:1;stroke:black;stroke-opacity:1;" stroke-width="2" stroke-miterlimit="10" stroke-linecap="round" stroke-linejoin="round"/>
<path d="M147.064 10.7229L153.571 10.0573C154.311 9.9834 155.79 11.4624 156.16 13.0153L162.297 49.1023C162.667 50.7292 162.297 52.1342 161.558 52.2082L155.864 53.835C155.124 53.909 153.867 52.0603 153.498 50.4334L146.251 13.7548C145.955 12.2019 146.325 10.8708 147.064 10.7229Z" fill="#AFE0FF" stroke="black" style="fill:#AFE0FF;fill:color(display-p3 0.6875 0.8789 1.0000);fill-opacity:1;stroke:black;stroke-opacity:1;" stroke-width="2" stroke-miterlimit="10" stroke-linecap="round" stroke-linejoin="round"/>
<path d="M147.506 12.5728L150.686 12.3509C151.056 12.277 151.647 13.4602 151.943 14.9392L158.524 48.364C158.82 49.9169 158.82 51.1741 158.45 51.248L155.714 52.5051C155.345 52.5791 154.753 51.3959 154.457 49.9169L147.432 15.4568C147.136 13.9039 147.136 12.6467 147.506 12.5728Z" fill="white" stroke="black" style="fill:white;fill-opacity:1;stroke:black;stroke-opacity:1;" stroke-width="2" stroke-miterlimit="10" stroke-linecap="round" stroke-linejoin="round"/>
<path d="M100.327 37.9381C100.105 34.6104 101.954 32.9835 103.654 33.4272L104.838 39.2692L106.095 45.5548C103.728 44.8893 100.475 41.2658 100.327 37.9381Z" fill="#FBCFC6" stroke="black" style="fill:#FBCFC6;fill:color(display-p3 0.9843 0.8118 0.7765);fill-opacity:1;stroke:black;stroke-opacity:1;" stroke-width="2" stroke-linecap="round" stroke-linejoin="round"/>
<path d="M143.734 56.571C144.547 55.6836 149.428 50.0635 149.946 48.9542C149.946 48.9542 149.946 48.9542 149.946 48.8803C150.094 48.6585 150.168 48.4366 150.315 48.1408C150.315 47.9929 150.463 47.919 150.537 47.7711C150.611 47.6232 150.685 47.4753 150.685 47.3274C151.647 45.1089 152.238 42.6686 152.238 40.1543C152.238 34.7561 150.833 23.9596 148.467 16.4168C144.621 7.83872 137.818 -0.591436 123.102 1.25728C121.771 1.47913 120.514 1.70098 119.183 1.92282C102.914 5.39842 101.509 22.5545 101.435 23.1461C101.287 25.5125 101.805 29.8015 102.619 34.0905V34.1645C102.619 34.2384 102.619 34.2384 102.619 34.2384C102.766 34.904 102.84 35.6435 102.988 36.2351C102.988 36.309 102.988 36.309 102.988 36.383C103.136 36.8266 103.21 37.2703 103.358 37.714C104.541 43.1123 105.872 47.6971 106.834 49.6937C106.908 49.9156 107.055 50.1374 107.203 50.3593C108.239 52.3559 116.299 60.4163 121.328 60.786" fill="#FBCFC6" style="fill:#FBCFC6;fill:color(display-p3 0.9843 0.8118 0.7765);fill-opacity:1;"/>
<path d="M143.734 56.571C144.547 55.6836 149.428 50.0635 149.946 48.9542C149.946 48.9542 149.946 48.9542 149.946 48.8803C150.094 48.6585 150.168 48.4366 150.315 48.1408C150.315 47.9929 150.463 47.919 150.537 47.7711C150.611 47.6232 150.685 47.4753 150.685 47.3274C151.647 45.1089 152.238 42.6686 152.238 40.1543C152.238 34.7561 150.833 23.9596 148.467 16.4168C144.621 7.83872 137.818 -0.591436 123.102 1.25728C121.771 1.47913 120.514 1.70098 119.183 1.92282C102.914 5.39842 101.509 22.5545 101.435 23.1461C101.287 25.5125 101.805 29.8015 102.619 34.0905V34.1645C102.619 34.2384 102.619 34.2384 102.619 34.2384C102.766 34.904 102.84 35.6435 102.988 36.2351C102.988 36.309 102.988 36.309 102.988 36.383C103.136 36.8266 103.21 37.2703 103.358 37.714C104.541 43.1123 105.872 47.6971 106.834 49.6937C106.908 49.9156 107.055 50.1374 107.203 50.3593C108.239 52.3559 116.299 60.4163 121.328 60.786" stroke="black" style="stroke:black;stroke-opacity:1;" stroke-width="2" stroke-miterlimit="10" stroke-linecap="round" stroke-linejoin="round"/>
<path d="M140.998 43.3359C132.716 52.5056 119.775 48.2905 119.184 47.3292" stroke="black" style="stroke:black;stroke-opacity:1;" stroke-width="2" stroke-linecap="round" stroke-linejoin="round"/>
<path d="M108.98 24.7731C108.98 24.7731 112.234 22.9244 116.967 21.963C121.7 20.9277 124.066 22.1109 122.883 23.7378C121.7 25.3647 111.273 26.7697 109.572 26.1781C107.871 25.5865 108.98 24.7731 108.98 24.7731Z" fill="black" style="fill:black;fill-opacity:1;"/>
<path d="M141.589 19.1564C141.589 19.1564 137.743 18.5648 132.715 19.2303C127.686 19.8959 125.69 21.8185 127.464 22.9278C129.239 24.037 139.962 21.7446 141.441 20.6354C142.92 19.6001 141.589 19.1564 141.589 19.1564Z" fill="black" style="fill:black;fill-opacity:1;"/>
<path d="M128.87 29.6562C128.87 29.6562 130.275 31.8747 131.014 33.7234C131.754 35.6461 131.088 37.4948 131.532 39.7133C131.976 42.0057 131.31 43.2628 129.757 42.6712C128.204 42.1536 127.465 40.6007 126.355 40.8965" stroke="black" style="stroke:black;stroke-opacity:1;" stroke-width="2" stroke-linecap="round" stroke-linejoin="round"/>
<path d="M131.904 26.5482C133.161 26.1045 136.711 24.9213 141.666 24.7734C142.109 24.7734 142.479 25.1432 142.331 25.5869C141.961 26.4743 141.148 28.1011 139.225 29.4322C136.415 31.4288 131.683 31.133 131.387 27.1398C131.461 26.918 131.683 26.6222 131.904 26.5482Z" fill="white" stroke="black" style="fill:white;fill-opacity:1;stroke:black;stroke-opacity:1;" stroke-width="2" stroke-linecap="round" stroke-linejoin="round"/>
<path d="M133.603 26.0316C133.603 26.1795 133.529 26.4014 133.603 26.5493C133.825 27.7325 135.082 28.5459 136.561 28.3241C137.966 28.1022 138.927 26.919 138.706 25.6619C138.632 25.4401 138.558 25.2182 138.484 25.0703C136.339 25.2182 134.638 25.7359 133.603 26.0316Z" fill="black" style="fill:black;fill-opacity:1;"/>
<path d="M122.807 28.1016C121.55 28.1016 118.074 28.1016 113.711 29.5805C113.268 29.7284 113.12 30.1721 113.416 30.5419C114.007 31.2814 115.264 32.5385 117.335 33.204C120.441 34.1654 124.508 32.3906 123.473 28.5453C123.325 28.3234 123.103 28.1016 122.807 28.1016Z" fill="white" stroke="black" style="fill:white;fill-opacity:1;stroke:black;stroke-opacity:1;" stroke-width="2" stroke-linecap="round" stroke-linejoin="round"/>
<path d="M121.107 28.6953C121.181 28.8432 121.255 28.9911 121.255 29.065C121.402 30.1003 120.441 31.1356 118.962 31.3575C117.557 31.5793 116.226 30.9877 116.078 29.9524C116.078 30.1003 116.078 29.8045 116.078 29.9524C118.297 29.4348 119.997 28.7693 121.107 28.6953Z" fill="black" style="fill:black;fill-opacity:1;"/>
<path d="M65.4219 95.4688C65.5698 102.42 67.4924 109.075 77.6974 112.255" stroke="black" style="stroke:black;stroke-opacity:1;" stroke-width="2" stroke-miterlimit="10" stroke-linecap="round" stroke-linejoin="round"/>
<path d="M129.09 44.962C126.354 43.0393 120.66 44.3704 117.554 45.4057C117.258 45.4797 116.223 46.9586 116.445 46.9586C118.589 46.7368 121.917 45.5536 123.988 45.7755C125.467 45.9234 127.02 46.5149 128.573 46.2191C129.238 46.0713 129.608 45.4057 129.09 44.962Z" fill="black" style="fill:black;fill-opacity:1;"/>
<path d="M141.811 40.9688C138.483 41.4864 134.638 42.1519 131.828 44.0746C131.015 44.6662 131.532 45.9973 132.715 45.4796C135.895 44.1485 138.483 43.3351 141.811 42.2259C142.033 42.1519 142.107 40.9688 141.811 40.9688Z" fill="black" style="fill:black;fill-opacity:1;"/>
<path d="M1.45723 93.5469C1.45723 93.5469 0.495892 100.72 2.71436 107.301C3.15805 108.632 5.74626 115.066 8.26051 113.587C8.40841 113.069 9.07395 113.069 9.2958 113.439C10.1832 115.066 11.8101 114.844 12.5495 114.77C13.5848 114.622 14.842 112.404 14.842 112.404L15.8772 94.0645" fill="#FBCDBD" style="fill:#FBCDBD;fill:color(display-p3 0.9843 0.8039 0.7412);fill-opacity:1;"/>
<path d="M1.45723 93.5469C1.45723 93.5469 0.495892 100.72 2.71436 107.301C3.15805 108.632 5.74626 115.066 8.26051 113.587C8.40841 113.069 9.07395 113.069 9.2958 113.439C10.1832 115.066 11.8101 114.844 12.5495 114.77C13.5848 114.622 14.842 112.404 14.842 112.404L15.8772 94.0645" stroke="black" style="stroke:black;stroke-opacity:1;" stroke-width="2" stroke-miterlimit="10" stroke-linecap="round" stroke-linejoin="round"/>
<path d="M12.477 92.1406C12.477 92.1406 11.072 104.046 11.7376 107.596C12.4031 111.145 12.8468 119.354 16.0266 119.132C18.319 118.984 18.4669 115.213 18.4669 112.033C18.4669 108.853 18.4669 105.969 18.4669 105.969L18.9845 99.3876L19.724 94.5809" fill="#FBCDBD" style="fill:#FBCDBD;fill:color(display-p3 0.9843 0.8039 0.7412);fill-opacity:1;"/>
<path d="M12.477 92.1406C12.477 92.1406 11.072 104.046 11.7376 107.596C12.4031 111.145 12.8468 119.354 16.0266 119.132C18.319 118.984 18.4669 115.213 18.4669 112.033C18.4669 108.853 18.4669 105.969 18.4669 105.969L18.9845 99.3876L19.724 94.5809" stroke="black" style="stroke:black;stroke-opacity:1;" stroke-width="2" stroke-miterlimit="10" stroke-linecap="round" stroke-linejoin="round"/>
<path d="M19.5742 94.6566C19.5742 94.6566 19.3523 105.009 20.0918 108.337C20.8313 111.665 23.1237 119.725 26.1556 117.211C28.522 115.214 26.3775 112.774 26.3775 106.932C26.3775 101.09 26.8951 93.6953 26.8951 93.6953" fill="#FBCDBD" style="fill:#FBCDBD;fill:color(display-p3 0.9843 0.8039 0.7412);fill-opacity:1;"/>
<path d="M19.5742 94.6566C19.5742 94.6566 19.3523 105.009 20.0918 108.337C20.8313 111.665 23.1237 119.725 26.1556 117.211C28.522 115.214 26.3775 112.774 26.3775 106.932C26.3775 101.09 26.8951 93.6953 26.8951 93.6953" stroke="black" style="stroke:black;stroke-opacity:1;" stroke-width="2" stroke-miterlimit="10" stroke-linecap="round" stroke-linejoin="round"/>
<path d="M160.817 29.5807C160.817 29.5807 154.901 25.2916 157.564 22.9253C159.116 21.5203 162.814 25.1437 162.814 25.1437C162.814 25.1437 167.029 28.9151 167.029 30.7639C167.029 32.6126 167.029 32.6126 167.029 32.6126" fill="#FBCDBD" style="fill:#FBCDBD;fill:color(display-p3 0.9843 0.8039 0.7412);fill-opacity:1;"/>
<path d="M160.817 29.5807C160.817 29.5807 154.901 25.2916 157.564 22.9253C159.116 21.5203 162.814 25.1437 162.814 25.1437C162.814 25.1437 167.029 28.9151 167.029 30.7639C167.029 32.6126 167.029 32.6126 167.029 32.6126" stroke="black" style="stroke:black;stroke-opacity:1;" stroke-width="2" stroke-miterlimit="10" stroke-linecap="round" stroke-linejoin="round"/>
<path d="M161.482 29.8034C161.482 29.8034 159.486 27.5849 158.007 28.5462C156.528 29.5076 158.524 32.3176 160.373 33.9445C161.852 35.2756 163.923 36.7546 163.923 36.7546" fill="#FBCDBD" style="fill:#FBCDBD;fill:color(display-p3 0.9843 0.8039 0.7412);fill-opacity:1;"/>
<path d="M161.482 29.8034C161.482 29.8034 159.486 27.5849 158.007 28.5462C156.528 29.5076 158.524 32.3176 160.373 33.9445C161.852 35.2756 163.923 36.7546 163.923 36.7546" stroke="black" style="stroke:black;stroke-opacity:1;" stroke-width="2" stroke-miterlimit="10" stroke-linecap="round" stroke-linejoin="round"/>
<path d="M163.998 36.8268C163.998 36.8268 162.002 34.6083 160.523 35.5697C158.97 36.531 160.523 40.3763 162.889 40.9679C165.255 41.5595 165.699 41.8553 165.699 41.8553" fill="#FBCDBD" style="fill:#FBCDBD;fill:color(display-p3 0.9843 0.8039 0.7412);fill-opacity:1;"/>
<path d="M163.998 36.8268C163.998 36.8268 162.002 34.6083 160.523 35.5697C158.97 36.531 160.523 40.3763 162.889 40.9679C165.255 41.5595 165.699 41.8553 165.699 41.8553" stroke="black" style="stroke:black;stroke-opacity:1;" stroke-width="2" stroke-miterlimit="10" stroke-linecap="round" stroke-linejoin="round"/>
<path d="M7.0038 100.273C5.82062 105.08 6.78195 110.404 9.59201 114.472" stroke="black" style="stroke:black;stroke-opacity:1;" stroke-width="2" stroke-miterlimit="10" stroke-linecap="round" stroke-linejoin="round"/>
<path d="M165.475 43.6289C164.292 47.3263 164.587 51.4675 166.436 54.8691" stroke="black" style="stroke:black;stroke-opacity:1;" stroke-width="2" stroke-miterlimit="10" stroke-linecap="round" stroke-linejoin="round"/>
<path d="M174.35 52.2812C174.498 54.8695 173.462 57.3837 171.688 59.2324" stroke="black" style="stroke:black;stroke-opacity:1;" stroke-width="2" stroke-miterlimit="10" stroke-linecap="round" stroke-linejoin="round"/>
</svg>
