<svg xmlns="http://www.w3.org/2000/svg" xmlns:xlink="http://www.w3.org/1999/xlink" width="1024" height="1024" viewBox="0 0 1024 1024" shape-rendering="crispEdges"><rect x="0" y="0" width="1024" height="1024" fill="#FFFFFF"/><path d="M296.8275862068965,31.999999999999943 h33.10344827586207 v33.10344827586207 h-33.10344827586207z M329.9310344827586,31.999999999999943 h33.10344827586207 v33.10344827586207 h-33.10344827586207z M462.34482758620686,31.999999999999943 h33.10344827586207 v33.10344827586207 h-33.10344827586207z M561.655172413793,31.999999999999943 h33.10344827586207 v33.10344827586207 h-33.10344827586207z M594.7586206896551,31.999999999999943 h33.10344827586207 v33.10344827586207 h-33.10344827586207z M627.8620689655172,31.999999999999943 h33.10344827586207 v33.10344827586207 h-33.10344827586207z M660.9655172413793,31.999999999999943 h33.10344827586207 v33.10344827586207 h-33.10344827586207z M694.0689655172414,31.999999999999943 h33.10344827586207 v33.10344827586207 h-33.10344827586207z M429.2413793103448,65.10344827586201 h33.10344827586207 v33.10344827586207 h-33.10344827586207z M495.44827586206895,65.10344827586201 h33.10344827586207 v33.10344827586207 h-33.10344827586207z M561.655172413793,65.10344827586201 h33.10344827586207 v33.10344827586207 h-33.10344827586207z M594.7586206896551,65.10344827586201 h33.10344827586207 v33.10344827586207 h-33.10344827586207z M694.0689655172414,65.10344827586201 h33.10344827586207 v33.10344827586207 h-33.10344827586207z M329.9310344827586,98.20689655172409 h33.10344827586207 v33.10344827586207 h-33.10344827586207z M363.03448275862064,98.20689655172409 h33.10344827586207 v33.10344827586207 h-33.10344827586207z M429.2413793103448,98.20689655172409 h33.10344827586207 v33.10344827586207 h-33.10344827586207z M462.34482758620686,98.20689655172409 h33.10344827586207 v33.10344827586207 h-33.10344827586207z M495.44827586206895,98.20689655172409 h33.10344827586207 v33.10344827586207 h-33.10344827586207z M561.655172413793,98.20689655172409 h33.10344827586207 v33.10344827586207 h-33.10344827586207z M694.0689655172414,98.20689655172409 h33.10344827586207 v33.10344827586207 h-33.10344827586207z M329.9310344827586,131.31034482758616 h33.10344827586207 v33.10344827586207 h-33.10344827586207z M396.13793103448273,131.31034482758616 h33.10344827586207 v33.10344827586207 h-33.10344827586207z M429.2413793103448,131.31034482758616 h33.10344827586207 v33.10344827586207 h-33.10344827586207z M495.44827586206895,131.31034482758616 h33.10344827586207 v33.10344827586207 h-33.10344827586207z M528.5517241379309,131.31034482758616 h33.10344827586207 v33.10344827586207 h-33.10344827586207z M561.655172413793,131.31034482758616 h33.10344827586207 v33.10344827586207 h-33.10344827586207z M594.7586206896551,131.31034482758616 h33.10344827586207 v33.10344827586207 h-33.10344827586207z M296.8275862068965,164.41379310344823 h33.10344827586207 v33.10344827586207 h-33.10344827586207z M329.9310344827586,164.41379310344823 h33.10344827586207 v33.10344827586207 h-33.10344827586207z M462.34482758620686,164.41379310344823 h33.10344827586207 v33.10344827586207 h-33.10344827586207z M495.44827586206895,164.41379310344823 h33.10344827586207 v33.10344827586207 h-33.10344827586207z M561.655172413793,164.41379310344823 h33.10344827586207 v33.10344827586207 h-33.10344827586207z M627.8620689655172,164.41379310344823 h33.10344827586207 v33.10344827586207 h-33.10344827586207z M660.9655172413793,164.41379310344823 h33.10344827586207 v33.10344827586207 h-33.10344827586207z M694.0689655172414,164.41379310344823 h33.10344827586207 v33.10344827586207 h-33.10344827586207z M296.8275862068965,197.5172413793103 h33.10344827586207 v33.10344827586207 h-33.10344827586207z M329.9310344827586,197.5172413793103 h33.10344827586207 v33.10344827586207 h-33.10344827586207z M462.34482758620686,197.5172413793103 h33.10344827586207 v33.10344827586207 h-33.10344827586207z M561.655172413793,197.5172413793103 h33.10344827586207 v33.10344827586207 h-33.10344827586207z M594.7586206896551,197.5172413793103 h33.10344827586207 v33.10344827586207 h-33.10344827586207z M694.0689655172414,197.5172413793103 h33.10344827586207 v33.10344827586207 h-33.10344827586207z M296.8275862068965,230.62068965517238 h33.10344827586207 v33.10344827586207 h-33.10344827586207z M363.03448275862064,230.62068965517238 h33.10344827586207 v33.10344827586207 h-33.10344827586207z M429.2413793103448,230.62068965517238 h33.10344827586207 v33.10344827586207 h-33.10344827586207z M495.44827586206895,230.62068965517238 h33.10344827586207 v33.10344827586207 h-33.10344827586207z M561.655172413793,230.62068965517238 h33.10344827586207 v33.10344827586207 h-33.10344827586207z M627.8620689655172,230.62068965517238 h33.10344827586207 v33.10344827586207 h-33.10344827586207z M694.0689655172414,230.62068965517238 h33.10344827586207 v33.10344827586207 h-33.10344827586207z M396.13793103448273,263.7241379310344 h33.10344827586207 v33.10344827586207 h-33.10344827586207z M462.34482758620686,263.7241379310344 h33.10344827586207 v33.10344827586207 h-33.10344827586207z M528.5517241379309,263.7241379310344 h33.10344827586207 v33.10344827586207 h-33.10344827586207z M627.8620689655172,263.7241379310344 h33.10344827586207 v33.10344827586207 h-33.10344827586207z M694.0689655172414,263.7241379310344 h33.10344827586207 v33.10344827586207 h-33.10344827586207z M65.10344827586201,296.8275862068965 h33.10344827586207 v33.10344827586207 h-33.10344827586207z M98.20689655172409,296.8275862068965 h33.10344827586207 v33.10344827586207 h-33.10344827586207z M131.31034482758616,296.8275862068965 h33.10344827586207 v33.10344827586207 h-33.10344827586207z M164.41379310344823,296.8275862068965 h33.10344827586207 v33.10344827586207 h-33.10344827586207z M197.5172413793103,296.8275862068965 h33.10344827586207 v33.10344827586207 h-33.10344827586207z M230.62068965517238,296.8275862068965 h33.10344827586207 v33.10344827586207 h-33.10344827586207z M263.7241379310344,296.8275862068965 h33.10344827586207 v33.10344827586207 h-33.10344827586207z M329.9310344827586,296.8275862068965 h33.10344827586207 v33.10344827586207 h-33.10344827586207z M462.34482758620686,296.8275862068965 h33.10344827586207 v33.10344827586207 h-33.10344827586207z M561.655172413793,296.8275862068965 h33.10344827586207 v33.10344827586207 h-33.10344827586207z M594.7586206896551,296.8275862068965 h33.10344827586207 v33.10344827586207 h-33.10344827586207z M627.8620689655172,296.8275862068965 h33.10344827586207 v33.10344827586207 h-33.10344827586207z M694.0689655172414,296.8275862068965 h33.10344827586207 v33.10344827586207 h-33.10344827586207z M793.3793103448277,296.8275862068965 h33.10344827586207 v33.10344827586207 h-33.10344827586207z M826.4827586206898,296.8275862068965 h33.10344827586207 v33.10344827586207 h-33.10344827586207z M958.8965517241379,296.8275862068965 h33.10344827586207 v33.10344827586207 h-33.10344827586207z M31.999999999999943,329.9310344827586 h33.10344827586207 v33.10344827586207 h-33.10344827586207z M65.10344827586201,329.9310344827586 h33.10344827586207 v33.10344827586207 h-33.10344827586207z M98.20689655172409,329.9310344827586 h33.10344827586207 v33.10344827586207 h-33.10344827586207z M197.5172413793103,329.9310344827586 h33.10344827586207 v33.10344827586207 h-33.10344827586207z M263.7241379310344,329.9310344827586 h33.10344827586207 v33.10344827586207 h-33.10344827586207z M296.8275862068965,329.9310344827586 h33.10344827586207 v33.10344827586207 h-33.10344827586207z M329.9310344827586,329.9310344827586 h33.10344827586207 v33.10344827586207 h-33.10344827586207z M363.03448275862064,329.9310344827586 h33.10344827586207 v33.10344827586207 h-33.10344827586207z M429.2413793103448,329.9310344827586 h33.10344827586207 v33.10344827586207 h-33.10344827586207z M462.34482758620686,329.9310344827586 h33.10344827586207 v33.10344827586207 h-33.10344827586207z M561.655172413793,329.9310344827586 h33.10344827586207 v33.10344827586207 h-33.10344827586207z M660.9655172413793,329.9310344827586 h33.10344827586207 v33.10344827586207 h-33.10344827586207z M727.1724137931035,329.9310344827586 h33.10344827586207 v33.10344827586207 h-33.10344827586207z M760.2758620689656,329.9310344827586 h33.10344827586207 v33.10344827586207 h-33.10344827586207z M793.3793103448277,329.9310344827586 h33.10344827586207 v33.10344827586207 h-33.10344827586207z M826.4827586206898,329.9310344827586 h33.10344827586207 v33.10344827586207 h-33.10344827586207z M859.5862068965516,329.9310344827586 h33.10344827586207 v33.10344827586207 h-33.10344827586207z M892.6896551724137,329.9310344827586 h33.10344827586207 v33.10344827586207 h-33.10344827586207z M958.8965517241379,329.9310344827586 h33.10344827586207 v33.10344827586207 h-33.10344827586207z M98.20689655172409,363.03448275862064 h33.10344827586207 v33.10344827586207 h-33.10344827586207z M197.5172413793103,363.03448275862064 h33.10344827586207 v33.10344827586207 h-33.10344827586207z M230.62068965517238,363.03448275862064 h33.10344827586207 v33.10344827586207 h-33.10344827586207z M329.9310344827586,363.03448275862064 h33.10344827586207 v33.10344827586207 h-33.10344827586207z M396.13793103448273,363.03448275862064 h33.10344827586207 v33.10344827586207 h-33.10344827586207z M429.2413793103448,363.03448275862064 h33.10344827586207 v33.10344827586207 h-33.10344827586207z M528.5517241379309,363.03448275862064 h33.10344827586207 v33.10344827586207 h-33.10344827586207z M594.7586206896551,363.03448275862064 h33.10344827586207 v33.10344827586207 h-33.10344827586207z M627.8620689655172,363.03448275862064 h33.10344827586207 v33.10344827586207 h-33.10344827586207z M727.1724137931035,363.03448275862064 h33.10344827586207 v33.10344827586207 h-33.10344827586207z M760.2758620689656,363.03448275862064 h33.10344827586207 v33.10344827586207 h-33.10344827586207z M859.5862068965516,363.03448275862064 h33.10344827586207 v33.10344827586207 h-33.10344827586207z M892.6896551724137,363.03448275862064 h33.10344827586207 v33.10344827586207 h-33.10344827586207z M31.999999999999943,396.13793103448273 h33.10344827586207 v33.10344827586207 h-33.10344827586207z M65.10344827586201,396.13793103448273 h33.10344827586207 v33.10344827586207 h-33.10344827586207z M98.20689655172409,396.13793103448273 h33.10344827586207 v33.10344827586207 h-33.10344827586207z M131.31034482758616,396.13793103448273 h33.10344827586207 v33.10344827586207 h-33.10344827586207z M197.5172413793103,396.13793103448273 h33.10344827586207 v33.10344827586207 h-33.10344827586207z M462.34482758620686,396.13793103448273 h33.10344827586207 v33.10344827586207 h-33.10344827586207z M495.44827586206895,396.13793103448273 h33.10344827586207 v33.10344827586207 h-33.10344827586207z M627.8620689655172,396.13793103448273 h33.10344827586207 v33.10344827586207 h-33.10344827586207z M727.1724137931035,396.13793103448273 h33.10344827586207 v33.10344827586207 h-33.10344827586207z M760.2758620689656,396.13793103448273 h33.10344827586207 v33.10344827586207 h-33.10344827586207z M793.3793103448277,396.13793103448273 h33.10344827586207 v33.10344827586207 h-33.10344827586207z M925.7931034482758,396.13793103448273 h33.10344827586207 v33.10344827586207 h-33.10344827586207z M98.20689655172409,429.2413793103448 h33.10344827586207 v33.10344827586207 h-33.10344827586207z M230.62068965517238,429.2413793103448 h33.10344827586207 v33.10344827586207 h-33.10344827586207z M263.7241379310344,429.2413793103448 h33.10344827586207 v33.10344827586207 h-33.10344827586207z M296.8275862068965,429.2413793103448 h33.10344827586207 v33.10344827586207 h-33.10344827586207z M363.03448275862064,429.2413793103448 h33.10344827586207 v33.10344827586207 h-33.10344827586207z M396.13793103448273,429.2413793103448 h33.10344827586207 v33.10344827586207 h-33.10344827586207z M429.2413793103448,429.2413793103448 h33.10344827586207 v33.10344827586207 h-33.10344827586207z M462.34482758620686,429.2413793103448 h33.10344827586207 v33.10344827586207 h-33.10344827586207z M495.44827586206895,429.2413793103448 h33.10344827586207 v33.10344827586207 h-33.10344827586207z M528.5517241379309,429.2413793103448 h33.10344827586207 v33.10344827586207 h-33.10344827586207z M594.7586206896551,429.2413793103448 h33.10344827586207 v33.10344827586207 h-33.10344827586207z M660.9655172413793,429.2413793103448 h33.10344827586207 v33.10344827586207 h-33.10344827586207z M727.1724137931035,429.2413793103448 h33.10344827586207 v33.10344827586207 h-33.10344827586207z M793.3793103448277,429.2413793103448 h33.10344827586207 v33.10344827586207 h-33.10344827586207z M892.6896551724137,429.2413793103448 h33.10344827586207 v33.10344827586207 h-33.10344827586207z M925.7931034482758,429.2413793103448 h33.10344827586207 v33.10344827586207 h-33.10344827586207z M958.8965517241379,429.2413793103448 h33.10344827586207 v33.10344827586207 h-33.10344827586207z M31.999999999999943,462.34482758620686 h33.10344827586207 v33.10344827586207 h-33.10344827586207z M65.10344827586201,462.34482758620686 h33.10344827586207 v33.10344827586207 h-33.10344827586207z M131.31034482758616,462.34482758620686 h33.10344827586207 v33.10344827586207 h-33.10344827586207z M197.5172413793103,462.34482758620686 h33.10344827586207 v33.10344827586207 h-33.10344827586207z M296.8275862068965,462.34482758620686 h33.10344827586207 v33.10344827586207 h-33.10344827586207z M396.13793103448273,462.34482758620686 h33.10344827586207 v33.10344827586207 h-33.10344827586207z M429.2413793103448,462.34482758620686 h33.10344827586207 v33.10344827586207 h-33.10344827586207z M462.34482758620686,462.34482758620686 h33.10344827586207 v33.10344827586207 h-33.10344827586207z M528.5517241379309,462.34482758620686 h33.10344827586207 v33.10344827586207 h-33.10344827586207z M561.655172413793,462.34482758620686 h33.10344827586207 v33.10344827586207 h-33.10344827586207z M627.8620689655172,462.34482758620686 h33.10344827586207 v33.10344827586207 h-33.10344827586207z M660.9655172413793,462.34482758620686 h33.10344827586207 v33.10344827586207 h-33.10344827586207z M694.0689655172414,462.34482758620686 h33.10344827586207 v33.10344827586207 h-33.10344827586207z M727.1724137931035,462.34482758620686 h33.10344827586207 v33.10344827586207 h-33.10344827586207z M760.2758620689656,462.34482758620686 h33.10344827586207 v33.10344827586207 h-33.10344827586207z M826.4827586206898,462.34482758620686 h33.10344827586207 v33.10344827586207 h-33.10344827586207z M859.5862068965516,462.34482758620686 h33.10344827586207 v33.10344827586207 h-33.10344827586207z M925.7931034482758,462.34482758620686 h33.10344827586207 v33.10344827586207 h-33.10344827586207z M958.8965517241379,462.34482758620686 h33.10344827586207 v33.10344827586207 h-33.10344827586207z M131.31034482758616,495.44827586206895 h33.10344827586207 v33.10344827586207 h-33.10344827586207z M164.41379310344823,495.44827586206895 h33.10344827586207 v33.10344827586207 h-33.10344827586207z M197.5172413793103,495.44827586206895 h33.10344827586207 v33.10344827586207 h-33.10344827586207z M230.62068965517238,495.44827586206895 h33.10344827586207 v33.10344827586207 h-33.10344827586207z M263.7241379310344,495.44827586206895 h33.10344827586207 v33.10344827586207 h-33.10344827586207z M329.9310344827586,495.44827586206895 h33.10344827586207 v33.10344827586207 h-33.10344827586207z M363.03448275862064,495.44827586206895 h33.10344827586207 v33.10344827586207 h-33.10344827586207z M429.2413793103448,495.44827586206895 h33.10344827586207 v33.10344827586207 h-33.10344827586207z M462.34482758620686,495.44827586206895 h33.10344827586207 v33.10344827586207 h-33.10344827586207z M495.44827586206895,495.44827586206895 h33.10344827586207 v33.10344827586207 h-33.10344827586207z M528.5517241379309,495.44827586206895 h33.10344827586207 v33.10344827586207 h-33.10344827586207z M561.655172413793,495.44827586206895 h33.10344827586207 v33.10344827586207 h-33.10344827586207z M594.7586206896551,495.44827586206895 h33.10344827586207 v33.10344827586207 h-33.10344827586207z M727.1724137931035,495.44827586206895 h33.10344827586207 v33.10344827586207 h-33.10344827586207z M760.2758620689656,495.44827586206895 h33.10344827586207 v33.10344827586207 h-33.10344827586207z M793.3793103448277,495.44827586206895 h33.10344827586207 v33.10344827586207 h-33.10344827586207z M31.999999999999943,528.5517241379309 h33.10344827586207 v33.10344827586207 h-33.10344827586207z M65.10344827586201,528.5517241379309 h33.10344827586207 v33.10344827586207 h-33.10344827586207z M98.20689655172409,528.5517241379309 h33.10344827586207 v33.10344827586207 h-33.10344827586207z M164.41379310344823,528.5517241379309 h33.10344827586207 v33.10344827586207 h-33.10344827586207z M197.5172413793103,528.5517241379309 h33.10344827586207 v33.10344827586207 h-33.10344827586207z M263.7241379310344,528.5517241379309 h33.10344827586207 v33.10344827586207 h-33.10344827586207z M363.03448275862064,528.5517241379309 h33.10344827586207 v33.10344827586207 h-33.10344827586207z M396.13793103448273,528.5517241379309 h33.10344827586207 v33.10344827586207 h-33.10344827586207z M429.2413793103448,528.5517241379309 h33.10344827586207 v33.10344827586207 h-33.10344827586207z M495.44827586206895,528.5517241379309 h33.10344827586207 v33.10344827586207 h-33.10344827586207z M528.5517241379309,528.5517241379309 h33.10344827586207 v33.10344827586207 h-33.10344827586207z M627.8620689655172,528.5517241379309 h33.10344827586207 v33.10344827586207 h-33.10344827586207z M694.0689655172414,528.5517241379309 h33.10344827586207 v33.10344827586207 h-33.10344827586207z M760.2758620689656,528.5517241379309 h33.10344827586207 v33.10344827586207 h-33.10344827586207z M826.4827586206898,528.5517241379309 h33.10344827586207 v33.10344827586207 h-33.10344827586207z M859.5862068965516,528.5517241379309 h33.10344827586207 v33.10344827586207 h-33.10344827586207z M958.8965517241379,528.5517241379309 h33.10344827586207 v33.10344827586207 h-33.10344827586207z M98.20689655172409,561.655172413793 h33.10344827586207 v33.10344827586207 h-33.10344827586207z M164.41379310344823,561.655172413793 h33.10344827586207 v33.10344827586207 h-33.10344827586207z M197.5172413793103,561.655172413793 h33.10344827586207 v33.10344827586207 h-33.10344827586207z M230.62068965517238,561.655172413793 h33.10344827586207 v33.10344827586207 h-33.10344827586207z M296.8275862068965,561.655172413793 h33.10344827586207 v33.10344827586207 h-33.10344827586207z M363.03448275862064,561.655172413793 h33.10344827586207 v33.10344827586207 h-33.10344827586207z M396.13793103448273,561.655172413793 h33.10344827586207 v33.10344827586207 h-33.10344827586207z M462.34482758620686,561.655172413793 h33.10344827586207 v33.10344827586207 h-33.10344827586207z M495.44827586206895,561.655172413793 h33.10344827586207 v33.10344827586207 h-33.10344827586207z M627.8620689655172,561.655172413793 h33.10344827586207 v33.10344827586207 h-33.10344827586207z M660.9655172413793,561.655172413793 h33.10344827586207 v33.10344827586207 h-33.10344827586207z M694.0689655172414,561.655172413793 h33.10344827586207 v33.10344827586207 h-33.10344827586207z M727.1724137931035,561.655172413793 h33.10344827586207 v33.10344827586207 h-33.10344827586207z M859.5862068965516,561.655172413793 h33.10344827586207 v33.10344827586207 h-33.10344827586207z M892.6896551724137,561.655172413793 h33.10344827586207 v33.10344827586207 h-33.10344827586207z M31.999999999999943,594.7586206896551 h33.10344827586207 v33.10344827586207 h-33.10344827586207z M65.10344827586201,594.7586206896551 h33.10344827586207 v33.10344827586207 h-33.10344827586207z M296.8275862068965,594.7586206896551 h33.10344827586207 v33.10344827586207 h-33.10344827586207z M329.9310344827586,594.7586206896551 h33.10344827586207 v33.10344827586207 h-33.10344827586207z M495.44827586206895,594.7586206896551 h33.10344827586207 v33.10344827586207 h-33.10344827586207z M528.5517241379309,594.7586206896551 h33.10344827586207 v33.10344827586207 h-33.10344827586207z M561.655172413793,594.7586206896551 h33.10344827586207 v33.10344827586207 h-33.10344827586207z M627.8620689655172,594.7586206896551 h33.10344827586207 v33.10344827586207 h-33.10344827586207z M660.9655172413793,594.7586206896551 h33.10344827586207 v33.10344827586207 h-33.10344827586207z M727.1724137931035,594.7586206896551 h33.10344827586207 v33.10344827586207 h-33.10344827586207z M760.2758620689656,594.7586206896551 h33.10344827586207 v33.10344827586207 h-33.10344827586207z M793.3793103448277,594.7586206896551 h33.10344827586207 v33.10344827586207 h-33.10344827586207z M826.4827586206898,594.7586206896551 h33.10344827586207 v33.10344827586207 h-33.10344827586207z M859.5862068965516,594.7586206896551 h33.10344827586207 v33.10344827586207 h-33.10344827586207z M892.6896551724137,594.7586206896551 h33.10344827586207 v33.10344827586207 h-33.10344827586207z M925.7931034482758,594.7586206896551 h33.10344827586207 v33.10344827586207 h-33.10344827586207z M958.8965517241379,594.7586206896551 h33.10344827586207 v33.10344827586207 h-33.10344827586207z M31.999999999999943,627.8620689655172 h33.10344827586207 v33.10344827586207 h-33.10344827586207z M131.31034482758616,627.8620689655172 h33.10344827586207 v33.10344827586207 h-33.10344827586207z M164.41379310344823,627.8620689655172 h33.10344827586207 v33.10344827586207 h-33.10344827586207z M197.5172413793103,627.8620689655172 h33.10344827586207 v33.10344827586207 h-33.10344827586207z M230.62068965517238,627.8620689655172 h33.10344827586207 v33.10344827586207 h-33.10344827586207z M329.9310344827586,627.8620689655172 h33.10344827586207 v33.10344827586207 h-33.10344827586207z M396.13793103448273,627.8620689655172 h33.10344827586207 v33.10344827586207 h-33.10344827586207z M429.2413793103448,627.8620689655172 h33.10344827586207 v33.10344827586207 h-33.10344827586207z M627.8620689655172,627.8620689655172 h33.10344827586207 v33.10344827586207 h-33.10344827586207z M760.2758620689656,627.8620689655172 h33.10344827586207 v33.10344827586207 h-33.10344827586207z M793.3793103448277,627.8620689655172 h33.10344827586207 v33.10344827586207 h-33.10344827586207z M826.4827586206898,627.8620689655172 h33.10344827586207 v33.10344827586207 h-33.10344827586207z M892.6896551724137,627.8620689655172 h33.10344827586207 v33.10344827586207 h-33.10344827586207z M31.999999999999943,660.9655172413793 h33.10344827586207 v33.10344827586207 h-33.10344827586207z M98.20689655172409,660.9655172413793 h33.10344827586207 v33.10344827586207 h-33.10344827586207z M296.8275862068965,660.9655172413793 h33.10344827586207 v33.10344827586207 h-33.10344827586207z M396.13793103448273,660.9655172413793 h33.10344827586207 v33.10344827586207 h-33.10344827586207z M462.34482758620686,660.9655172413793 h33.10344827586207 v33.10344827586207 h-33.10344827586207z M495.44827586206895,660.9655172413793 h33.10344827586207 v33.10344827586207 h-33.10344827586207z M561.655172413793,660.9655172413793 h33.10344827586207 v33.10344827586207 h-33.10344827586207z M660.9655172413793,660.9655172413793 h33.10344827586207 v33.10344827586207 h-33.10344827586207z M760.2758620689656,660.9655172413793 h33.10344827586207 v33.10344827586207 h-33.10344827586207z M859.5862068965516,660.9655172413793 h33.10344827586207 v33.10344827586207 h-33.10344827586207z M31.999999999999943,694.0689655172414 h33.10344827586207 v33.10344827586207 h-33.10344827586207z M98.20689655172409,694.0689655172414 h33.10344827586207 v33.10344827586207 h-33.10344827586207z M164.41379310344823,694.0689655172414 h33.10344827586207 v33.10344827586207 h-33.10344827586207z M230.62068965517238,694.0689655172414 h33.10344827586207 v33.10344827586207 h-33.10344827586207z M263.7241379310344,694.0689655172414 h33.10344827586207 v33.10344827586207 h-33.10344827586207z M296.8275862068965,694.0689655172414 h33.10344827586207 v33.10344827586207 h-33.10344827586207z M462.34482758620686,694.0689655172414 h33.10344827586207 v33.10344827586207 h-33.10344827586207z M495.44827586206895,694.0689655172414 h33.10344827586207 v33.10344827586207 h-33.10344827586207z M594.7586206896551,694.0689655172414 h33.10344827586207 v33.10344827586207 h-33.10344827586207z M694.0689655172414,694.0689655172414 h33.10344827586207 v33.10344827586207 h-33.10344827586207z M727.1724137931035,694.0689655172414 h33.10344827586207 v33.10344827586207 h-33.10344827586207z M760.2758620689656,694.0689655172414 h33.10344827586207 v33.10344827586207 h-33.10344827586207z M793.3793103448277,694.0689655172414 h33.10344827586207 v33.10344827586207 h-33.10344827586207z M826.4827586206898,694.0689655172414 h33.10344827586207 v33.10344827586207 h-33.10344827586207z M892.6896551724137,694.0689655172414 h33.10344827586207 v33.10344827586207 h-33.10344827586207z M958.8965517241379,694.0689655172414 h33.10344827586207 v33.10344827586207 h-33.10344827586207z M296.8275862068965,727.1724137931035 h33.10344827586207 v33.10344827586207 h-33.10344827586207z M396.13793103448273,727.1724137931035 h33.10344827586207 v33.10344827586207 h-33.10344827586207z M429.2413793103448,727.1724137931035 h33.10344827586207 v33.10344827586207 h-33.10344827586207z M462.34482758620686,727.1724137931035 h33.10344827586207 v33.10344827586207 h-33.10344827586207z M594.7586206896551,727.1724137931035 h33.10344827586207 v33.10344827586207 h-33.10344827586207z M627.8620689655172,727.1724137931035 h33.10344827586207 v33.10344827586207 h-33.10344827586207z M694.0689655172414,727.1724137931035 h33.10344827586207 v33.10344827586207 h-33.10344827586207z M826.4827586206898,727.1724137931035 h33.10344827586207 v33.10344827586207 h-33.10344827586207z M859.5862068965516,727.1724137931035 h33.10344827586207 v33.10344827586207 h-33.10344827586207z M925.7931034482758,727.1724137931035 h33.10344827586207 v33.10344827586207 h-33.10344827586207z M958.8965517241379,727.1724137931035 h33.10344827586207 v33.10344827586207 h-33.10344827586207z M296.8275862068965,760.2758620689656 h33.10344827586207 v33.10344827586207 h-33.10344827586207z M396.13793103448273,760.2758620689656 h33.10344827586207 v33.10344827586207 h-33.10344827586207z M495.44827586206895,760.2758620689656 h33.10344827586207 v33.10344827586207 h-33.10344827586207z M528.5517241379309,760.2758620689656 h33.10344827586207 v33.10344827586207 h-33.10344827586207z M561.655172413793,760.2758620689656 h33.10344827586207 v33.10344827586207 h-33.10344827586207z M594.7586206896551,760.2758620689656 h33.10344827586207 v33.10344827586207 h-33.10344827586207z M660.9655172413793,760.2758620689656 h33.10344827586207 v33.10344827586207 h-33.10344827586207z M694.0689655172414,760.2758620689656 h33.10344827586207 v33.10344827586207 h-33.10344827586207z M760.2758620689656,760.2758620689656 h33.10344827586207 v33.10344827586207 h-33.10344827586207z M826.4827586206898,760.2758620689656 h33.10344827586207 v33.10344827586207 h-33.10344827586207z M296.8275862068965,793.3793103448277 h33.10344827586207 v33.10344827586207 h-33.10344827586207z M329.9310344827586,793.3793103448277 h33.10344827586207 v33.10344827586207 h-33.10344827586207z M396.13793103448273,793.3793103448277 h33.10344827586207 v33.10344827586207 h-33.10344827586207z M429.2413793103448,793.3793103448277 h33.10344827586207 v33.10344827586207 h-33.10344827586207z M594.7586206896551,793.3793103448277 h33.10344827586207 v33.10344827586207 h-33.10344827586207z M627.8620689655172,793.3793103448277 h33.10344827586207 v33.10344827586207 h-33.10344827586207z M660.9655172413793,793.3793103448277 h33.10344827586207 v33.10344827586207 h-33.10344827586207z M694.0689655172414,793.3793103448277 h33.10344827586207 v33.10344827586207 h-33.10344827586207z M826.4827586206898,793.3793103448277 h33.10344827586207 v33.10344827586207 h-33.10344827586207z M859.5862068965516,793.3793103448277 h33.10344827586207 v33.10344827586207 h-33.10344827586207z M925.7931034482758,793.3793103448277 h33.10344827586207 v33.10344827586207 h-33.10344827586207z M958.8965517241379,793.3793103448277 h33.10344827586207 v33.10344827586207 h-33.10344827586207z M296.8275862068965,826.4827586206898 h33.10344827586207 v33.10344827586207 h-33.10344827586207z M363.03448275862064,826.4827586206898 h33.10344827586207 v33.10344827586207 h-33.10344827586207z M462.34482758620686,826.4827586206898 h33.10344827586207 v33.10344827586207 h-33.10344827586207z M561.655172413793,826.4827586206898 h33.10344827586207 v33.10344827586207 h-33.10344827586207z M694.0689655172414,826.4827586206898 h33.10344827586207 v33.10344827586207 h-33.10344827586207z M727.1724137931035,826.4827586206898 h33.10344827586207 v33.10344827586207 h-33.10344827586207z M760.2758620689656,826.4827586206898 h33.10344827586207 v33.10344827586207 h-33.10344827586207z M793.3793103448277,826.4827586206898 h33.10344827586207 v33.10344827586207 h-33.10344827586207z M826.4827586206898,826.4827586206898 h33.10344827586207 v33.10344827586207 h-33.10344827586207z M859.5862068965516,826.4827586206898 h33.10344827586207 v33.10344827586207 h-33.10344827586207z M892.6896551724137,826.4827586206898 h33.10344827586207 v33.10344827586207 h-33.10344827586207z M958.8965517241379,826.4827586206898 h33.10344827586207 v33.10344827586207 h-33.10344827586207z M296.8275862068965,859.5862068965516 h33.10344827586207 v33.10344827586207 h-33.10344827586207z M363.03448275862064,859.5862068965516 h33.10344827586207 v33.10344827586207 h-33.10344827586207z M429.2413793103448,859.5862068965516 h33.10344827586207 v33.10344827586207 h-33.10344827586207z M528.5517241379309,859.5862068965516 h33.10344827586207 v33.10344827586207 h-33.10344827586207z M594.7586206896551,859.5862068965516 h33.10344827586207 v33.10344827586207 h-33.10344827586207z M627.8620689655172,859.5862068965516 h33.10344827586207 v33.10344827586207 h-33.10344827586207z M660.9655172413793,859.5862068965516 h33.10344827586207 v33.10344827586207 h-33.10344827586207z M694.0689655172414,859.5862068965516 h33.10344827586207 v33.10344827586207 h-33.10344827586207z M727.1724137931035,859.5862068965516 h33.10344827586207 v33.10344827586207 h-33.10344827586207z M793.3793103448277,859.5862068965516 h33.10344827586207 v33.10344827586207 h-33.10344827586207z M859.5862068965516,859.5862068965516 h33.10344827586207 v33.10344827586207 h-33.10344827586207z M892.6896551724137,859.5862068965516 h33.10344827586207 v33.10344827586207 h-33.10344827586207z M296.8275862068965,892.6896551724137 h33.10344827586207 v33.10344827586207 h-33.10344827586207z M363.03448275862064,892.6896551724137 h33.10344827586207 v33.10344827586207 h-33.10344827586207z M462.34482758620686,892.6896551724137 h33.10344827586207 v33.10344827586207 h-33.10344827586207z M528.5517241379309,892.6896551724137 h33.10344827586207 v33.10344827586207 h-33.10344827586207z M561.655172413793,892.6896551724137 h33.10344827586207 v33.10344827586207 h-33.10344827586207z M594.7586206896551,892.6896551724137 h33.10344827586207 v33.10344827586207 h-33.10344827586207z M660.9655172413793,892.6896551724137 h33.10344827586207 v33.10344827586207 h-33.10344827586207z M694.0689655172414,892.6896551724137 h33.10344827586207 v33.10344827586207 h-33.10344827586207z M727.1724137931035,892.6896551724137 h33.10344827586207 v33.10344827586207 h-33.10344827586207z M760.2758620689656,892.6896551724137 h33.10344827586207 v33.10344827586207 h-33.10344827586207z M793.3793103448277,892.6896551724137 h33.10344827586207 v33.10344827586207 h-33.10344827586207z M826.4827586206898,892.6896551724137 h33.10344827586207 v33.10344827586207 h-33.10344827586207z M925.7931034482758,892.6896551724137 h33.10344827586207 v33.10344827586207 h-33.10344827586207z M296.8275862068965,925.7931034482758 h33.10344827586207 v33.10344827586207 h-33.10344827586207z M329.9310344827586,925.7931034482758 h33.10344827586207 v33.10344827586207 h-33.10344827586207z M363.03448275862064,925.7931034482758 h33.10344827586207 v33.10344827586207 h-33.10344827586207z M495.44827586206895,925.7931034482758 h33.10344827586207 v33.10344827586207 h-33.10344827586207z M528.5517241379309,925.7931034482758 h33.10344827586207 v33.10344827586207 h-33.10344827586207z M627.8620689655172,925.7931034482758 h33.10344827586207 v33.10344827586207 h-33.10344827586207z M694.0689655172414,925.7931034482758 h33.10344827586207 v33.10344827586207 h-33.10344827586207z M760.2758620689656,925.7931034482758 h33.10344827586207 v33.10344827586207 h-33.10344827586207z M826.4827586206898,925.7931034482758 h33.10344827586207 v33.10344827586207 h-33.10344827586207z M859.5862068965516,925.7931034482758 h33.10344827586207 v33.10344827586207 h-33.10344827586207z M925.7931034482758,925.7931034482758 h33.10344827586207 v33.10344827586207 h-33.10344827586207z M528.5517241379309,958.8965517241379 h33.10344827586207 v33.10344827586207 h-33.10344827586207z M594.7586206896551,958.8965517241379 h33.10344827586207 v33.10344827586207 h-33.10344827586207z M660.9655172413793,958.8965517241379 h33.10344827586207 v33.10344827586207 h-33.10344827586207z M760.2758620689656,958.8965517241379 h33.10344827586207 v33.10344827586207 h-33.10344827586207z M826.4827586206898,958.8965517241379 h33.10344827586207 v33.10344827586207 h-33.10344827586207z M892.6896551724137,958.8965517241379 h33.10344827586207 v33.10344827586207 h-33.10344827586207z" fill="#000000"/><mask id="square-corner-31.99999999999994331.999999999999943"><rect x="31.999999999999943" y="31.999999999999943" width="231.7241379310345" height="231.7241379310345" fill="white"/><rect x="65.10344827586201" y="65.10344827586201" width="165.51724137931035" height="165.51724137931035" fill="black"/></mask><rect x="98.20689655172409" y="98.20689655172409" width="99.31034482758622" height="99.31034482758622" fill="#000000"/><rect x="31.999999999999943" y="31.999999999999943" width="231.7241379310345" height="231.7241379310345" fill="#000000" mask="url(#square-corner-31.99999999999994331.999999999999943)"/><mask id="square-corner-760.275862068965631.999999999999943"><rect x="760.2758620689656" y="31.999999999999943" width="231.7241379310345" height="231.7241379310345" fill="white"/><rect x="793.3793103448277" y="65.10344827586201" width="165.51724137931035" height="165.51724137931035" fill="black"/></mask><rect x="826.4827586206898" y="98.20689655172409" width="99.31034482758622" height="99.31034482758622" fill="#000000"/><rect x="760.2758620689656" y="31.999999999999943" width="231.7241379310345" height="231.7241379310345" fill="#000000" mask="url(#square-corner-760.275862068965631.999999999999943)"/><mask id="square-corner-31.999999999999943760.2758620689656"><rect x="31.999999999999943" y="760.2758620689656" width="231.7241379310345" height="231.7241379310345" fill="white"/><rect x="65.10344827586201" y="793.3793103448277" width="165.51724137931035" height="165.51724137931035" fill="black"/></mask><rect x="98.20689655172409" y="826.4827586206898" width="99.31034482758622" height="99.31034482758622" fill="#000000"/><rect x="31.999999999999943" y="760.2758620689656" width="231.7241379310345" height="231.7241379310345" fill="#000000" mask="url(#square-corner-31.999999999999943760.2758620689656)"/></svg>