<svg width="177" height="33" viewBox="0 0 177 33" fill="none" xmlns="http://www.w3.org/2000/svg">
<path d="M30.4131 14.3015L24.1841 20.3735L25.6551 28.9495C25.7191 29.3245 25.5651 29.7035 25.2571 29.9275C25.0831 30.0545 24.8761 30.1185 24.6691 30.1185C24.5101 30.1185 24.3501 30.0805 24.2041 30.0035L16.5021 25.9545L8.80111 30.0025C8.46511 30.1805 8.05611 30.1515 7.74811 29.9265C7.44011 29.7025 7.28611 29.3235 7.35011 28.9485L8.82111 20.3725L2.59111 14.3015C2.31911 14.0355 2.22011 13.6375 2.33811 13.2765C2.45611 12.9155 2.76911 12.6505 3.14611 12.5955L11.7551 11.3455L15.6051 3.5435C15.9421 2.8605 17.0621 2.8605 17.3991 3.5435L21.2491 11.3455L29.8581 12.5955C30.2351 12.6505 30.5481 12.9145 30.6661 13.2765C30.7841 13.6385 30.6851 14.0345 30.4131 14.3015Z" fill="#F8BB00" style="fill:#F8BB00;fill:color(display-p3 0.9725 0.7333 0.0000);fill-opacity:1;"/>
<path d="M66.4131 14.3015L60.1841 20.3735L61.6551 28.9495C61.7191 29.3245 61.5651 29.7035 61.2571 29.9275C61.0831 30.0545 60.8761 30.1185 60.6691 30.1185C60.5101 30.1185 60.3501 30.0805 60.2041 30.0035L52.5021 25.9545L44.8011 30.0025C44.4651 30.1805 44.0561 30.1515 43.7481 29.9265C43.4401 29.7025 43.2861 29.3235 43.3501 28.9485L44.8211 20.3725L38.5911 14.3015C38.3191 14.0355 38.2201 13.6375 38.3381 13.2765C38.4561 12.9155 38.7691 12.6505 39.1461 12.5955L47.7551 11.3455L51.6051 3.5435C51.9421 2.8605 53.0621 2.8605 53.3991 3.5435L57.2491 11.3455L65.8581 12.5955C66.2351 12.6505 66.5481 12.9145 66.6661 13.2765C66.7841 13.6385 66.6851 14.0345 66.4131 14.3015Z" fill="#F8BB00" style="fill:#F8BB00;fill:color(display-p3 0.9725 0.7333 0.0000);fill-opacity:1;"/>
<path d="M102.411 14.3015L96.1822 20.3735L97.6532 28.9495C97.7172 29.3245 97.5632 29.7035 97.2552 29.9275C97.0812 30.0545 96.8742 30.1185 96.6672 30.1185C96.5082 30.1185 96.3482 30.0805 96.2022 30.0035L88.5002 25.9545L80.7992 30.0025C80.4632 30.1805 80.0542 30.1515 79.7462 29.9265C79.4382 29.7025 79.2842 29.3235 79.3482 28.9485L80.8192 20.3725L74.5892 14.3015C74.3172 14.0355 74.2182 13.6375 74.3362 13.2765C74.4542 12.9155 74.7672 12.6505 75.1442 12.5955L83.7532 11.3455L87.6032 3.5435C87.9402 2.8605 89.0602 2.8605 89.3972 3.5435L93.2472 11.3455L101.856 12.5955C102.233 12.6505 102.546 12.9145 102.664 13.2765C102.782 13.6385 102.683 14.0345 102.411 14.3015Z" fill="#F8BB00" style="fill:#F8BB00;fill:color(display-p3 0.9725 0.7333 0.0000);fill-opacity:1;"/>
<path d="M138.411 14.3015L132.182 20.3735L133.653 28.9495C133.717 29.3245 133.563 29.7035 133.255 29.9275C133.081 30.0545 132.874 30.1185 132.667 30.1185C132.508 30.1185 132.348 30.0805 132.202 30.0035L124.5 25.9545L116.799 30.0025C116.463 30.1805 116.054 30.1515 115.746 29.9265C115.438 29.7025 115.284 29.3235 115.348 28.9485L116.819 20.3725L110.589 14.3015C110.317 14.0355 110.218 13.6375 110.336 13.2765C110.454 12.9155 110.767 12.6505 111.144 12.5955L119.753 11.3455L123.603 3.5435C123.94 2.8605 125.06 2.8605 125.397 3.5435L129.247 11.3455L137.856 12.5955C138.233 12.6505 138.546 12.9145 138.664 13.2765C138.782 13.6385 138.683 14.0345 138.411 14.3015Z" fill="#F8BB00" style="fill:#F8BB00;fill:color(display-p3 0.9725 0.7333 0.0000);fill-opacity:1;"/>
<path d="M174.411 14.3015L168.182 20.3735L169.653 28.9495C169.717 29.3245 169.563 29.7035 169.255 29.9275C169.081 30.0545 168.874 30.1185 168.667 30.1185C168.508 30.1185 168.348 30.0805 168.202 30.0035L160.5 25.9545L152.799 30.0025C152.463 30.1805 152.054 30.1515 151.746 29.9265C151.438 29.7025 151.284 29.3235 151.348 28.9485L152.819 20.3725L146.589 14.3015C146.317 14.0355 146.218 13.6375 146.336 13.2765C146.454 12.9155 146.767 12.6505 147.144 12.5955L155.753 11.3455L159.603 3.5435C159.94 2.8605 161.06 2.8605 161.397 3.5435L165.247 11.3455L173.856 12.5955C174.233 12.6505 174.546 12.9145 174.664 13.2765C174.782 13.6385 174.683 14.0345 174.411 14.3015Z" fill="url(#paint0_linear_11583_14316)" style=""/>
<defs>
<linearGradient id="paint0_linear_11583_14316" x1="146.278" y1="13.8854" x2="174.723" y2="13.8854" gradientUnits="userSpaceOnUse">
<stop stop-color="#F8BB00" style="stop-color:#F8BB00;stop-color:color(display-p3 0.9725 0.7333 0.0000);stop-opacity:1;"/>
<stop offset="0.9" stop-color="#F8BB00" style="stop-color:#F8BB00;stop-color:color(display-p3 0.9725 0.7333 0.0000);stop-opacity:1;"/>
<stop offset="0.9" stop-color="#141414" stop-opacity="0.1" style="stop-color:#141414;stop-color:color(display-p3 0.0784 0.0784 0.0784);stop-opacity:0.1;"/>
<stop offset="1" stop-color="#141414" stop-opacity="0.1" style="stop-color:#141414;stop-color:color(display-p3 0.0784 0.0784 0.0784);stop-opacity:0.1;"/>
</linearGradient>
</defs>
</svg>
