<svg width="121" height="41" viewBox="0 0 121 41" fill="none" xmlns="http://www.w3.org/2000/svg">
<rect x="0.958984" y="0.722656" width="119.167" height="39.7222" rx="5.95833" fill="white" style="fill:white;fill-opacity:1;"/>
<path d="M25.4928 21.3415C25.5049 20.428 25.7534 19.5323 26.2153 18.7378C26.6772 17.9432 27.3374 17.2756 28.1346 16.7972C27.6282 16.0911 26.9601 15.51 26.1834 15.1C25.4067 14.6901 24.5428 14.4626 23.6603 14.4356C21.7778 14.2427 19.9528 15.5354 18.9935 15.5354C18.0156 15.5354 16.5387 14.4548 14.9482 14.4867C13.9194 14.5192 12.9168 14.8113 12.0381 15.3345C11.1593 15.8577 10.4343 16.5942 9.93383 17.4723C7.76578 21.1371 9.38295 26.5231 11.4598 29.4854C12.4989 30.936 13.7133 32.5563 15.3023 32.4989C16.8573 32.4359 17.4381 31.5308 19.315 31.5308C21.1746 31.5308 21.7194 32.4989 23.3407 32.4623C25.0093 32.4359 26.0605 31.0053 27.0632 29.541C27.8098 28.5074 28.3843 27.3651 28.7654 26.1563C27.796 25.756 26.9688 25.086 26.3868 24.2298C25.8049 23.3736 25.4939 22.3691 25.4928 21.3415Z" fill="#111111" style="fill:#111111;fill:color(display-p3 0.0667 0.0667 0.0667);fill-opacity:1;"/>
<path d="M22.4286 12.4884C23.3384 11.4221 23.7866 10.0516 23.678 8.66797C22.2881 8.81049 21.0042 9.45903 20.0822 10.4844C19.6314 10.9853 19.2861 11.568 19.0661 12.1993C18.8461 12.8305 18.7557 13.4979 18.8 14.1633C19.4952 14.1703 20.183 14.0232 20.8115 13.7331C21.4401 13.443 21.993 13.0174 22.4286 12.4884Z" fill="#111111" style="fill:#111111;fill:color(display-p3 0.0667 0.0667 0.0667);fill-opacity:1;"/>
<path d="M37.4945 9.26578H39.55C41.3261 9.26578 42.1902 10.3219 42.1902 12.2377C42.1902 14.1535 41.3174 15.2227 39.55 15.2227H37.4945V9.26578ZM38.4851 10.0993V14.3891H39.4409C40.6191 14.3891 41.1734 13.6778 41.1734 12.2508C41.1734 10.815 40.6148 10.0993 39.4409 10.0993H38.4851ZM45.3235 10.5313C46.528 10.5313 47.3703 11.3125 47.3703 12.6086V13.2065C47.3703 14.5462 46.528 15.3012 45.3235 15.3012C44.1016 15.3012 43.2681 14.555 43.2681 13.2108V12.613C43.2681 11.3518 44.1147 10.5313 45.3235 10.5313ZM45.3279 11.3125C44.6384 11.3125 44.2456 11.8885 44.2456 12.661V13.1759C44.2456 13.9484 44.6122 14.5201 45.3279 14.5201C46.0349 14.5201 46.3971 13.9527 46.3971 13.1759V12.661C46.3971 11.8885 46.0174 11.3125 45.3279 11.3125ZM54.4836 10.6099L53.2704 15.2227H52.2841L51.3197 11.8187H51.2935L50.3465 15.2227H49.3559L48.0903 10.6099H49.1333L49.8752 14.1273H49.9189L50.8484 10.6099H51.7605L52.7162 14.1273H52.7598L53.5148 10.6099H54.4836ZM55.4437 15.2227V10.6099H56.3951V11.4391H56.4431C56.5609 11.0768 56.8969 10.5401 57.8308 10.5401C58.7603 10.5401 59.3844 11.055 59.3844 12.1068V15.2227H58.4156V12.3904C58.4156 11.6878 58.049 11.3649 57.5035 11.3649C56.7878 11.3649 56.4125 11.9147 56.4125 12.661V15.2227H55.4437ZM60.8507 15.2227V8.95157H61.8195V15.2227H60.8507ZM65.1449 10.5313C66.3494 10.5313 67.1916 11.3125 67.1916 12.6086V13.2065C67.1916 14.5462 66.3494 15.3012 65.1449 15.3012C63.923 15.3012 63.0894 14.555 63.0894 13.2108V12.613C63.0894 11.3518 63.9361 10.5313 65.1449 10.5313ZM65.1493 11.3125C64.4597 11.3125 64.067 11.8885 64.067 12.661V13.1759C64.067 13.9484 64.4336 14.5201 65.1493 14.5201C65.8562 14.5201 66.2184 13.9527 66.2184 13.1759V12.661C66.2184 11.8885 65.8388 11.3125 65.1493 11.3125ZM69.7009 15.2925C68.8063 15.2925 68.191 14.7426 68.191 13.8829C68.191 13.0668 68.7583 12.517 69.8231 12.517H70.9883V12.0849C70.9883 11.5569 70.6523 11.3081 70.1199 11.3081C69.5962 11.3081 69.3605 11.5263 69.2863 11.8318H68.3655C68.4223 11.0594 69.0027 10.5401 70.1504 10.5401C71.1367 10.5401 71.9528 10.9503 71.9528 12.098V15.2227H71.0319V14.6248H70.9883C70.7832 14.9783 70.3817 15.2925 69.7009 15.2925ZM70.002 14.5419C70.5519 14.5419 70.9883 14.1666 70.9883 13.6647V13.1672H69.9759C69.4129 13.1672 69.1642 13.4509 69.1642 13.8349C69.1642 14.3149 69.5656 14.5419 70.002 14.5419ZM74.9377 10.5488C75.588 10.5488 76.0855 10.8368 76.2644 11.3038H76.3124V8.95157H77.2812V15.2227H76.3386V14.4851H76.2906C76.1509 14.9521 75.5967 15.2838 74.9247 15.2838C73.8642 15.2838 73.1747 14.5288 73.1747 13.3112V12.5213C73.1747 11.3038 73.8773 10.5488 74.9377 10.5488ZM75.2083 11.343C74.5624 11.343 74.1609 11.8231 74.1609 12.661V13.1672C74.1609 14.0095 74.5668 14.4895 75.2301 14.4895C75.8847 14.4895 76.3124 14.0138 76.3124 13.2283V12.5301C76.3124 11.8187 75.8455 11.343 75.2083 11.343ZM82.601 10.5313C83.8054 10.5313 84.6477 11.3125 84.6477 12.6086V13.2065C84.6477 14.5462 83.8054 15.3012 82.601 15.3012C81.379 15.3012 80.5455 14.555 80.5455 13.2108V12.613C80.5455 11.3518 81.3921 10.5313 82.601 10.5313ZM82.6053 11.3125C81.9158 11.3125 81.523 11.8885 81.523 12.661V13.1759C81.523 13.9484 81.8896 14.5201 82.6053 14.5201C83.3123 14.5201 83.6745 13.9527 83.6745 13.1759V12.661C83.6745 11.8885 83.2948 11.3125 82.6053 11.3125ZM85.8958 15.2227V10.6099H86.8471V11.4391H86.8951C87.013 11.0768 87.349 10.5401 88.2829 10.5401C89.2124 10.5401 89.8365 11.055 89.8365 12.1068V15.2227H88.8677V12.3904C88.8677 11.6878 88.5011 11.3649 87.9556 11.3649C87.2399 11.3649 86.8646 11.9147 86.8646 12.661V15.2227H85.8958ZM93.5852 10.6404V9.48834H94.5322V10.6404H95.5664V11.3998H94.5322V13.848C94.5322 14.3499 94.7198 14.4895 95.2391 14.4895C95.3701 14.4895 95.5446 14.4808 95.6188 14.472V15.2139C95.5403 15.227 95.2173 15.2532 94.9991 15.2532C93.8776 15.2532 93.5721 14.8517 93.5721 13.9265V11.3998H92.8695V10.6404H93.5852ZM96.7884 15.2227V8.95157H97.7528V11.4391H97.8008C97.9012 11.1118 98.2765 10.5401 99.2017 10.5401C100.101 10.5401 100.742 11.0594 100.742 12.1111V15.2227H99.7777V12.3948C99.7777 11.6922 99.3893 11.3649 98.8394 11.3649C98.1456 11.3649 97.7528 11.9104 97.7528 12.661V15.2227H96.7884ZM103.993 15.3012C102.737 15.3012 101.955 14.5288 101.955 13.2283V12.6042C101.955 11.295 102.811 10.5313 103.937 10.5313C105.093 10.5313 105.909 11.3343 105.909 12.6042V13.1454H102.915V13.3723C102.915 14.0356 103.308 14.5244 103.989 14.5244C104.495 14.5244 104.844 14.2844 104.91 13.9964H105.857C105.8 14.5288 105.237 15.3012 103.993 15.3012ZM102.915 12.5126H104.962V12.4515C104.962 11.7576 104.556 11.295 103.941 11.295C103.326 11.295 102.915 11.7576 102.915 12.4515V12.5126Z" fill="#111111" style="fill:#111111;fill:color(display-p3 0.0667 0.0667 0.0667);fill-opacity:1;"/>
<path d="M38.8997 31.2227H36.8835L40.9857 19.3089H43.2026L47.2961 31.2227H45.2014L44.1453 27.9235H39.9645L38.8997 31.2227ZM42.1029 21.3687H42.0244L40.4097 26.4048H43.7001L42.1029 21.3687ZM52.8604 31.3536C51.6647 31.3536 50.757 30.7863 50.2682 29.9396H50.1984V34.2862H48.2607V21.9971H50.146V23.35H50.2158C50.722 22.4684 51.6647 21.8749 52.9041 21.8749C54.9726 21.8749 56.4476 23.4373 56.4476 26.1953V27.0157C56.4476 29.7563 54.9901 31.3536 52.8604 31.3536ZM52.4153 29.7563C53.6459 29.7563 54.4838 28.7701 54.4838 26.911V26.2651C54.4838 24.4759 53.6983 23.4547 52.3804 23.4547C51.0275 23.4547 50.1809 24.5544 50.1809 26.2564V26.911C50.1809 28.6566 51.0363 29.7563 52.4153 29.7563ZM62.7102 31.3536C61.5145 31.3536 60.6067 30.7863 60.118 29.9396H60.0482V34.2862H58.1105V21.9971H59.9958V23.35H60.0656C60.5718 22.4684 61.5145 21.8749 62.7538 21.8749C64.8224 21.8749 66.2974 23.4373 66.2974 26.1953V27.0157C66.2974 29.7563 64.8398 31.3536 62.7102 31.3536ZM62.2651 29.7563C63.4957 29.7563 64.3336 28.7701 64.3336 26.911V26.2651C64.3336 24.4759 63.5481 23.4547 62.2302 23.4547C60.8773 23.4547 60.0307 24.5544 60.0307 26.2564V26.911C60.0307 28.6566 60.886 29.7563 62.2651 29.7563ZM70.3127 27.9147H72.2504C72.3376 28.9446 73.2454 29.8262 74.9299 29.8262C76.4747 29.8262 77.3912 29.1017 77.3912 27.9758C77.3912 27.0681 76.7802 26.5793 75.5059 26.2739L73.5508 25.7851C72.0147 25.4272 70.6357 24.5108 70.6357 22.5732C70.6357 20.2952 72.6257 19.0471 74.9386 19.0471C77.2515 19.0471 79.1804 20.2952 79.2241 22.5208H77.3213C77.2341 21.5084 76.4573 20.6705 74.9124 20.6705C73.5508 20.6705 72.6257 21.3163 72.6257 22.4248C72.6257 23.2016 73.1668 23.7602 74.2753 24.0133L76.2216 24.4933C78.0109 24.9297 79.3724 25.7764 79.3724 27.8013C79.3724 30.1404 77.4785 31.4583 74.7815 31.4583C71.4648 31.4583 70.3564 29.5207 70.3127 27.9147ZM81.7336 21.9971V19.754H83.6363V21.9971H85.4343V23.5507H83.6363V28.4733C83.6363 29.4771 84.0116 29.7563 85.0502 29.7563C85.2161 29.7563 85.3732 29.7563 85.4866 29.7389V31.2227C85.3295 31.2488 84.963 31.2838 84.5702 31.2838C82.3271 31.2838 81.7074 30.4808 81.7074 28.6304V23.5507H80.4331V21.9971H81.7336ZM90.6669 21.84C93.3202 21.84 94.7604 23.7078 94.7604 26.2215V26.9634C94.7604 29.5643 93.329 31.3798 90.6669 31.3798C88.0049 31.3798 86.556 29.5643 86.556 26.9634V26.2215C86.556 23.7166 88.0136 21.84 90.6669 21.84ZM90.6669 23.3936C89.2268 23.3936 88.5111 24.5719 88.5111 26.2477V26.9547C88.5111 28.6042 89.2181 29.8174 90.6669 29.8174C92.1158 29.8174 92.814 28.613 92.814 26.9547V26.2477C92.814 24.5632 92.1071 23.3936 90.6669 23.3936ZM96.3971 31.2227V21.9971H98.3347V23.2103H98.4045C98.6402 22.6343 99.3297 21.8662 100.613 21.8662C100.866 21.8662 101.084 21.8837 101.267 21.9186V23.6293C101.101 23.5856 100.761 23.5594 100.438 23.5594C98.8846 23.5594 98.3609 24.5195 98.3609 25.7589V31.2227H96.3971ZM105.968 31.3798C103.498 31.3798 101.927 29.7476 101.927 27.0157V26.0818C101.927 23.5071 103.463 21.84 105.889 21.84C108.35 21.84 109.834 23.5682 109.834 26.1691V27.0507H103.838V27.2689C103.838 28.8224 104.676 29.8524 105.994 29.8524C106.98 29.8524 107.652 29.3636 107.888 28.5693H109.729C109.45 30.0618 108.246 31.3798 105.968 31.3798ZM103.838 25.6978H107.94V25.6804C107.94 24.3712 107.128 23.3412 105.898 23.3412C104.65 23.3412 103.838 24.3712 103.838 25.6804V25.6978Z" fill="#111111" style="fill:#111111;fill:color(display-p3 0.0667 0.0667 0.0667);fill-opacity:1;"/>
</svg>
